<ttFont>
<head>
    <!-- Most of this table will be recalculated by the compiler -->
    <tableVersion value="1.0"/>
    <fontRevision value="1.301"/>
    <checkSumAdjustment value="0x512634d6"/>
    <magicNumber value="0x5f0f3cf5"/>
    <flags value="00000000 00001011"/>
    <unitsPerEm value="1000"/>
    <created value="Tue Jul  1 21:12:00 2008"/>
    <modified value="Thu Mar  6 18:34:06 2014"/>
    <xMin value="-235"/>
    <yMin value="-262"/>
    <xMax value="1331"/>
    <yMax value="1093"/>
    <macStyle value="00000000 00000000"/>
    <lowestRecPPEM value="9"/>
    <fontDirectionHint value="2"/>
    <indexToLocFormat value="0"/>
    <glyphDataFormat value="0"/>
  </head>
    <TTGlyph name="A" xMin="22" yMin="0" xMax="674" yMax="745">
      <contour>
        <pt x="614" y="0" on="1"/>
        <pt x="519" y="224" on="1"/>
        <pt x="175" y="224" on="1"/>
        <pt x="81" y="0" on="1"/>
        <pt x="22" y="0" on="1"/>
        <pt x="343" y="745" on="1"/>
        <pt x="353" y="745" on="1"/>
        <pt x="674" y="0" on="1"/>
      </contour>
      <contour>
        <pt x="347" y="631" on="1"/>
        <pt x="196" y="272" on="1"/>
        <pt x="498" y="272" on="1"/>
      </contour>
    </TTGlyph>
    <TTGlyph name="AE" xMin="19" yMin="0" xMax="958" yMax="733">
      <contour>
        <pt x="544" y="0" on="1"/>
        <pt x="544" y="241" on="1"/>
        <pt x="256" y="241" on="1"/>
        <pt x="85" y="0" on="1"/>
        <pt x="19" y="0" on="1"/>
        <pt x="546" y="733" on="1"/>
        <pt x="958" y="733" on="1"/>
        <pt x="958" y="683" on="1"/>
        <pt x="601" y="683" on="1"/>
        <pt x="601" y="397" on="1"/>
        <pt x="923" y="397" on="1"/>
        <pt x="923" y="347" on="1"/>
        <pt x="601" y="347" on="1"/>
        <pt x="601" y="51" on="1"/>
        <pt x="958" y="51" on="1"/>
        <pt x="958" y="0" on="1"/>
      </contour>
      <contour>
        <pt x="544" y="646" on="1"/>
        <pt x="290" y="289" on="1"/>
        <pt x="544" y="289" on="1"/>
      </contour>
    </TTGlyph>
    <TTGlyph name="AEacute" xMin="19" yMin="0" xMax="958" yMax="949">
      <component glyphName="acute" x="489" y="320" flags="0x4"/>
      <component glyphName="AE" x="0" y="0" flags="0x4"/>
    </TTGlyph>
    <TTGlyph name="Aacute" xMin="22" yMin="0" xMax="674" yMax="949">
      <component glyphName="A" x="0" y="0" flags="0x204"/>
      <component glyphName="acute" x="191" y="320" flags="0x4"/>
    </TTGlyph>
    <TTGlyph name="Abreve" xMin="22" yMin="0" xMax="674" yMax="930">
      <component glyphName="A" x="0" y="0" flags="0x204"/>
      <component glyphName="breve" x="128" y="320" flags="0x4"/>
    </TTGlyph>
    <TTGlyph name="Acircumflex" xMin="22" yMin="0" xMax="674" yMax="956">
      <component glyphName="A" x="0" y="0" flags="0x204"/>
      <component glyphName="circumflex" x="126" y="320" flags="0x4"/>
    </TTGlyph>
    <TTGlyph name="Adieresis" xMin="22" yMin="0" xMax="674" yMax="906">
      <component glyphName="A" x="0" y="0" flags="0x204"/>
      <component glyphName="dieresis" x="127" y="320" flags="0x4"/>
    </TTGlyph>
    <TTGlyph name="Agrave" xMin="22" yMin="0" xMax="674" yMax="948">
      <component glyphName="A" x="0" y="0" flags="0x204"/>
      <component glyphName="grave" x="55" y="320" flags="0x4"/>
    </TTGlyph>
    <TTGlyph name="Amacron" xMin="22" yMin="0" xMax="674" yMax="880">
      <component glyphName="A" x="0" y="0" flags="0x204"/>
      <component glyphName="macron" x="128" y="320" flags="0x4"/>
    </TTGlyph>
    <TTGlyph name="Aogonek" xMin="22" yMin="-220" xMax="694" yMax="745">
      <contour>
        <pt x="694" y="-169" on="1"/>
        <pt x="677" y="-192" on="0"/>
        <pt x="636" y="-219" on="0"/>
        <pt x="607" y="-219" on="1"/>
        <pt x="572" y="-220" on="0"/>
        <pt x="529" y="-178" on="0"/>
        <pt x="529" y="-143" on="1"/>
        <pt x="530" y="-109" on="0"/>
        <pt x="570" y="-43" on="0"/>
        <pt x="613" y="2" on="1"/>
        <pt x="519" y="224" on="1"/>
        <pt x="175" y="224" on="1"/>
        <pt x="81" y="0" on="1"/>
        <pt x="22" y="0" on="1"/>
        <pt x="343" y="745" on="1"/>
        <pt x="353" y="745" on="1"/>
        <pt x="674" y="0" on="1"/>
        <pt x="657" y="0" on="1"/>
        <pt x="620" y="-40" on="0"/>
        <pt x="576" y="-108" on="0"/>
        <pt x="576" y="-137" on="1"/>
        <pt x="576" y="-157" on="0"/>
        <pt x="597" y="-180" on="0"/>
        <pt x="614" y="-180" on="1"/>
        <pt x="631" y="-180" on="0"/>
        <pt x="657" y="-163" on="0"/>
        <pt x="670" y="-146" on="1"/>
      </contour>
      <contour>
        <pt x="347" y="631" on="1"/>
        <pt x="196" y="272" on="1"/>
        <pt x="498" y="272" on="1"/>
      </contour>
    </TTGlyph>
    <TTGlyph name="Aring" xMin="22" yMin="0" xMax="674" yMax="912">
      <contour>
        <pt x="451" y="811" on="1"/>
        <pt x="451" y="773" on="0"/>
        <pt x="405" y="718" on="0"/>
        <pt x="367" y="711" on="1"/>
        <pt x="674" y="0" on="1"/>
        <pt x="614" y="0" on="1"/>
        <pt x="519" y="224" on="1"/>
        <pt x="175" y="224" on="1"/>
        <pt x="81" y="0" on="1"/>
        <pt x="22" y="0" on="1"/>
        <pt x="328" y="712" on="1"/>
        <pt x="290" y="718" on="0"/>
        <pt x="245" y="774" on="0"/>
        <pt x="245" y="811" on="1"/>
        <pt x="245" y="853" on="0"/>
        <pt x="302" y="912" on="0"/>
        <pt x="348" y="912" on="1"/>
        <pt x="395" y="912" on="0"/>
        <pt x="451" y="853" on="0"/>
      </contour>
      <contour>
        <pt x="347" y="631" on="1"/>
        <pt x="196" y="272" on="1"/>
        <pt x="498" y="272" on="1"/>
      </contour>
      <contour>
        <pt x="410" y="812" on="1"/>
        <pt x="410" y="841" on="0"/>
        <pt x="375" y="877" on="0"/>
        <pt x="348" y="877" on="1"/>
        <pt x="322" y="877" on="0"/>
        <pt x="287" y="841" on="0"/>
        <pt x="287" y="812" on="1"/>
        <pt x="287" y="783" on="0"/>
        <pt x="322" y="746" on="0"/>
        <pt x="348" y="746" on="1"/>
        <pt x="375" y="746" on="0"/>
        <pt x="410" y="783" on="0"/>
      </contour>
    </TTGlyph>
    <TTGlyph name="Aringacute" xMin="22" yMin="0" xMax="674" yMax="1093">
      <component glyphName="acute" x="181" y="464" flags="0x4"/>
      <component glyphName="Aring" x="0" y="0" flags="0x4"/>
    </TTGlyph>
    <TTGlyph name="Atilde" xMin="22" yMin="0" xMax="674" yMax="910">
      <component glyphName="A" x="0" y="0" flags="0x204"/>
      <component glyphName="tilde" x="130" y="320" flags="0x4"/>
    </TTGlyph>
    <TTGlyph name="B" xMin="87" yMin="-7" xMax="525" yMax="740">
      <contour>
        <pt x="525" y="199" on="1"/>
        <pt x="525" y="159" on="0"/>
        <pt x="491" y="84" on="0"/>
        <pt x="424" y="27" on="0"/>
        <pt x="324" y="-7" on="0"/>
        <pt x="258" y="-7" on="1"/>
        <pt x="213" y="-7" on="0"/>
        <pt x="128" y="0" on="0"/>
        <pt x="87" y="5" on="1"/>
        <pt x="87" y="728" on="1"/>
        <pt x="128" y="733" on="0"/>
        <pt x="206" y="740" on="0"/>
        <pt x="251" y="740" on="1"/>
        <pt x="317" y="740" on="0"/>
        <pt x="413" y="710" on="0"/>
        <pt x="476" y="659" on="0"/>
        <pt x="507" y="591" on="0"/>
        <pt x="507" y="554" on="1"/>
        <pt x="507" y="488" on="0"/>
        <pt x="430" y="400" on="0"/>
        <pt x="355" y="380" on="1"/>
        <pt x="443" y="364" on="0"/>
        <pt x="525" y="265" on="0"/>
      </contour>
      <contour>
        <pt x="450" y="548" on="1"/>
        <pt x="450" y="611" on="0"/>
        <pt x="355" y="692" on="0"/>
        <pt x="255" y="692" on="1"/>
        <pt x="195" y="692" on="0"/>
        <pt x="143" y="683" on="1"/>
        <pt x="143" y="402" on="1"/>
        <pt x="166" y="400" on="0"/>
        <pt x="211" y="400" on="0"/>
        <pt x="234" y="400" on="1"/>
        <pt x="290" y="400" on="0"/>
        <pt x="371" y="423" on="0"/>
        <pt x="424" y="463" on="0"/>
        <pt x="450" y="517" on="0"/>
      </contour>
      <contour>
        <pt x="467" y="202" on="1"/>
        <pt x="467" y="269" on="0"/>
        <pt x="353" y="355" on="0"/>
        <pt x="238" y="355" on="1"/>
        <pt x="218" y="355" on="0"/>
        <pt x="166" y="355" on="0"/>
        <pt x="143" y="353" on="1"/>
        <pt x="143" y="51" on="1"/>
        <pt x="170" y="47" on="0"/>
        <pt x="233" y="42" on="0"/>
        <pt x="264" y="42" on="1"/>
        <pt x="314" y="42" on="0"/>
        <pt x="390" y="67" on="0"/>
        <pt x="441" y="110" on="0"/>
        <pt x="467" y="168" on="0"/>
      </contour>
    </TTGlyph>
    <TTGlyph name="C" xMin="58" yMin="-10" xMax="697" yMax="745">
      <contour>
        <pt x="695" y="70" on="1"/>
        <pt x="645" y="37" on="0"/>
        <pt x="521" y="-10" on="0"/>
        <pt x="442" y="-10" on="1"/>
        <pt x="362" y="-10" on="0"/>
        <pt x="223" y="43" on="0"/>
        <pt x="118" y="140" on="0"/>
        <pt x="58" y="279" on="0"/>
        <pt x="58" y="365" on="1"/>
        <pt x="58" y="451" on="0"/>
        <pt x="119" y="591" on="0"/>
        <pt x="224" y="691" on="0"/>
        <pt x="364" y="745" on="0"/>
        <pt x="442" y="745" on="1"/>
        <pt x="522" y="745" on="0"/>
        <pt x="647" y="699" on="0"/>
        <pt x="697" y="665" on="1"/>
        <pt x="672" y="618" on="1"/>
        <pt x="621" y="651" on="0"/>
        <pt x="505" y="693" on="0"/>
        <pt x="439" y="693" on="1"/>
        <pt x="371" y="693" on="0"/>
        <pt x="255" y="646" on="0"/>
        <pt x="168" y="561" on="0"/>
        <pt x="119" y="440" on="0"/>
        <pt x="119" y="366" on="1"/>
        <pt x="119" y="292" on="0"/>
        <pt x="169" y="172" on="0"/>
        <pt x="257" y="88" on="0"/>
        <pt x="374" y="42" on="0"/>
        <pt x="442" y="42" on="1"/>
        <pt x="508" y="42" on="0"/>
        <pt x="624" y="84" on="0"/>
        <pt x="675" y="116" on="1"/>
      </contour>
    </TTGlyph>
    <TTGlyph name="Cacute" xMin="58" yMin="-10" xMax="697" yMax="949">
      <component glyphName="acute" x="269" y="320" flags="0x4"/>
      <component glyphName="C" x="0" y="0" flags="0x4"/>
    </TTGlyph>
    <TTGlyph name="Ccaron" xMin="58" yMin="-10" xMax="697" yMax="951">
      <component glyphName="caron" x="206" y="320" flags="0x4"/>
      <component glyphName="C" x="0" y="0" flags="0x4"/>
    </TTGlyph>
    <TTGlyph name="Ccedilla" xMin="58" yMin="-237" xMax="697" yMax="745">
      <contour>
        <pt x="537" y="-150" on="1"/>
        <pt x="537" y="-185" on="0"/>
        <pt x="486" y="-237" on="0"/>
        <pt x="435" y="-237" on="1"/>
        <pt x="409" y="-237" on="0"/>
        <pt x="358" y="-220" on="0"/>
        <pt x="329" y="-204" on="1"/>
        <pt x="347" y="-168" on="1"/>
        <pt x="373" y="-182" on="0"/>
        <pt x="415" y="-197" on="0"/>
        <pt x="435" y="-197" on="1"/>
        <pt x="462" y="-197" on="0"/>
        <pt x="490" y="-172" on="0"/>
        <pt x="490" y="-152" on="1"/>
        <pt x="490" y="-129" on="0"/>
        <pt x="445" y="-94" on="0"/>
        <pt x="389" y="-89" on="1"/>
        <pt x="386" y="-83" on="1"/>
        <pt x="406" y="-8" on="1"/>
        <pt x="333" y="-2" on="0"/>
        <pt x="206" y="55" on="0"/>
        <pt x="112" y="151" on="0"/>
        <pt x="58" y="284" on="0"/>
        <pt x="58" y="365" on="1"/>
        <pt x="58" y="451" on="0"/>
        <pt x="119" y="591" on="0"/>
        <pt x="224" y="691" on="0"/>
        <pt x="364" y="745" on="0"/>
        <pt x="442" y="745" on="1"/>
        <pt x="522" y="745" on="0"/>
        <pt x="647" y="699" on="0"/>
        <pt x="697" y="665" on="1"/>
        <pt x="672" y="618" on="1"/>
        <pt x="621" y="651" on="0"/>
        <pt x="505" y="693" on="0"/>
        <pt x="439" y="693" on="1"/>
        <pt x="371" y="693" on="0"/>
        <pt x="255" y="646" on="0"/>
        <pt x="168" y="561" on="0"/>
        <pt x="119" y="440" on="0"/>
        <pt x="119" y="366" on="1"/>
        <pt x="119" y="292" on="0"/>
        <pt x="169" y="172" on="0"/>
        <pt x="257" y="88" on="0"/>
        <pt x="374" y="42" on="0"/>
        <pt x="442" y="42" on="1"/>
        <pt x="508" y="42" on="0"/>
        <pt x="624" y="84" on="0"/>
        <pt x="675" y="116" on="1"/>
        <pt x="695" y="70" on="1"/>
        <pt x="645" y="37" on="0"/>
        <pt x="523" y="-9" on="0"/>
        <pt x="445" y="-10" on="1"/>
        <pt x="433" y="-55" on="1"/>
        <pt x="488" y="-66" on="0"/>
        <pt x="537" y="-118" on="0"/>
      </contour>
    </TTGlyph>
    <TTGlyph name="Cdotaccent" xMin="58" yMin="-10" xMax="697" yMax="906">
      <component glyphName="C" x="0" y="0" flags="0x204"/>
      <component glyphName="dotaccent" x="205" y="320" flags="0x4"/>
    </TTGlyph>
    <TTGlyph name="D" xMin="87" yMin="-7" xMax="682" yMax="740">
      <contour>
        <pt x="682" y="373" on="1"/>
        <pt x="682" y="297" on="0"/>
        <pt x="629" y="160" on="0"/>
        <pt x="526" y="55" on="0"/>
        <pt x="371" y="-7" on="0"/>
        <pt x="269" y="-7" on="1"/>
        <pt x="216" y="-7" on="0"/>
        <pt x="121" y="0" on="0"/>
        <pt x="87" y="5" on="1"/>
        <pt x="87" y="728" on="1"/>
        <pt x="121" y="733" on="0"/>
        <pt x="213" y="740" on="0"/>
        <pt x="265" y="740" on="1"/>
        <pt x="367" y="740" on="0"/>
        <pt x="523" y="678" on="0"/>
        <pt x="628" y="576" on="0"/>
        <pt x="682" y="443" on="0"/>
      </contour>
      <contour>
        <pt x="622" y="373" on="1"/>
        <pt x="622" y="439" on="0"/>
        <pt x="576" y="554" on="0"/>
        <pt x="486" y="641" on="0"/>
        <pt x="353" y="691" on="0"/>
        <pt x="266" y="691" on="1"/>
        <pt x="231" y="691" on="0"/>
        <pt x="165" y="687" on="0"/>
        <pt x="143" y="683" on="1"/>
        <pt x="143" y="50" on="1"/>
        <pt x="166" y="46" on="0"/>
        <pt x="230" y="42" on="0"/>
        <pt x="271" y="42" on="1"/>
        <pt x="358" y="42" on="0"/>
        <pt x="490" y="93" on="0"/>
        <pt x="578" y="182" on="0"/>
        <pt x="622" y="303" on="0"/>
      </contour>
    </TTGlyph>
    <TTGlyph name="Dcaron" xMin="87" yMin="-7" xMax="682" yMax="951">
      <component glyphName="caron" x="134" y="320" flags="0x4"/>
      <component glyphName="D" x="0" y="0" flags="0x4"/>
    </TTGlyph>
    <TTGlyph name="Dcroat" xMin="30" yMin="-7" xMax="712" yMax="740">
      <component glyphName="Eth" x="0" y="0" flags="0x204"/>
    </TTGlyph>
    <TTGlyph name="E" xMin="87" yMin="0" xMax="501" yMax="733">
      <contour>
        <pt x="87" y="0" on="1"/>
        <pt x="87" y="733" on="1"/>
        <pt x="501" y="733" on="1"/>
        <pt x="501" y="683" on="1"/>
        <pt x="143" y="683" on="1"/>
        <pt x="143" y="397" on="1"/>
        <pt x="466" y="397" on="1"/>
        <pt x="466" y="347" on="1"/>
        <pt x="143" y="347" on="1"/>
        <pt x="143" y="51" on="1"/>
        <pt x="501" y="51" on="1"/>
        <pt x="501" y="0" on="1"/>
      </contour>
    </TTGlyph>
    <TTGlyph name="Eacute" xMin="87" yMin="0" xMax="501" yMax="949">
      <component glyphName="acute" x="138" y="320" flags="0x4"/>
      <component glyphName="E" x="0" y="0" flags="0x4"/>
    </TTGlyph>
    <TTGlyph name="Ebreve" xMin="87" yMin="0" xMax="501" yMax="930">
      <component glyphName="E" x="0" y="0" flags="0x204"/>
      <component glyphName="breve" x="75" y="320" flags="0x4"/>
    </TTGlyph>
    <TTGlyph name="Ecaron" xMin="87" yMin="0" xMax="501" yMax="951">
      <component glyphName="caron" x="75" y="320" flags="0x4"/>
      <component glyphName="E" x="0" y="0" flags="0x4"/>
    </TTGlyph>
    <TTGlyph name="Ecircumflex" xMin="87" yMin="0" xMax="501" yMax="956">
      <component glyphName="circumflex" x="73" y="320" flags="0x4"/>
      <component glyphName="E" x="0" y="0" flags="0x4"/>
    </TTGlyph>
    <TTGlyph name="Edieresis" xMin="87" yMin="0" xMax="501" yMax="906">
      <component glyphName="dieresis" x="74" y="320" flags="0x4"/>
      <component glyphName="E" x="0" y="0" flags="0x4"/>
    </TTGlyph>
    <TTGlyph name="Edotaccent" xMin="87" yMin="0" xMax="501" yMax="906">
      <component glyphName="E" x="0" y="0" flags="0x204"/>
      <component glyphName="dotaccent" x="74" y="320" flags="0x4"/>
    </TTGlyph>
    <TTGlyph name="Egrave" xMin="87" yMin="0" xMax="501" yMax="948">
      <component glyphName="E" x="0" y="0" flags="0x204"/>
      <component glyphName="grave" x="2" y="320" flags="0x4"/>
    </TTGlyph>
    <TTGlyph name="Emacron" xMin="87" yMin="0" xMax="501" yMax="880">
      <component glyphName="E" x="0" y="0" flags="0x204"/>
      <component glyphName="macron" x="75" y="320" flags="0x4"/>
    </TTGlyph>
    <TTGlyph name="Eogonek" xMin="87" yMin="-220" xMax="505" yMax="733">
      <contour>
        <pt x="468" y="0" on="1"/>
        <pt x="431" y="-40" on="0"/>
        <pt x="387" y="-108" on="0"/>
        <pt x="387" y="-137" on="1"/>
        <pt x="387" y="-157" on="0"/>
        <pt x="408" y="-180" on="0"/>
        <pt x="425" y="-180" on="1"/>
        <pt x="442" y="-180" on="0"/>
        <pt x="468" y="-163" on="0"/>
        <pt x="481" y="-146" on="1"/>
        <pt x="505" y="-169" on="1"/>
        <pt x="488" y="-192" on="0"/>
        <pt x="447" y="-219" on="0"/>
        <pt x="418" y="-219" on="1"/>
        <pt x="383" y="-220" on="0"/>
        <pt x="340" y="-178" on="0"/>
        <pt x="340" y="-143" on="1"/>
        <pt x="341" y="-110" on="0"/>
        <pt x="380" y="-45" on="0"/>
        <pt x="422" y="0" on="1"/>
        <pt x="87" y="0" on="1"/>
        <pt x="87" y="733" on="1"/>
        <pt x="501" y="733" on="1"/>
        <pt x="501" y="683" on="1"/>
        <pt x="143" y="683" on="1"/>
        <pt x="143" y="397" on="1"/>
        <pt x="466" y="397" on="1"/>
        <pt x="466" y="347" on="1"/>
        <pt x="143" y="347" on="1"/>
        <pt x="143" y="51" on="1"/>
        <pt x="501" y="51" on="1"/>
        <pt x="501" y="0" on="1"/>
      </contour>
    </TTGlyph>
    <TTGlyph name="Eth" xMin="30" yMin="-7" xMax="712" yMax="740">
      <contour>
        <pt x="712" y="373" on="1"/>
        <pt x="712" y="297" on="0"/>
        <pt x="659" y="160" on="0"/>
        <pt x="556" y="55" on="0"/>
        <pt x="401" y="-7" on="0"/>
        <pt x="299" y="-7" on="1"/>
        <pt x="246" y="-7" on="0"/>
        <pt x="151" y="0" on="0"/>
        <pt x="117" y="5" on="1"/>
        <pt x="117" y="348" on="1"/>
        <pt x="30" y="348" on="1"/>
        <pt x="30" y="398" on="1"/>
        <pt x="117" y="398" on="1"/>
        <pt x="117" y="728" on="1"/>
        <pt x="151" y="733" on="0"/>
        <pt x="243" y="740" on="0"/>
        <pt x="295" y="740" on="1"/>
        <pt x="397" y="740" on="0"/>
        <pt x="553" y="678" on="0"/>
        <pt x="658" y="576" on="0"/>
        <pt x="712" y="443" on="0"/>
      </contour>
      <contour>
        <pt x="652" y="373" on="1"/>
        <pt x="652" y="439" on="0"/>
        <pt x="606" y="554" on="0"/>
        <pt x="516" y="641" on="0"/>
        <pt x="384" y="691" on="0"/>
        <pt x="297" y="691" on="1"/>
        <pt x="262" y="691" on="0"/>
        <pt x="195" y="687" on="0"/>
        <pt x="173" y="683" on="1"/>
        <pt x="173" y="398" on="1"/>
        <pt x="309" y="398" on="1"/>
        <pt x="309" y="348" on="1"/>
        <pt x="173" y="348" on="1"/>
        <pt x="173" y="50" on="1"/>
        <pt x="196" y="46" on="0"/>
        <pt x="261" y="42" on="0"/>
        <pt x="302" y="42" on="1"/>
        <pt x="389" y="42" on="0"/>
        <pt x="521" y="93" on="0"/>
        <pt x="608" y="182" on="0"/>
        <pt x="652" y="303" on="0"/>
      </contour>
    </TTGlyph>
    <TTGlyph name="Euro" xMin="28" yMin="-10" xMax="587" yMax="586">
      <contour>
        <pt x="28" y="331" on="1"/>
        <pt x="28" y="380" on="1"/>
        <pt x="107" y="380" on="1"/>
        <pt x="121" y="427" on="0"/>
        <pt x="177" y="503" on="0"/>
        <pt x="254" y="557" on="0"/>
        <pt x="346" y="586" on="0"/>
        <pt x="397" y="586" on="1"/>
        <pt x="454" y="586" on="0"/>
        <pt x="549" y="554" on="0"/>
        <pt x="587" y="531" on="1"/>
        <pt x="563" y="485" on="1"/>
        <pt x="527" y="508" on="0"/>
        <pt x="441" y="536" on="0"/>
        <pt x="393" y="536" on="1"/>
        <pt x="314" y="536" on="0"/>
        <pt x="191" y="454" on="0"/>
        <pt x="166" y="380" on="1"/>
        <pt x="469" y="380" on="1"/>
        <pt x="469" y="331" on="1"/>
        <pt x="154" y="331" on="1"/>
        <pt x="151" y="310" on="0"/>
        <pt x="151" y="286" on="1"/>
        <pt x="151" y="263" on="0"/>
        <pt x="154" y="242" on="1"/>
        <pt x="469" y="242" on="1"/>
        <pt x="469" y="195" on="1"/>
        <pt x="167" y="195" on="1"/>
        <pt x="180" y="158" on="0"/>
        <pt x="226" y="100" on="0"/>
        <pt x="286" y="61" on="0"/>
        <pt x="358" y="41" on="0"/>
        <pt x="397" y="41" on="1"/>
        <pt x="445" y="41" on="0"/>
        <pt x="531" y="69" on="0"/>
        <pt x="568" y="92" on="1"/>
        <pt x="587" y="46" on="1"/>
        <pt x="549" y="23" on="0"/>
        <pt x="454" y="-10" on="0"/>
        <pt x="397" y="-10" on="1"/>
        <pt x="345" y="-10" on="0"/>
        <pt x="252" y="18" on="0"/>
        <pt x="175" y="71" on="0"/>
        <pt x="120" y="147" on="0"/>
        <pt x="106" y="195" on="1"/>
        <pt x="28" y="195" on="1"/>
        <pt x="28" y="242" on="1"/>
        <pt x="95" y="242" on="1"/>
        <pt x="94" y="253" on="0"/>
        <pt x="93" y="274" on="0"/>
        <pt x="93" y="286" on="1"/>
        <pt x="93" y="310" on="0"/>
        <pt x="96" y="331" on="1"/>
      </contour>
    </TTGlyph>
    <TTGlyph name="Euro.lin" xMin="41" yMin="-10" xMax="743" yMax="744">
      <contour>
        <pt x="41" y="423" on="1"/>
        <pt x="41" y="472" on="1"/>
        <pt x="139" y="472" on="1"/>
        <pt x="155" y="533" on="0"/>
        <pt x="225" y="634" on="0"/>
        <pt x="321" y="705" on="0"/>
        <pt x="440" y="744" on="0"/>
        <pt x="507" y="744" on="1"/>
        <pt x="581" y="744" on="0"/>
        <pt x="696" y="704" on="0"/>
        <pt x="743" y="675" on="1"/>
        <pt x="721" y="630" on="1"/>
        <pt x="673" y="659" on="0"/>
        <pt x="563" y="694" on="0"/>
        <pt x="503" y="695" on="1"/>
        <pt x="449" y="695" on="0"/>
        <pt x="351" y="664" on="0"/>
        <pt x="271" y="606" on="0"/>
        <pt x="212" y="523" on="0"/>
        <pt x="197" y="472" on="1"/>
        <pt x="600" y="472" on="1"/>
        <pt x="600" y="423" on="1"/>
        <pt x="186" y="423" on="1"/>
        <pt x="184" y="409" on="0"/>
        <pt x="182" y="380" on="0"/>
        <pt x="182" y="365" on="1"/>
        <pt x="182" y="350" on="0"/>
        <pt x="184" y="320" on="0"/>
        <pt x="186" y="306" on="1"/>
        <pt x="600" y="306" on="1"/>
        <pt x="600" y="256" on="1"/>
        <pt x="198" y="256" on="1"/>
        <pt x="214" y="205" on="0"/>
        <pt x="274" y="125" on="0"/>
        <pt x="355" y="70" on="0"/>
        <pt x="453" y="40" on="0"/>
        <pt x="507" y="40" on="1"/>
        <pt x="567" y="40" on="0"/>
        <pt x="678" y="77" on="0"/>
        <pt x="726" y="106" on="1"/>
        <pt x="743" y="61" on="1"/>
        <pt x="696" y="32" on="0"/>
        <pt x="579" y="-10" on="0"/>
        <pt x="506" y="-10" on="1"/>
        <pt x="439" y="-10" on="0"/>
        <pt x="320" y="28" on="0"/>
        <pt x="224" y="97" on="0"/>
        <pt x="156" y="195" on="0"/>
        <pt x="139" y="256" on="1"/>
        <pt x="41" y="256" on="1"/>
        <pt x="41" y="306" on="1"/>
        <pt x="130" y="306" on="1"/>
        <pt x="128" y="320" on="0"/>
        <pt x="126" y="349" on="0"/>
        <pt x="126" y="364" on="1"/>
        <pt x="126" y="379" on="0"/>
        <pt x="129" y="409" on="0"/>
        <pt x="131" y="423" on="1"/>
      </contour>
    </TTGlyph>
    <TTGlyph name="F" xMin="87" yMin="0" xMax="501" yMax="733">
      <contour>
        <pt x="143" y="683" on="1"/>
        <pt x="143" y="384" on="1"/>
        <pt x="466" y="384" on="1"/>
        <pt x="466" y="334" on="1"/>
        <pt x="143" y="334" on="1"/>
        <pt x="143" y="0" on="1"/>
        <pt x="87" y="0" on="1"/>
        <pt x="87" y="733" on="1"/>
        <pt x="501" y="733" on="1"/>
        <pt x="501" y="683" on="1"/>
      </contour>
    </TTGlyph>
    <TTGlyph name="G" xMin="58" yMin="-10" xMax="712" yMax="745">
      <contour>
        <pt x="712" y="349" on="1"/>
        <pt x="712" y="80" on="1"/>
        <pt x="658" y="37" on="0"/>
        <pt x="527" y="-10" on="0"/>
        <pt x="446" y="-10" on="1"/>
        <pt x="371" y="-10" on="0"/>
        <pt x="231" y="41" on="0"/>
        <pt x="123" y="137" on="0"/>
        <pt x="58" y="277" on="0"/>
        <pt x="58" y="366" on="1"/>
        <pt x="58" y="454" on="0"/>
        <pt x="123" y="595" on="0"/>
        <pt x="230" y="693" on="0"/>
        <pt x="367" y="745" on="0"/>
        <pt x="439" y="745" on="1"/>
        <pt x="483" y="745" on="0"/>
        <pt x="558" y="732" on="0"/>
        <pt x="623" y="708" on="0"/>
        <pt x="681" y="675" on="0"/>
        <pt x="710" y="655" on="1"/>
        <pt x="680" y="611" on="1"/>
        <pt x="628" y="649" on="0"/>
        <pt x="509" y="694" on="0"/>
        <pt x="439" y="695" on="1"/>
        <pt x="371" y="695" on="0"/>
        <pt x="254" y="646" on="0"/>
        <pt x="168" y="559" on="0"/>
        <pt x="119" y="438" on="0"/>
        <pt x="119" y="366" on="1"/>
        <pt x="119" y="292" on="0"/>
        <pt x="171" y="171" on="0"/>
        <pt x="261" y="86" on="0"/>
        <pt x="381" y="40" on="0"/>
        <pt x="448" y="40" on="1"/>
        <pt x="509" y="40" on="0"/>
        <pt x="612" y="73" on="0"/>
        <pt x="656" y="104" on="1"/>
        <pt x="656" y="297" on="1"/>
        <pt x="447" y="297" on="1"/>
        <pt x="447" y="349" on="1"/>
      </contour>
    </TTGlyph>
    <TTGlyph name="G.alt" xMin="58" yMin="-10" xMax="781" yMax="745">
      <contour>
        <pt x="781" y="343" on="1"/>
        <pt x="781" y="267" on="0"/>
        <pt x="729" y="138" on="0"/>
        <pt x="637" y="43" on="0"/>
        <pt x="511" y="-10" on="0"/>
        <pt x="437" y="-10" on="1"/>
        <pt x="363" y="-10" on="0"/>
        <pt x="226" y="42" on="0"/>
        <pt x="121" y="139" on="0"/>
        <pt x="58" y="278" on="0"/>
        <pt x="58" y="366" on="1"/>
        <pt x="58" y="454" on="0"/>
        <pt x="123" y="595" on="0"/>
        <pt x="229" y="693" on="0"/>
        <pt x="367" y="745" on="0"/>
        <pt x="439" y="745" on="1"/>
        <pt x="483" y="745" on="0"/>
        <pt x="558" y="732" on="0"/>
        <pt x="623" y="708" on="0"/>
        <pt x="681" y="675" on="0"/>
        <pt x="710" y="655" on="1"/>
        <pt x="680" y="611" on="1"/>
        <pt x="627" y="649" on="0"/>
        <pt x="508" y="694" on="0"/>
        <pt x="439" y="695" on="1"/>
        <pt x="371" y="695" on="0"/>
        <pt x="254" y="646" on="0"/>
        <pt x="168" y="559" on="0"/>
        <pt x="119" y="438" on="0"/>
        <pt x="119" y="366" on="1"/>
        <pt x="119" y="292" on="0"/>
        <pt x="170" y="172" on="0"/>
        <pt x="258" y="86" on="0"/>
        <pt x="374" y="40" on="0"/>
        <pt x="439" y="40" on="1"/>
        <pt x="496" y="40" on="0"/>
        <pt x="595" y="78" on="0"/>
        <pt x="670" y="146" on="0"/>
        <pt x="717" y="239" on="0"/>
        <pt x="721" y="293" on="1"/>
        <pt x="421" y="293" on="1"/>
        <pt x="421" y="343" on="1"/>
      </contour>
    </TTGlyph>
    <TTGlyph name="Gbreve" xMin="58" yMin="-10" xMax="712" yMax="930">
      <component glyphName="G" x="0" y="0" flags="0x204"/>
      <component glyphName="breve" x="207" y="320" flags="0x4"/>
    </TTGlyph>
    <TTGlyph name="Gbreve.alt" xMin="58" yMin="-10" xMax="781" yMax="930">
      <component glyphName="G.alt" x="0" y="0" flags="0x204"/>
      <component glyphName="breve" x="225" y="320" flags="0x4"/>
    </TTGlyph>
    <TTGlyph name="Gcommaaccent" xMin="58" yMin="-262" xMax="712" yMax="745">
      <component glyphName="commaaccent" x="332" y="0" flags="0x4"/>
      <component glyphName="G" x="0" y="0" flags="0x4"/>
    </TTGlyph>
    <TTGlyph name="Gcommaaccent.alt" xMin="58" yMin="-262" xMax="781" yMax="745">
      <component glyphName="commaaccent" x="350" y="0" flags="0x4"/>
      <component glyphName="G.alt" x="0" y="0" flags="0x4"/>
    </TTGlyph>
    <TTGlyph name="Gdotaccent" xMin="58" yMin="-10" xMax="712" yMax="906">
      <component glyphName="G" x="0" y="0" flags="0x204"/>
      <component glyphName="dotaccent" x="207" y="320" flags="0x4"/>
    </TTGlyph>
    <TTGlyph name="Gdotaccent.alt" xMin="58" yMin="-10" xMax="781" yMax="906">
      <component glyphName="G.alt" x="0" y="0" flags="0x204"/>
      <component glyphName="dotaccent" x="225" y="320" flags="0x4"/>
    </TTGlyph>
    <TTGlyph name="H" xMin="87" yMin="0" xMax="620" yMax="733">
      <contour>
        <pt x="564" y="0" on="1"/>
        <pt x="564" y="348" on="1"/>
        <pt x="143" y="348" on="1"/>
        <pt x="143" y="0" on="1"/>
        <pt x="87" y="0" on="1"/>
        <pt x="87" y="733" on="1"/>
        <pt x="143" y="733" on="1"/>
        <pt x="143" y="398" on="1"/>
        <pt x="564" y="398" on="1"/>
        <pt x="564" y="733" on="1"/>
        <pt x="620" y="733" on="1"/>
        <pt x="620" y="0" on="1"/>
      </contour>
    </TTGlyph>
    <TTGlyph name="Hbar" xMin="17" yMin="0" xMax="710" yMax="733">
      <contour>
        <pt x="574" y="0" on="1"/>
        <pt x="574" y="348" on="1"/>
        <pt x="153" y="348" on="1"/>
        <pt x="153" y="0" on="1"/>
        <pt x="97" y="0" on="1"/>
        <pt x="97" y="554" on="1"/>
        <pt x="17" y="554" on="1"/>
        <pt x="17" y="602" on="1"/>
        <pt x="97" y="602" on="1"/>
        <pt x="97" y="733" on="1"/>
        <pt x="153" y="733" on="1"/>
        <pt x="153" y="602" on="1"/>
        <pt x="574" y="602" on="1"/>
        <pt x="574" y="733" on="1"/>
        <pt x="630" y="733" on="1"/>
        <pt x="630" y="602" on="1"/>
        <pt x="710" y="602" on="1"/>
        <pt x="710" y="554" on="1"/>
        <pt x="630" y="554" on="1"/>
        <pt x="630" y="0" on="1"/>
      </contour>
      <contour>
        <pt x="574" y="398" on="1"/>
        <pt x="574" y="554" on="1"/>
        <pt x="153" y="554" on="1"/>
        <pt x="153" y="398" on="1"/>
      </contour>
    </TTGlyph>
    <TTGlyph name="I" xMin="91" yMin="0" xMax="147" yMax="733">
      <contour>
        <pt x="91" y="0" on="1"/>
        <pt x="91" y="733" on="1"/>
        <pt x="147" y="733" on="1"/>
        <pt x="147" y="0" on="1"/>
      </contour>
    </TTGlyph>
    <TTGlyph name="Iacute" xMin="75" yMin="0" xMax="285" yMax="949">
      <component glyphName="I" x="0" y="0" flags="0x4"/>
      <component glyphName="acute" x="-37" y="320" flags="0x4"/>
    </TTGlyph>
    <TTGlyph name="Ibreve" xMin="-2" yMin="0" xMax="242" yMax="930">
      <component glyphName="I" x="0" y="0" flags="0x4"/>
      <component glyphName="breve" x="-100" y="320" flags="0x4"/>
    </TTGlyph>
    <TTGlyph name="Icircumflex" xMin="-16" yMin="0" xMax="255" yMax="956">
      <component glyphName="I" x="0" y="0" flags="0x4"/>
      <component glyphName="circumflex" x="-102" y="320" flags="0x4"/>
    </TTGlyph>
    <TTGlyph name="Idieresis" xMin="-8" yMin="0" xMax="247" yMax="906">
      <component glyphName="I" x="0" y="0" flags="0x4"/>
      <component glyphName="dieresis" x="-101" y="320" flags="0x4"/>
    </TTGlyph>
    <TTGlyph name="Idotaccent" xMin="77" yMin="0" xMax="162" yMax="906">
      <component glyphName="I" x="0" y="0" flags="0x4"/>
      <component glyphName="dotaccent" x="-101" y="320" flags="0x4"/>
    </TTGlyph>
    <TTGlyph name="Igrave" xMin="-50" yMin="0" xMax="161" yMax="948">
      <component glyphName="I" x="0" y="0" flags="0x4"/>
      <component glyphName="grave" x="-173" y="320" flags="0x4"/>
    </TTGlyph>
    <TTGlyph name="Imacron" xMin="-23" yMin="0" xMax="264" yMax="880">
      <component glyphName="I" x="0" y="0" flags="0x4"/>
      <component glyphName="macron" x="-100" y="320" flags="0x4"/>
    </TTGlyph>
    <TTGlyph name="Iogonek" xMin="24" yMin="-220" xMax="190" yMax="733">
      <contour>
        <pt x="190" y="-168" on="1"/>
        <pt x="173" y="-191" on="0"/>
        <pt x="130" y="-219" on="0"/>
        <pt x="101" y="-219" on="1"/>
        <pt x="67" y="-220" on="0"/>
        <pt x="24" y="-176" on="0"/>
        <pt x="25" y="-141" on="1"/>
        <pt x="25" y="-109" on="0"/>
        <pt x="59" y="-45" on="0"/>
        <pt x="97" y="0" on="1"/>
        <pt x="91" y="0" on="1"/>
        <pt x="91" y="733" on="1"/>
        <pt x="147" y="733" on="1"/>
        <pt x="147" y="0" on="1"/>
        <pt x="142" y="0" on="1"/>
        <pt x="107" y="-42" on="0"/>
        <pt x="71" y="-106" on="0"/>
        <pt x="71" y="-136" on="1"/>
        <pt x="71" y="-157" on="0"/>
        <pt x="93" y="-180" on="0"/>
        <pt x="109" y="-180" on="1"/>
        <pt x="126" y="-180" on="0"/>
        <pt x="152" y="-163" on="0"/>
        <pt x="165" y="-146" on="1"/>
      </contour>
    </TTGlyph>
    <TTGlyph name="J" xMin="17" yMin="-12" xMax="382" yMax="733">
      <contour>
        <pt x="382" y="218" on="1"/>
        <pt x="382" y="112" on="0"/>
        <pt x="277" y="-12" on="0"/>
        <pt x="180" y="-12" on="1"/>
        <pt x="128" y="-12" on="0"/>
        <pt x="48" y="19" on="0"/>
        <pt x="17" y="44" on="1"/>
        <pt x="47" y="87" on="1"/>
        <pt x="73" y="67" on="0"/>
        <pt x="140" y="40" on="0"/>
        <pt x="181" y="40" on="1"/>
        <pt x="250" y="40" on="0"/>
        <pt x="326" y="128" on="0"/>
        <pt x="326" y="219" on="1"/>
        <pt x="326" y="733" on="1"/>
        <pt x="382" y="733" on="1"/>
      </contour>
    </TTGlyph>
    <TTGlyph name="K" xMin="87" yMin="0" xMax="572" yMax="733">
      <contour>
        <pt x="498" y="0" on="1"/>
        <pt x="143" y="362" on="1"/>
        <pt x="143" y="0" on="1"/>
        <pt x="87" y="0" on="1"/>
        <pt x="87" y="733" on="1"/>
        <pt x="143" y="733" on="1"/>
        <pt x="143" y="392" on="1"/>
        <pt x="486" y="733" on="1"/>
        <pt x="558" y="733" on="1"/>
        <pt x="197" y="377" on="1"/>
        <pt x="572" y="0" on="1"/>
      </contour>
    </TTGlyph>
    <TTGlyph name="Kcommaaccent" xMin="87" yMin="-250" xMax="572" yMax="733">
      <component glyphName="commaaccent" x="212" y="12" flags="0x4"/>
      <component glyphName="K" x="0" y="0" flags="0x4"/>
    </TTGlyph>
    <TTGlyph name="L" xMin="87" yMin="0" xMax="501" yMax="733">
      <contour>
        <pt x="87" y="0" on="1"/>
        <pt x="87" y="733" on="1"/>
        <pt x="143" y="733" on="1"/>
        <pt x="143" y="51" on="1"/>
        <pt x="501" y="51" on="1"/>
        <pt x="501" y="0" on="1"/>
      </contour>
    </TTGlyph>
    <TTGlyph name="Lacute" xMin="87" yMin="0" xMax="501" yMax="949">
      <component glyphName="acute" x="-10" y="320" flags="0x4"/>
      <component glyphName="L" x="0" y="0" flags="0x4"/>
    </TTGlyph>
    <TTGlyph name="Lcaron" xMin="87" yMin="0" xMax="501" yMax="734">
      <component glyphName="caron.alt" x="174" y="-3" flags="0x4"/>
      <component glyphName="L" x="0" y="0" flags="0x4"/>
    </TTGlyph>
    <TTGlyph name="Lcommaaccent" xMin="87" yMin="-262" xMax="501" yMax="733">
      <component glyphName="commaaccent" x="194" y="0" flags="0x4"/>
      <component glyphName="L" x="0" y="0" flags="0x4"/>
    </TTGlyph>
    <TTGlyph name="Ldot" xMin="87" yMin="0" xMax="501" yMax="733">
      <contour>
        <pt x="87" y="0" on="1"/>
        <pt x="87" y="733" on="1"/>
        <pt x="143" y="733" on="1"/>
        <pt x="143" y="51" on="1"/>
        <pt x="501" y="51" on="1"/>
        <pt x="501" y="0" on="1"/>
      </contour>
      <contour>
        <pt x="336" y="369" on="1"/>
        <pt x="336" y="386" on="0"/>
        <pt x="361" y="412" on="0"/>
        <pt x="378" y="412" on="1"/>
        <pt x="396" y="412" on="0"/>
        <pt x="421" y="386" on="0"/>
        <pt x="421" y="369" on="1"/>
        <pt x="421" y="352" on="0"/>
        <pt x="396" y="327" on="0"/>
        <pt x="378" y="327" on="1"/>
        <pt x="361" y="327" on="0"/>
        <pt x="336" y="352" on="0"/>
      </contour>
    </TTGlyph>
    <TTGlyph name="Lslash" xMin="42" yMin="0" xMax="521" yMax="733">
      <contour>
        <pt x="107" y="0" on="1"/>
        <pt x="107" y="326" on="1"/>
        <pt x="42" y="297" on="1"/>
        <pt x="42" y="351" on="1"/>
        <pt x="107" y="380" on="1"/>
        <pt x="107" y="733" on="1"/>
        <pt x="163" y="733" on="1"/>
        <pt x="163" y="405" on="1"/>
        <pt x="267" y="453" on="1"/>
        <pt x="267" y="399" on="1"/>
        <pt x="215" y="375" on="1"/>
        <pt x="163" y="351" on="1"/>
        <pt x="163" y="51" on="1"/>
        <pt x="521" y="51" on="1"/>
        <pt x="521" y="0" on="1"/>
      </contour>
    </TTGlyph>
    <TTGlyph name="M" xMin="76" yMin="0" xMax="771" yMax="744">
      <contour>
        <pt x="714" y="0" on="1"/>
        <pt x="702" y="586" on="1"/>
        <pt x="428" y="105" on="1"/>
        <pt x="419" y="105" on="1"/>
        <pt x="145" y="587" on="1"/>
        <pt x="133" y="0" on="1"/>
        <pt x="76" y="0" on="1"/>
        <pt x="101" y="742" on="1"/>
        <pt x="114" y="744" on="1"/>
        <pt x="426" y="189" on="1"/>
        <pt x="733" y="744" on="1"/>
        <pt x="746" y="742" on="1"/>
        <pt x="771" y="0" on="1"/>
      </contour>
    </TTGlyph>
    <TTGlyph name="M.alt" xMin="76" yMin="0" xMax="771" yMax="744">
      <contour>
        <pt x="714" y="0" on="1"/>
        <pt x="702" y="607" on="1"/>
        <pt x="428" y="180" on="1"/>
        <pt x="418" y="180" on="1"/>
        <pt x="145" y="606" on="1"/>
        <pt x="133" y="0" on="1"/>
        <pt x="76" y="0" on="1"/>
        <pt x="101" y="742" on="1"/>
        <pt x="114" y="744" on="1"/>
        <pt x="426" y="256" on="1"/>
        <pt x="733" y="744" on="1"/>
        <pt x="746" y="742" on="1"/>
        <pt x="771" y="0" on="1"/>
      </contour>
    </TTGlyph>
    <TTGlyph name="N" xMin="87" yMin="-11" xMax="640" yMax="744">
      <contour>
        <pt x="630" y="-11" on="1"/>
        <pt x="142" y="611" on="1"/>
        <pt x="142" y="0" on="1"/>
        <pt x="87" y="0" on="1"/>
        <pt x="87" y="741" on="1"/>
        <pt x="100" y="744" on="1"/>
        <pt x="584" y="129" on="1"/>
        <pt x="584" y="733" on="1"/>
        <pt x="640" y="733" on="1"/>
        <pt x="640" y="-9" on="1"/>
      </contour>
    </TTGlyph>
    <TTGlyph name="Nacute" xMin="87" yMin="-11" xMax="640" yMax="936">
      <component glyphName="acute" x="206" y="307" flags="0x4"/>
      <component glyphName="N" x="0" y="0" flags="0x4"/>
    </TTGlyph>
    <TTGlyph name="Ncaron" xMin="87" yMin="-11" xMax="640" yMax="938">
      <component glyphName="caron" x="144" y="307" flags="0x4"/>
      <component glyphName="N" x="0" y="0" flags="0x4"/>
    </TTGlyph>
    <TTGlyph name="Ncommaaccent" xMin="87" yMin="-250" xMax="640" yMax="744">
      <component glyphName="commaaccent" x="268" y="12" flags="0x4"/>
      <component glyphName="N" x="0" y="0" flags="0x4"/>
    </TTGlyph>
    <TTGlyph name="Ntilde" xMin="87" yMin="-11" xMax="640" yMax="897">
      <component glyphName="N" x="0" y="0" flags="0x204"/>
      <component glyphName="tilde" x="145" y="307" flags="0x4"/>
    </TTGlyph>
    <TTGlyph name="O" xMin="58" yMin="-10" xMax="784" yMax="744">
      <contour>
        <pt x="784" y="366" on="1"/>
        <pt x="784" y="285" on="0"/>
        <pt x="727" y="147" on="0"/>
        <pt x="628" y="46" on="0"/>
        <pt x="495" y="-10" on="0"/>
        <pt x="419" y="-10" on="1"/>
        <pt x="344" y="-10" on="0"/>
        <pt x="212" y="46" on="0"/>
        <pt x="114" y="147" on="0"/>
        <pt x="58" y="285" on="0"/>
        <pt x="58" y="366" on="1"/>
        <pt x="58" y="447" on="0"/>
        <pt x="115" y="586" on="0"/>
        <pt x="214" y="687" on="0"/>
        <pt x="347" y="744" on="0"/>
        <pt x="423" y="744" on="1"/>
        <pt x="498" y="744" on="0"/>
        <pt x="630" y="687" on="0"/>
        <pt x="728" y="586" on="0"/>
        <pt x="784" y="447" on="0"/>
      </contour>
      <contour>
        <pt x="723" y="366" on="1"/>
        <pt x="723" y="435" on="0"/>
        <pt x="678" y="555" on="0"/>
        <pt x="598" y="643" on="0"/>
        <pt x="487" y="693" on="0"/>
        <pt x="421" y="693" on="1"/>
        <pt x="355" y="693" on="0"/>
        <pt x="244" y="643" on="0"/>
        <pt x="164" y="555" on="0"/>
        <pt x="119" y="435" on="0"/>
        <pt x="119" y="366" on="1"/>
        <pt x="119" y="297" on="0"/>
        <pt x="164" y="178" on="0"/>
        <pt x="244" y="90" on="0"/>
        <pt x="355" y="40" on="0"/>
        <pt x="421" y="40" on="1"/>
        <pt x="487" y="40" on="0"/>
        <pt x="598" y="90" on="0"/>
        <pt x="678" y="178" on="0"/>
        <pt x="723" y="297" on="0"/>
      </contour>
    </TTGlyph>
    <TTGlyph name="OE" xMin="58" yMin="-7" xMax="1006" yMax="740">
      <contour>
        <pt x="605" y="0" on="1"/>
        <pt x="576" y="-3" on="0"/>
        <pt x="510" y="-7" on="0"/>
        <pt x="475" y="-7" on="1"/>
        <pt x="373" y="-7" on="0"/>
        <pt x="217" y="55" on="0"/>
        <pt x="112" y="158" on="0"/>
        <pt x="58" y="290" on="0"/>
        <pt x="58" y="360" on="1"/>
        <pt x="58" y="436" on="0"/>
        <pt x="111" y="574" on="0"/>
        <pt x="215" y="678" on="0"/>
        <pt x="370" y="740" on="0"/>
        <pt x="472" y="740" on="1"/>
        <pt x="510" y="740" on="0"/>
        <pt x="581" y="736" on="0"/>
        <pt x="610" y="733" on="1"/>
        <pt x="1006" y="733" on="1"/>
        <pt x="1006" y="683" on="1"/>
        <pt x="648" y="683" on="1"/>
        <pt x="648" y="397" on="1"/>
        <pt x="971" y="397" on="1"/>
        <pt x="971" y="347" on="1"/>
        <pt x="648" y="347" on="1"/>
        <pt x="648" y="51" on="1"/>
        <pt x="1006" y="51" on="1"/>
        <pt x="1006" y="0" on="1"/>
      </contour>
      <contour>
        <pt x="592" y="684" on="1"/>
        <pt x="569" y="688" on="0"/>
        <pt x="507" y="692" on="0"/>
        <pt x="469" y="692" on="1"/>
        <pt x="382" y="692" on="0"/>
        <pt x="250" y="641" on="0"/>
        <pt x="163" y="551" on="0"/>
        <pt x="119" y="430" on="0"/>
        <pt x="119" y="360" on="1"/>
        <pt x="119" y="295" on="0"/>
        <pt x="165" y="179" on="0"/>
        <pt x="255" y="93" on="0"/>
        <pt x="387" y="43" on="0"/>
        <pt x="474" y="43" on="1"/>
        <pt x="507" y="43" on="0"/>
        <pt x="571" y="47" on="0"/>
        <pt x="592" y="50" on="1"/>
      </contour>
    </TTGlyph>
    <TTGlyph name="Oacute" xMin="58" yMin="-10" xMax="784" yMax="949">
      <component glyphName="acute" x="264" y="320" flags="0x4"/>
      <component glyphName="O" x="0" y="0" flags="0x4"/>
    </TTGlyph>
    <TTGlyph name="Obreve" xMin="58" yMin="-10" xMax="784" yMax="930">
      <component glyphName="O" x="0" y="0" flags="0x204"/>
      <component glyphName="breve" x="201" y="320" flags="0x4"/>
    </TTGlyph>
    <TTGlyph name="Ocircumflex" xMin="58" yMin="-10" xMax="784" yMax="956">
      <component glyphName="circumflex" x="199" y="320" flags="0x4"/>
      <component glyphName="O" x="0" y="0" flags="0x4"/>
    </TTGlyph>
    <TTGlyph name="Odieresis" xMin="58" yMin="-10" xMax="784" yMax="906">
      <component glyphName="dieresis" x="200" y="320" flags="0x4"/>
      <component glyphName="O" x="0" y="0" flags="0x4"/>
    </TTGlyph>
    <TTGlyph name="Ograve" xMin="58" yMin="-10" xMax="784" yMax="948">
      <component glyphName="O" x="0" y="0" flags="0x204"/>
      <component glyphName="grave" x="128" y="320" flags="0x4"/>
    </TTGlyph>
    <TTGlyph name="Ohungarumlaut" xMin="58" yMin="-10" xMax="784" yMax="992">
      <component glyphName="hungarumlaut" x="236" y="320" flags="0x4"/>
      <component glyphName="O" x="0" y="0" flags="0x4"/>
    </TTGlyph>
    <TTGlyph name="Omacron" xMin="58" yMin="-10" xMax="784" yMax="880">
      <component glyphName="macron" x="201" y="320" flags="0x4"/>
      <component glyphName="O" x="0" y="0" flags="0x4"/>
    </TTGlyph>
    <TTGlyph name="Oslash" xMin="58" yMin="-10" xMax="784" yMax="744">
      <contour>
        <pt x="784" y="366" on="1"/>
        <pt x="784" y="285" on="0"/>
        <pt x="727" y="147" on="0"/>
        <pt x="628" y="46" on="0"/>
        <pt x="495" y="-10" on="0"/>
        <pt x="419" y="-10" on="1"/>
        <pt x="350" y="-10" on="0"/>
        <pt x="227" y="38" on="0"/>
        <pt x="179" y="81" on="1"/>
        <pt x="172" y="74" on="0"/>
        <pt x="145" y="45" on="0"/>
        <pt x="131" y="31" on="1"/>
        <pt x="114" y="13" on="0"/>
        <pt x="96" y="-6" on="1"/>
        <pt x="62" y="29" on="1"/>
        <pt x="86" y="53" on="0"/>
        <pt x="104" y="72" on="1"/>
        <pt x="112" y="80" on="0"/>
        <pt x="127" y="96" on="0"/>
        <pt x="133" y="102" on="1"/>
        <pt x="146" y="115" on="1"/>
        <pt x="104" y="165" on="0"/>
        <pt x="58" y="292" on="0"/>
        <pt x="58" y="366" on="1"/>
        <pt x="58" y="447" on="0"/>
        <pt x="115" y="586" on="0"/>
        <pt x="214" y="687" on="0"/>
        <pt x="347" y="744" on="0"/>
        <pt x="423" y="744" on="1"/>
        <pt x="493" y="744" on="0"/>
        <pt x="615" y="695" on="0"/>
        <pt x="663" y="651" on="1"/>
        <pt x="747" y="739" on="1"/>
        <pt x="781" y="705" on="1"/>
        <pt x="762" y="685" on="0"/>
        <pt x="745" y="667" on="1"/>
        <pt x="731" y="652" on="0"/>
        <pt x="702" y="623" on="0"/>
        <pt x="696" y="617" on="1"/>
        <pt x="738" y="568" on="0"/>
        <pt x="784" y="441" on="0"/>
      </contour>
      <contour>
        <pt x="625" y="612" on="1"/>
        <pt x="585" y="650" on="0"/>
        <pt x="482" y="693" on="0"/>
        <pt x="421" y="693" on="1"/>
        <pt x="355" y="693" on="0"/>
        <pt x="244" y="643" on="0"/>
        <pt x="164" y="555" on="0"/>
        <pt x="119" y="435" on="0"/>
        <pt x="119" y="366" on="1"/>
        <pt x="119" y="305" on="0"/>
        <pt x="154" y="199" on="0"/>
        <pt x="186" y="157" on="1"/>
      </contour>
      <contour>
        <pt x="723" y="366" on="1"/>
        <pt x="723" y="427" on="0"/>
        <pt x="688" y="534" on="0"/>
        <pt x="656" y="576" on="1"/>
        <pt x="656" y="576" on="0"/>
        <pt x="619" y="537" on="0"/>
        <pt x="557" y="473" on="0"/>
        <pt x="478" y="391" on="0"/>
        <pt x="396" y="306" on="0"/>
        <pt x="317" y="224" on="0"/>
        <pt x="255" y="160" on="0"/>
        <pt x="217" y="120" on="0"/>
        <pt x="217" y="120" on="1"/>
        <pt x="257" y="82" on="0"/>
        <pt x="360" y="40" on="0"/>
        <pt x="421" y="40" on="1"/>
        <pt x="487" y="40" on="0"/>
        <pt x="598" y="90" on="0"/>
        <pt x="678" y="178" on="0"/>
        <pt x="723" y="297" on="0"/>
      </contour>
    </TTGlyph>
    <TTGlyph name="Oslashacute" xMin="58" yMin="-10" xMax="784" yMax="949">
      <component glyphName="Oslash" x="0" y="0" flags="0x204"/>
      <component glyphName="acute" x="264" y="320" flags="0x4"/>
    </TTGlyph>
    <TTGlyph name="Otilde" xMin="58" yMin="-10" xMax="784" yMax="910">
      <component glyphName="O" x="0" y="0" flags="0x204"/>
      <component glyphName="tilde" x="203" y="320" flags="0x4"/>
    </TTGlyph>
    <TTGlyph name="P" xMin="87" yMin="0" xMax="520" yMax="738">
      <contour>
        <pt x="520" y="505" on="1"/>
        <pt x="520" y="450" on="0"/>
        <pt x="481" y="358" on="0"/>
        <pt x="407" y="292" on="0"/>
        <pt x="300" y="255" on="0"/>
        <pt x="233" y="255" on="1"/>
        <pt x="213" y="255" on="0"/>
        <pt x="162" y="259" on="0"/>
        <pt x="143" y="261" on="1"/>
        <pt x="143" y="0" on="1"/>
        <pt x="87" y="0" on="1"/>
        <pt x="87" y="728" on="1"/>
        <pt x="123" y="733" on="0"/>
        <pt x="197" y="738" on="0"/>
        <pt x="238" y="738" on="1"/>
        <pt x="309" y="738" on="0"/>
        <pt x="415" y="700" on="0"/>
        <pt x="485" y="636" on="0"/>
        <pt x="520" y="552" on="0"/>
      </contour>
      <contour>
        <pt x="460" y="502" on="1"/>
        <pt x="460" y="539" on="0"/>
        <pt x="432" y="606" on="0"/>
        <pt x="378" y="657" on="0"/>
        <pt x="297" y="688" on="0"/>
        <pt x="244" y="688" on="1"/>
        <pt x="218" y="688" on="0"/>
        <pt x="166" y="684" on="0"/>
        <pt x="143" y="681" on="1"/>
        <pt x="143" y="311" on="1"/>
        <pt x="163" y="309" on="0"/>
        <pt x="212" y="304" on="0"/>
        <pt x="235" y="304" on="1"/>
        <pt x="290" y="304" on="0"/>
        <pt x="374" y="334" on="0"/>
        <pt x="431" y="386" on="0"/>
        <pt x="460" y="459" on="0"/>
      </contour>
    </TTGlyph>
    <TTGlyph name="Q" xMin="58" yMin="-17" xMax="783" yMax="744">
      <contour>
        <pt x="748" y="-17" on="1"/>
        <pt x="727" y="2" on="0"/>
        <pt x="708" y="20" on="1"/>
        <pt x="691" y="35" on="0"/>
        <pt x="658" y="65" on="0"/>
        <pt x="650" y="73" on="1"/>
        <pt x="602" y="34" on="0"/>
        <pt x="485" y="-10" on="0"/>
        <pt x="419" y="-10" on="1"/>
        <pt x="343" y="-10" on="0"/>
        <pt x="211" y="46" on="0"/>
        <pt x="114" y="147" on="0"/>
        <pt x="58" y="285" on="0"/>
        <pt x="58" y="366" on="1"/>
        <pt x="58" y="447" on="0"/>
        <pt x="115" y="586" on="0"/>
        <pt x="214" y="687" on="0"/>
        <pt x="347" y="744" on="0"/>
        <pt x="422" y="744" on="1"/>
        <pt x="498" y="744" on="0"/>
        <pt x="629" y="687" on="0"/>
        <pt x="727" y="586" on="0"/>
        <pt x="783" y="447" on="0"/>
        <pt x="783" y="366" on="1"/>
        <pt x="783" y="289" on="0"/>
        <pt x="733" y="159" on="0"/>
        <pt x="688" y="109" on="1"/>
        <pt x="696" y="101" on="0"/>
        <pt x="728" y="73" on="0"/>
        <pt x="744" y="59" on="1"/>
        <pt x="762" y="42" on="0"/>
        <pt x="783" y="24" on="1"/>
      </contour>
      <contour>
        <pt x="723" y="366" on="1"/>
        <pt x="723" y="435" on="0"/>
        <pt x="678" y="555" on="0"/>
        <pt x="597" y="643" on="0"/>
        <pt x="487" y="693" on="0"/>
        <pt x="421" y="693" on="1"/>
        <pt x="355" y="693" on="0"/>
        <pt x="244" y="643" on="0"/>
        <pt x="164" y="555" on="0"/>
        <pt x="119" y="435" on="0"/>
        <pt x="119" y="366" on="1"/>
        <pt x="119" y="297" on="0"/>
        <pt x="164" y="178" on="0"/>
        <pt x="244" y="90" on="0"/>
        <pt x="355" y="40" on="0"/>
        <pt x="421" y="40" on="1"/>
        <pt x="477" y="40" on="0"/>
        <pt x="572" y="76" on="0"/>
        <pt x="610" y="108" on="1"/>
        <pt x="534" y="176" on="1"/>
        <pt x="501" y="206" on="0"/>
        <pt x="457" y="245" on="1"/>
        <pt x="492" y="285" on="1"/>
        <pt x="647" y="146" on="1"/>
        <pt x="683" y="189" on="0"/>
        <pt x="723" y="300" on="0"/>
      </contour>
    </TTGlyph>
    <TTGlyph name="R" xMin="87" yMin="0" xMax="565" yMax="738">
      <contour>
        <pt x="497" y="0" on="1"/>
        <pt x="297" y="298" on="1"/>
        <pt x="282" y="296" on="0"/>
        <pt x="250" y="294" on="0"/>
        <pt x="233" y="294" on="1"/>
        <pt x="213" y="294" on="0"/>
        <pt x="162" y="296" on="0"/>
        <pt x="144" y="298" on="1"/>
        <pt x="144" y="0" on="1"/>
        <pt x="87" y="0" on="1"/>
        <pt x="87" y="726" on="1"/>
        <pt x="128" y="731" on="0"/>
        <pt x="201" y="738" on="0"/>
        <pt x="244" y="738" on="1"/>
        <pt x="312" y="738" on="0"/>
        <pt x="416" y="706" on="0"/>
        <pt x="486" y="649" on="0"/>
        <pt x="522" y="569" on="0"/>
        <pt x="522" y="521" on="1"/>
        <pt x="522" y="446" on="0"/>
        <pt x="434" y="334" on="0"/>
        <pt x="352" y="310" on="1"/>
        <pt x="565" y="0" on="1"/>
      </contour>
      <contour>
        <pt x="462" y="518" on="1"/>
        <pt x="462" y="555" on="0"/>
        <pt x="435" y="617" on="0"/>
        <pt x="381" y="662" on="0"/>
        <pt x="302" y="688" on="0"/>
        <pt x="250" y="688" on="1"/>
        <pt x="196" y="688" on="0"/>
        <pt x="144" y="679" on="1"/>
        <pt x="144" y="348" on="1"/>
        <pt x="163" y="346" on="0"/>
        <pt x="213" y="342" on="0"/>
        <pt x="236" y="342" on="1"/>
        <pt x="347" y="342" on="0"/>
        <pt x="462" y="437" on="0"/>
      </contour>
    </TTGlyph>
    <TTGlyph name="Racute" xMin="87" yMin="0" xMax="565" yMax="949">
      <component glyphName="acute" x="124" y="320" flags="0x4"/>
      <component glyphName="R" x="0" y="0" flags="0x4"/>
    </TTGlyph>
    <TTGlyph name="Rcaron" xMin="87" yMin="0" xMax="565" yMax="951">
      <component glyphName="caron" x="62" y="320" flags="0x4"/>
      <component glyphName="R" x="0" y="0" flags="0x4"/>
    </TTGlyph>
    <TTGlyph name="Rcommaaccent" xMin="87" yMin="-255" xMax="565" yMax="738">
      <component glyphName="commaaccent" x="190" y="7" flags="0x4"/>
      <component glyphName="R" x="0" y="0" flags="0x4"/>
    </TTGlyph>
    <TTGlyph name="S" xMin="28" yMin="-12" xMax="464" yMax="745">
      <contour>
        <pt x="464" y="189" on="1"/>
        <pt x="464" y="144" on="0"/>
        <pt x="429" y="70" on="0"/>
        <pt x="368" y="17" on="0"/>
        <pt x="286" y="-12" on="0"/>
        <pt x="240" y="-12" on="1"/>
        <pt x="181" y="-12" on="0"/>
        <pt x="76" y="24" on="0"/>
        <pt x="28" y="56" on="1"/>
        <pt x="55" y="105" on="1"/>
        <pt x="100" y="75" on="0"/>
        <pt x="195" y="39" on="0"/>
        <pt x="245" y="39" on="1"/>
        <pt x="281" y="39" on="0"/>
        <pt x="341" y="61" on="0"/>
        <pt x="384" y="99" on="0"/>
        <pt x="407" y="152" on="0"/>
        <pt x="407" y="182" on="1"/>
        <pt x="407" y="214" on="0"/>
        <pt x="386" y="261" on="0"/>
        <pt x="345" y="300" on="0"/>
        <pt x="285" y="333" on="0"/>
        <pt x="246" y="351" on="1"/>
        <pt x="204" y="370" on="0"/>
        <pt x="136" y="409" on="0"/>
        <pt x="89" y="457" on="0"/>
        <pt x="64" y="516" on="0"/>
        <pt x="64" y="554" on="1"/>
        <pt x="64" y="594" on="0"/>
        <pt x="96" y="663" on="0"/>
        <pt x="154" y="715" on="0"/>
        <pt x="235" y="745" on="0"/>
        <pt x="284" y="745" on="1"/>
        <pt x="332" y="745" on="0"/>
        <pt x="417" y="717" on="0"/>
        <pt x="449" y="695" on="1"/>
        <pt x="422" y="648" on="1"/>
        <pt x="394" y="668" on="0"/>
        <pt x="321" y="694" on="0"/>
        <pt x="279" y="694" on="1"/>
        <pt x="242" y="694" on="0"/>
        <pt x="183" y="673" on="0"/>
        <pt x="142" y="636" on="0"/>
        <pt x="120" y="586" on="0"/>
        <pt x="120" y="558" on="1"/>
        <pt x="120" y="528" on="0"/>
        <pt x="142" y="483" on="0"/>
        <pt x="182" y="446" on="0"/>
        <pt x="238" y="415" on="0"/>
        <pt x="271" y="400" on="1"/>
        <pt x="318" y="379" on="0"/>
        <pt x="390" y="337" on="0"/>
        <pt x="439" y="288" on="0"/>
        <pt x="464" y="228" on="0"/>
      </contour>
    </TTGlyph>
    <TTGlyph name="Sacute" xMin="28" yMin="-12" xMax="464" yMax="949">
      <component glyphName="acute" x="110" y="320" flags="0x4"/>
      <component glyphName="S" x="0" y="0" flags="0x4"/>
    </TTGlyph>
    <TTGlyph name="Scaron" xMin="28" yMin="-12" xMax="464" yMax="951">
      <component glyphName="caron" x="47" y="320" flags="0x4"/>
      <component glyphName="S" x="0" y="0" flags="0x4"/>
    </TTGlyph>
    <TTGlyph name="Scedilla" xMin="28" yMin="-237" xMax="464" yMax="745">
      <contour>
        <pt x="341" y="-150" on="1"/>
        <pt x="341" y="-185" on="0"/>
        <pt x="290" y="-237" on="0"/>
        <pt x="239" y="-237" on="1"/>
        <pt x="213" y="-237" on="0"/>
        <pt x="162" y="-220" on="0"/>
        <pt x="133" y="-204" on="1"/>
        <pt x="151" y="-168" on="1"/>
        <pt x="177" y="-182" on="0"/>
        <pt x="219" y="-197" on="0"/>
        <pt x="239" y="-197" on="1"/>
        <pt x="266" y="-197" on="0"/>
        <pt x="294" y="-172" on="0"/>
        <pt x="294" y="-152" on="1"/>
        <pt x="294" y="-129" on="0"/>
        <pt x="249" y="-94" on="0"/>
        <pt x="193" y="-89" on="1"/>
        <pt x="190" y="-83" on="1"/>
        <pt x="209" y="-11" on="1"/>
        <pt x="159" y="-6" on="0"/>
        <pt x="70" y="28" on="0"/>
        <pt x="28" y="56" on="1"/>
        <pt x="55" y="105" on="1"/>
        <pt x="100" y="75" on="0"/>
        <pt x="195" y="39" on="0"/>
        <pt x="245" y="39" on="1"/>
        <pt x="281" y="39" on="0"/>
        <pt x="341" y="61" on="0"/>
        <pt x="384" y="99" on="0"/>
        <pt x="407" y="152" on="0"/>
        <pt x="407" y="182" on="1"/>
        <pt x="407" y="214" on="0"/>
        <pt x="386" y="261" on="0"/>
        <pt x="345" y="300" on="0"/>
        <pt x="285" y="333" on="0"/>
        <pt x="246" y="351" on="1"/>
        <pt x="204" y="370" on="0"/>
        <pt x="136" y="409" on="0"/>
        <pt x="89" y="457" on="0"/>
        <pt x="64" y="516" on="0"/>
        <pt x="64" y="554" on="1"/>
        <pt x="64" y="594" on="0"/>
        <pt x="96" y="663" on="0"/>
        <pt x="154" y="715" on="0"/>
        <pt x="235" y="745" on="0"/>
        <pt x="284" y="745" on="1"/>
        <pt x="332" y="745" on="0"/>
        <pt x="417" y="717" on="0"/>
        <pt x="449" y="695" on="1"/>
        <pt x="422" y="648" on="1"/>
        <pt x="394" y="668" on="0"/>
        <pt x="321" y="694" on="0"/>
        <pt x="279" y="694" on="1"/>
        <pt x="242" y="694" on="0"/>
        <pt x="183" y="673" on="0"/>
        <pt x="142" y="636" on="0"/>
        <pt x="120" y="586" on="0"/>
        <pt x="120" y="558" on="1"/>
        <pt x="120" y="528" on="0"/>
        <pt x="142" y="483" on="0"/>
        <pt x="182" y="446" on="0"/>
        <pt x="238" y="415" on="0"/>
        <pt x="271" y="400" on="1"/>
        <pt x="318" y="379" on="0"/>
        <pt x="390" y="337" on="0"/>
        <pt x="439" y="288" on="0"/>
        <pt x="464" y="228" on="0"/>
        <pt x="464" y="189" on="1"/>
        <pt x="464" y="145" on="0"/>
        <pt x="430" y="72" on="0"/>
        <pt x="372" y="19" on="0"/>
        <pt x="293" y="-11" on="0"/>
        <pt x="248" y="-12" on="1"/>
        <pt x="237" y="-55" on="1"/>
        <pt x="292" y="-66" on="0"/>
        <pt x="341" y="-118" on="0"/>
      </contour>
    </TTGlyph>
    <TTGlyph name="Scommaaccent" xMin="28" yMin="-262" xMax="464" yMax="745">
      <component glyphName="commaaccent" x="157" y="0" flags="0x4"/>
      <component glyphName="S" x="0" y="0" flags="0x4"/>
    </TTGlyph>
    <TTGlyph name="T" xMin="30" yMin="0" xMax="584" yMax="733">
      <contour>
        <pt x="336" y="683" on="1"/>
        <pt x="336" y="0" on="1"/>
        <pt x="279" y="0" on="1"/>
        <pt x="279" y="683" on="1"/>
        <pt x="30" y="683" on="1"/>
        <pt x="30" y="733" on="1"/>
        <pt x="584" y="733" on="1"/>
        <pt x="584" y="683" on="1"/>
      </contour>
    </TTGlyph>
    <TTGlyph name="Tcaron" xMin="30" yMin="0" xMax="584" yMax="951">
      <component glyphName="caron" x="87" y="320" flags="0x4"/>
      <component glyphName="T" x="0" y="0" flags="0x4"/>
    </TTGlyph>
    <TTGlyph name="Tcommaaccent" xMin="30" yMin="-262" xMax="584" yMax="733">
      <component glyphName="commaaccent" x="212" y="0" flags="0x4"/>
      <component glyphName="T" x="0" y="0" flags="0x4"/>
    </TTGlyph>
    <TTGlyph name="Thorn" xMin="87" yMin="0" xMax="520" yMax="733">
      <contour>
        <pt x="520" y="376" on="1"/>
        <pt x="520" y="321" on="0"/>
        <pt x="481" y="229" on="0"/>
        <pt x="407" y="162" on="0"/>
        <pt x="300" y="125" on="0"/>
        <pt x="233" y="125" on="1"/>
        <pt x="213" y="125" on="0"/>
        <pt x="162" y="129" on="0"/>
        <pt x="143" y="131" on="1"/>
        <pt x="143" y="0" on="1"/>
        <pt x="87" y="0" on="1"/>
        <pt x="87" y="733" on="1"/>
        <pt x="143" y="733" on="1"/>
        <pt x="143" y="606" on="1"/>
        <pt x="166" y="608" on="0"/>
        <pt x="213" y="610" on="0"/>
        <pt x="238" y="610" on="1"/>
        <pt x="309" y="610" on="0"/>
        <pt x="415" y="572" on="0"/>
        <pt x="485" y="508" on="0"/>
        <pt x="520" y="423" on="0"/>
      </contour>
      <contour>
        <pt x="460" y="373" on="1"/>
        <pt x="460" y="410" on="0"/>
        <pt x="432" y="477" on="0"/>
        <pt x="378" y="528" on="0"/>
        <pt x="297" y="559" on="0"/>
        <pt x="244" y="559" on="1"/>
        <pt x="218" y="559" on="0"/>
        <pt x="166" y="555" on="0"/>
        <pt x="143" y="552" on="1"/>
        <pt x="143" y="182" on="1"/>
        <pt x="163" y="180" on="0"/>
        <pt x="212" y="175" on="0"/>
        <pt x="235" y="175" on="1"/>
        <pt x="290" y="175" on="0"/>
        <pt x="374" y="205" on="0"/>
        <pt x="431" y="257" on="0"/>
        <pt x="460" y="330" on="0"/>
      </contour>
    </TTGlyph>
    <TTGlyph name="U" xMin="81" yMin="-10" xMax="628" yMax="733">
      <contour>
        <pt x="628" y="266" on="1"/>
        <pt x="628" y="201" on="0"/>
        <pt x="589" y="99" on="0"/>
        <pt x="517" y="28" on="0"/>
        <pt x="415" y="-10" on="0"/>
        <pt x="353" y="-10" on="1"/>
        <pt x="225" y="-10" on="0"/>
        <pt x="81" y="132" on="0"/>
        <pt x="81" y="266" on="1"/>
        <pt x="81" y="733" on="1"/>
        <pt x="137" y="733" on="1"/>
        <pt x="137" y="267" on="1"/>
        <pt x="137" y="211" on="0"/>
        <pt x="168" y="126" on="0"/>
        <pt x="224" y="69" on="0"/>
        <pt x="304" y="41" on="0"/>
        <pt x="353" y="41" on="1"/>
        <pt x="402" y="41" on="0"/>
        <pt x="483" y="70" on="0"/>
        <pt x="540" y="127" on="0"/>
        <pt x="571" y="211" on="0"/>
        <pt x="571" y="267" on="1"/>
        <pt x="571" y="733" on="1"/>
        <pt x="628" y="733" on="1"/>
      </contour>
    </TTGlyph>
    <TTGlyph name="Uacute" xMin="81" yMin="-10" xMax="628" yMax="936">
      <component glyphName="acute" x="198" y="307" flags="0x4"/>
      <component glyphName="U" x="0" y="0" flags="0x4"/>
    </TTGlyph>
    <TTGlyph name="Ubreve" xMin="81" yMin="-10" xMax="628" yMax="917">
      <component glyphName="U" x="0" y="0" flags="0x204"/>
      <component glyphName="breve" x="135" y="307" flags="0x4"/>
    </TTGlyph>
    <TTGlyph name="Ucircumflex" xMin="81" yMin="-10" xMax="628" yMax="943">
      <component glyphName="circumflex" x="133" y="307" flags="0x4"/>
      <component glyphName="U" x="0" y="0" flags="0x4"/>
    </TTGlyph>
    <TTGlyph name="Udieresis" xMin="81" yMin="-10" xMax="628" yMax="893">
      <component glyphName="dieresis" x="134" y="307" flags="0x4"/>
      <component glyphName="U" x="0" y="0" flags="0x4"/>
    </TTGlyph>
    <TTGlyph name="Ugrave" xMin="81" yMin="-10" xMax="628" yMax="935">
      <component glyphName="U" x="0" y="0" flags="0x204"/>
      <component glyphName="grave" x="62" y="307" flags="0x4"/>
    </TTGlyph>
    <TTGlyph name="Uhungarumlaut" xMin="81" yMin="-10" xMax="628" yMax="979">
      <component glyphName="U" x="0" y="0" flags="0x204"/>
      <component glyphName="hungarumlaut" x="170" y="307" flags="0x4"/>
    </TTGlyph>
    <TTGlyph name="Umacron" xMin="81" yMin="-10" xMax="628" yMax="867">
      <component glyphName="U" x="0" y="0" flags="0x204"/>
      <component glyphName="macron" x="135" y="307" flags="0x4"/>
    </TTGlyph>
    <TTGlyph name="Uogonek" xMin="81" yMin="-220" xMax="628" yMax="733">
      <contour>
        <pt x="628" y="266" on="1"/>
        <pt x="628" y="206" on="0"/>
        <pt x="594" y="109" on="0"/>
        <pt x="531" y="39" on="0"/>
        <pt x="442" y="-3" on="0"/>
        <pt x="387" y="-8" on="1"/>
        <pt x="354" y="-46" on="0"/>
        <pt x="314" y="-109" on="0"/>
        <pt x="314" y="-137" on="1"/>
        <pt x="314" y="-157" on="0"/>
        <pt x="335" y="-180" on="0"/>
        <pt x="352" y="-180" on="1"/>
        <pt x="369" y="-180" on="0"/>
        <pt x="395" y="-163" on="0"/>
        <pt x="408" y="-146" on="1"/>
        <pt x="432" y="-169" on="1"/>
        <pt x="415" y="-192" on="0"/>
        <pt x="374" y="-219" on="0"/>
        <pt x="345" y="-219" on="1"/>
        <pt x="310" y="-220" on="0"/>
        <pt x="267" y="-178" on="0"/>
        <pt x="267" y="-143" on="1"/>
        <pt x="268" y="-111" on="0"/>
        <pt x="302" y="-50" on="0"/>
        <pt x="340" y="-10" on="1"/>
        <pt x="218" y="-6" on="0"/>
        <pt x="81" y="135" on="0"/>
        <pt x="81" y="266" on="1"/>
        <pt x="81" y="733" on="1"/>
        <pt x="137" y="733" on="1"/>
        <pt x="137" y="267" on="1"/>
        <pt x="137" y="211" on="0"/>
        <pt x="168" y="126" on="0"/>
        <pt x="224" y="69" on="0"/>
        <pt x="304" y="41" on="0"/>
        <pt x="353" y="41" on="1"/>
        <pt x="402" y="41" on="0"/>
        <pt x="483" y="70" on="0"/>
        <pt x="540" y="127" on="0"/>
        <pt x="571" y="211" on="0"/>
        <pt x="571" y="267" on="1"/>
        <pt x="571" y="733" on="1"/>
        <pt x="628" y="733" on="1"/>
      </contour>
    </TTGlyph>
    <TTGlyph name="Uring" xMin="81" yMin="-10" xMax="628" yMax="994">
      <component glyphName="ring" x="134" y="307" flags="0x4"/>
      <component glyphName="U" x="0" y="0" flags="0x4"/>
    </TTGlyph>
    <TTGlyph name="V" xMin="19" yMin="-12" xMax="668" yMax="733">
      <contour>
        <pt x="349" y="-12" on="1"/>
        <pt x="338" y="-12" on="1"/>
        <pt x="19" y="733" on="1"/>
        <pt x="81" y="733" on="1"/>
        <pt x="345" y="105" on="1"/>
        <pt x="607" y="733" on="1"/>
        <pt x="668" y="733" on="1"/>
      </contour>
    </TTGlyph>
    <TTGlyph name="W" xMin="34" yMin="-12" xMax="918" yMax="737">
      <contour>
        <pt x="726" y="-10" on="1"/>
        <pt x="712" y="-12" on="1"/>
        <pt x="475" y="615" on="1"/>
        <pt x="240" y="-12" on="1"/>
        <pt x="226" y="-10" on="1"/>
        <pt x="34" y="733" on="1"/>
        <pt x="90" y="733" on="1"/>
        <pt x="244" y="132" on="1"/>
        <pt x="471" y="737" on="1"/>
        <pt x="481" y="737" on="1"/>
        <pt x="710" y="134" on="1"/>
        <pt x="863" y="733" on="1"/>
        <pt x="918" y="733" on="1"/>
      </contour>
    </TTGlyph>
    <TTGlyph name="Wacute" xMin="34" yMin="-12" xMax="918" yMax="949">
      <component glyphName="acute" x="319" y="320" flags="0x4"/>
      <component glyphName="W" x="0" y="0" flags="0x4"/>
    </TTGlyph>
    <TTGlyph name="Wcircumflex" xMin="34" yMin="-12" xMax="918" yMax="956">
      <component glyphName="circumflex" x="254" y="320" flags="0x4"/>
      <component glyphName="W" x="0" y="0" flags="0x4"/>
    </TTGlyph>
    <TTGlyph name="Wdieresis" xMin="34" yMin="-12" xMax="918" yMax="906">
      <component glyphName="dieresis" x="256" y="320" flags="0x4"/>
      <component glyphName="W" x="0" y="0" flags="0x4"/>
    </TTGlyph>
    <TTGlyph name="Wgrave" xMin="34" yMin="-12" xMax="918" yMax="948">
      <component glyphName="W" x="0" y="0" flags="0x204"/>
      <component glyphName="grave" x="184" y="320" flags="0x4"/>
    </TTGlyph>
    <TTGlyph name="X" xMin="37" yMin="0" xMax="640" yMax="733">
      <contour>
        <pt x="573" y="0" on="1"/>
        <pt x="338" y="329" on="1"/>
        <pt x="103" y="0" on="1"/>
        <pt x="37" y="0" on="1"/>
        <pt x="308" y="369" on="1"/>
        <pt x="41" y="733" on="1"/>
        <pt x="109" y="733" on="1"/>
        <pt x="339" y="410" on="1"/>
        <pt x="570" y="733" on="1"/>
        <pt x="636" y="733" on="1"/>
        <pt x="370" y="370" on="1"/>
        <pt x="640" y="0" on="1"/>
      </contour>
    </TTGlyph>
    <TTGlyph name="Y" xMin="29" yMin="0" xMax="597" yMax="733">
      <contour>
        <pt x="341" y="329" on="1"/>
        <pt x="341" y="0" on="1"/>
        <pt x="285" y="0" on="1"/>
        <pt x="285" y="330" on="1"/>
        <pt x="29" y="733" on="1"/>
        <pt x="92" y="733" on="1"/>
        <pt x="315" y="377" on="1"/>
        <pt x="535" y="733" on="1"/>
        <pt x="597" y="733" on="1"/>
      </contour>
    </TTGlyph>
    <TTGlyph name="Yacute" xMin="29" yMin="0" xMax="597" yMax="936">
      <component glyphName="Y" x="0" y="0" flags="0x204"/>
      <component glyphName="acute" x="156" y="307" flags="0x4"/>
    </TTGlyph>
    <TTGlyph name="Ycircumflex" xMin="29" yMin="0" xMax="597" yMax="943">
      <component glyphName="Y" x="0" y="0" flags="0x204"/>
      <component glyphName="circumflex" x="91" y="307" flags="0x4"/>
    </TTGlyph>
    <TTGlyph name="Ydieresis" xMin="29" yMin="0" xMax="597" yMax="893">
      <component glyphName="Y" x="0" y="0" flags="0x204"/>
      <component glyphName="dieresis" x="92" y="307" flags="0x4"/>
    </TTGlyph>
    <TTGlyph name="Ygrave" xMin="29" yMin="0" xMax="597" yMax="935">
      <component glyphName="Y" x="0" y="0" flags="0x204"/>
      <component glyphName="grave" x="20" y="307" flags="0x4"/>
    </TTGlyph>
    <TTGlyph name="Z" xMin="46" yMin="0" xMax="580" yMax="733">
      <contour>
        <pt x="134" y="51" on="1"/>
        <pt x="575" y="51" on="1"/>
        <pt x="575" y="0" on="1"/>
        <pt x="50" y="0" on="1"/>
        <pt x="46" y="10" on="1"/>
        <pt x="491" y="683" on="1"/>
        <pt x="71" y="683" on="1"/>
        <pt x="71" y="733" on="1"/>
        <pt x="575" y="733" on="1"/>
        <pt x="580" y="723" on="1"/>
      </contour>
    </TTGlyph>
    <TTGlyph name="Zacute" xMin="46" yMin="0" xMax="580" yMax="949">
      <component glyphName="acute" x="158" y="320" flags="0x4"/>
      <component glyphName="Z" x="0" y="0" flags="0x4"/>
    </TTGlyph>
    <TTGlyph name="Zcaron" xMin="46" yMin="0" xMax="580" yMax="951">
      <component glyphName="caron" x="95" y="320" flags="0x4"/>
      <component glyphName="Z" x="0" y="0" flags="0x4"/>
    </TTGlyph>
    <TTGlyph name="Zdotaccent" xMin="46" yMin="0" xMax="580" yMax="906">
      <component glyphName="Z" x="0" y="0" flags="0x204"/>
      <component glyphName="dotaccent" x="94" y="320" flags="0x4"/>
    </TTGlyph>
    <TTGlyph name="a" xMin="38" yMin="-8" xMax="376" yMax="426">
      <contour>
        <pt x="324" y="0" on="1"/>
        <pt x="324" y="45" on="1"/>
        <pt x="301" y="22" on="0"/>
        <pt x="232" y="-8" on="0"/>
        <pt x="192" y="-8" on="1"/>
        <pt x="160" y="-8" on="0"/>
        <pt x="104" y="9" on="0"/>
        <pt x="62" y="43" on="0"/>
        <pt x="38" y="91" on="0"/>
        <pt x="38" y="123" on="1"/>
        <pt x="38" y="153" on="0"/>
        <pt x="62" y="201" on="0"/>
        <pt x="104" y="235" on="0"/>
        <pt x="161" y="254" on="0"/>
        <pt x="194" y="254" on="1"/>
        <pt x="235" y="254" on="0"/>
        <pt x="294" y="235" on="0"/>
        <pt x="321" y="222" on="1"/>
        <pt x="321" y="260" on="1"/>
        <pt x="321" y="320" on="0"/>
        <pt x="266" y="377" on="0"/>
        <pt x="200" y="377" on="1"/>
        <pt x="174" y="377" on="0"/>
        <pt x="115" y="365" on="0"/>
        <pt x="91" y="354" on="1"/>
        <pt x="80" y="402" on="1"/>
        <pt x="109" y="413" on="0"/>
        <pt x="177" y="426" on="0"/>
        <pt x="206" y="426" on="1"/>
        <pt x="294" y="426" on="0"/>
        <pt x="376" y="343" on="0"/>
        <pt x="376" y="260" on="1"/>
        <pt x="376" y="0" on="1"/>
      </contour>
      <contour>
        <pt x="321" y="175" on="1"/>
        <pt x="290" y="192" on="0"/>
        <pt x="236" y="210" on="0"/>
        <pt x="201" y="210" on="1"/>
        <pt x="153" y="210" on="0"/>
        <pt x="91" y="166" on="0"/>
        <pt x="91" y="123" on="1"/>
        <pt x="91" y="81" on="0"/>
        <pt x="152" y="38" on="0"/>
        <pt x="203" y="38" on="1"/>
        <pt x="241" y="38" on="0"/>
        <pt x="301" y="69" on="0"/>
        <pt x="321" y="93" on="1"/>
      </contour>
    </TTGlyph>
    <TTGlyph name="aacute" xMin="38" yMin="-8" xMax="385" yMax="629">
      <component glyphName="a" x="0" y="0" flags="0x204"/>
      <component glyphName="acute" x="63" y="0" flags="0x4"/>
    </TTGlyph>
    <TTGlyph name="abreve" xMin="38" yMin="-8" xMax="376" yMax="610">
      <component glyphName="a" x="0" y="0" flags="0x204"/>
      <component glyphName="breve" x="0" y="0" flags="0x4"/>
    </TTGlyph>
    <TTGlyph name="acircumflex" xMin="38" yMin="-8" xMax="376" yMax="636">
      <component glyphName="a" x="0" y="0" flags="0x204"/>
      <component glyphName="circumflex" x="-1" y="0" flags="0x4"/>
    </TTGlyph>
    <TTGlyph name="acute" xMin="112" yMin="475" xMax="322" yMax="629">
      <contour>
        <pt x="130" y="475" on="1"/>
        <pt x="112" y="506" on="1"/>
        <pt x="293" y="629" on="1"/>
        <pt x="322" y="574" on="1"/>
      </contour>
    </TTGlyph>
    <TTGlyph name="adieresis" xMin="38" yMin="-8" xMax="376" yMax="586">
      <component glyphName="a" x="0" y="0" flags="0x204"/>
      <component glyphName="dieresis" x="0" y="0" flags="0x4"/>
    </TTGlyph>
    <TTGlyph name="ae" xMin="38" yMin="-8" xMax="699" yMax="426">
      <contour>
        <pt x="321" y="260" on="1"/>
        <pt x="321" y="320" on="0"/>
        <pt x="266" y="377" on="0"/>
        <pt x="200" y="377" on="1"/>
        <pt x="174" y="377" on="0"/>
        <pt x="115" y="365" on="0"/>
        <pt x="91" y="354" on="1"/>
        <pt x="80" y="402" on="1"/>
        <pt x="109" y="413" on="0"/>
        <pt x="178" y="426" on="0"/>
        <pt x="207" y="426" on="1"/>
        <pt x="271" y="426" on="0"/>
        <pt x="344" y="381" on="0"/>
        <pt x="358" y="336" on="1"/>
        <pt x="382" y="377" on="0"/>
        <pt x="464" y="426" on="0"/>
        <pt x="519" y="426" on="1"/>
        <pt x="563" y="426" on="0"/>
        <pt x="630" y="396" on="0"/>
        <pt x="676" y="342" on="0"/>
        <pt x="699" y="269" on="0"/>
        <pt x="699" y="226" on="1"/>
        <pt x="699" y="219" on="0"/>
        <pt x="699" y="205" on="0"/>
        <pt x="698" y="197" on="1"/>
        <pt x="375" y="197" on="1"/>
        <pt x="377" y="164" on="0"/>
        <pt x="398" y="107" on="0"/>
        <pt x="440" y="65" on="0"/>
        <pt x="503" y="41" on="0"/>
        <pt x="546" y="41" on="1"/>
        <pt x="575" y="41" on="0"/>
        <pt x="636" y="55" on="0"/>
        <pt x="664" y="66" on="1"/>
        <pt x="670" y="42" on="1"/>
        <pt x="672" y="33" on="0"/>
        <pt x="676" y="18" on="0"/>
        <pt x="676" y="19" on="1"/>
        <pt x="644" y="7" on="0"/>
        <pt x="574" y="-8" on="0"/>
        <pt x="543" y="-8" on="1"/>
        <pt x="470" y="-8" on="0"/>
        <pt x="375" y="49" on="0"/>
        <pt x="352" y="96" on="1"/>
        <pt x="328" y="45" on="0"/>
        <pt x="237" y="-8" on="0"/>
        <pt x="183" y="-8" on="1"/>
        <pt x="154" y="-8" on="0"/>
        <pt x="101" y="10" on="0"/>
        <pt x="61" y="43" on="0"/>
        <pt x="38" y="92" on="0"/>
        <pt x="38" y="123" on="1"/>
        <pt x="38" y="152" on="0"/>
        <pt x="62" y="200" on="0"/>
        <pt x="104" y="235" on="0"/>
        <pt x="161" y="254" on="0"/>
        <pt x="193" y="254" on="1"/>
        <pt x="234" y="254" on="0"/>
        <pt x="295" y="235" on="0"/>
        <pt x="321" y="222" on="1"/>
      </contour>
      <contour>
        <pt x="647" y="241" on="1"/>
        <pt x="645" y="270" on="0"/>
        <pt x="628" y="320" on="0"/>
        <pt x="595" y="357" on="0"/>
        <pt x="547" y="378" on="0"/>
        <pt x="515" y="378" on="1"/>
        <pt x="455" y="378" on="0"/>
        <pt x="384" y="303" on="0"/>
        <pt x="377" y="241" on="1"/>
      </contour>
      <contour>
        <pt x="325" y="168" on="1"/>
        <pt x="300" y="187" on="0"/>
        <pt x="236" y="210" on="0"/>
        <pt x="201" y="210" on="1"/>
        <pt x="153" y="210" on="0"/>
        <pt x="91" y="166" on="0"/>
        <pt x="91" y="123" on="1"/>
        <pt x="91" y="81" on="0"/>
        <pt x="147" y="38" on="0"/>
        <pt x="194" y="38" on="1"/>
        <pt x="215" y="38" on="0"/>
        <pt x="258" y="52" on="0"/>
        <pt x="294" y="83" on="0"/>
        <pt x="320" y="132" on="0"/>
      </contour>
    </TTGlyph>
    <TTGlyph name="aeacute" xMin="38" yMin="-8" xMax="699" yMax="629">
      <component glyphName="acute" x="212" y="0" flags="0x4"/>
      <component glyphName="ae" x="0" y="0" flags="0x4"/>
    </TTGlyph>
    <TTGlyph name="agrave" xMin="38" yMin="-8" xMax="376" yMax="628">
      <component glyphName="a" x="0" y="0" flags="0x204"/>
      <component glyphName="grave" x="-71" y="0" flags="0x4"/>
    </TTGlyph>
    <TTGlyph name="amacron" xMin="38" yMin="-8" xMax="376" yMax="560">
      <component glyphName="a" x="0" y="0" flags="0x204"/>
      <component glyphName="macron" x="0" y="0" flags="0x4"/>
    </TTGlyph>
    <TTGlyph name="ampersand" xMin="50" yMin="-15" xMax="558" yMax="585">
      <contour>
        <pt x="558" y="252" on="1"/>
        <pt x="533" y="219" on="0"/>
        <pt x="477" y="146" on="0"/>
        <pt x="446" y="113" on="1"/>
        <pt x="472" y="90" on="0"/>
        <pt x="524" y="44" on="0"/>
        <pt x="550" y="23" on="1"/>
        <pt x="517" y="-15" on="1"/>
        <pt x="492" y="5" on="0"/>
        <pt x="438" y="52" on="0"/>
        <pt x="410" y="78" on="1"/>
        <pt x="368" y="40" on="0"/>
        <pt x="277" y="-8" on="0"/>
        <pt x="225" y="-8" on="1"/>
        <pt x="187" y="-8" on="0"/>
        <pt x="123" y="13" on="0"/>
        <pt x="76" y="54" on="0"/>
        <pt x="50" y="112" on="0"/>
        <pt x="50" y="148" on="1"/>
        <pt x="50" y="208" on="0"/>
        <pt x="125" y="288" on="0"/>
        <pt x="190" y="316" on="1"/>
        <pt x="170" y="348" on="0"/>
        <pt x="145" y="410" on="0"/>
        <pt x="145" y="439" on="1"/>
        <pt x="145" y="470" on="0"/>
        <pt x="169" y="524" on="0"/>
        <pt x="209" y="563" on="0"/>
        <pt x="260" y="585" on="0"/>
        <pt x="287" y="585" on="1"/>
        <pt x="319" y="585" on="0"/>
        <pt x="368" y="563" on="0"/>
        <pt x="401" y="529" on="0"/>
        <pt x="418" y="486" on="0"/>
        <pt x="418" y="464" on="1"/>
        <pt x="418" y="413" on="0"/>
        <pt x="346" y="329" on="0"/>
        <pt x="267" y="297" on="1"/>
        <pt x="292" y="264" on="0"/>
        <pt x="367" y="185" on="0"/>
        <pt x="411" y="145" on="1"/>
        <pt x="442" y="177" on="0"/>
        <pt x="496" y="248" on="0"/>
        <pt x="519" y="280" on="1"/>
      </contour>
      <contour>
        <pt x="367" y="460" on="1"/>
        <pt x="367" y="492" on="0"/>
        <pt x="324" y="541" on="0"/>
        <pt x="286" y="541" on="1"/>
        <pt x="269" y="541" on="0"/>
        <pt x="237" y="526" on="0"/>
        <pt x="213" y="499" on="0"/>
        <pt x="198" y="462" on="0"/>
        <pt x="198" y="441" on="1"/>
        <pt x="198" y="416" on="0"/>
        <pt x="221" y="361" on="0"/>
        <pt x="240" y="332" on="1"/>
        <pt x="313" y="361" on="0"/>
        <pt x="367" y="423" on="0"/>
      </contour>
      <contour>
        <pt x="375" y="109" on="1"/>
        <pt x="328" y="154" on="0"/>
        <pt x="244" y="241" on="0"/>
        <pt x="215" y="279" on="1"/>
        <pt x="164" y="259" on="0"/>
        <pt x="105" y="193" on="0"/>
        <pt x="105" y="147" on="1"/>
        <pt x="105" y="99" on="0"/>
        <pt x="173" y="39" on="0"/>
        <pt x="227" y="39" on="1"/>
        <pt x="267" y="39" on="0"/>
        <pt x="340" y="78" on="0"/>
      </contour>
    </TTGlyph>
    <TTGlyph name="ampersand.cap" xMin="59" yMin="-18" xMax="699" yMax="743">
      <contour>
        <pt x="282" y="413" on="1"/>
        <pt x="370" y="444" on="0"/>
        <pt x="461" y="526" on="0"/>
        <pt x="461" y="586" on="1"/>
        <pt x="461" y="608" on="0"/>
        <pt x="446" y="647" on="0"/>
        <pt x="418" y="677" on="0"/>
        <pt x="377" y="695" on="0"/>
        <pt x="351" y="695" on="1"/>
        <pt x="326" y="695" on="0"/>
        <pt x="282" y="675" on="0"/>
        <pt x="250" y="639" on="0"/>
        <pt x="232" y="591" on="0"/>
        <pt x="232" y="563" on="1"/>
        <pt x="232" y="492" on="0"/>
      </contour>
      <contour>
        <pt x="471" y="131" on="1"/>
        <pt x="409" y="186" on="0"/>
        <pt x="298" y="299" on="0"/>
        <pt x="257" y="357" on="1"/>
        <pt x="195" y="331" on="0"/>
        <pt x="117" y="248" on="0"/>
        <pt x="117" y="187" on="1"/>
        <pt x="117" y="156" on="0"/>
        <pt x="141" y="102" on="0"/>
        <pt x="184" y="63" on="0"/>
        <pt x="245" y="40" on="0"/>
        <pt x="282" y="40" on="1"/>
        <pt x="330" y="40" on="0"/>
        <pt x="426" y="90" on="0"/>
      </contour>
      <contour>
        <pt x="310" y="373" on="1"/>
        <pt x="346" y="322" on="0"/>
        <pt x="449" y="219" on="0"/>
        <pt x="508" y="167" on="1"/>
        <pt x="550" y="210" on="0"/>
        <pt x="625" y="306" on="0"/>
        <pt x="657" y="351" on="1"/>
        <pt x="699" y="322" on="1"/>
        <pt x="666" y="277" on="0"/>
        <pt x="589" y="179" on="0"/>
        <pt x="546" y="134" on="1"/>
        <pt x="618" y="72" on="0"/>
        <pt x="683" y="21" on="1"/>
        <pt x="649" y="-18" on="1"/>
        <pt x="617" y="9" on="0"/>
        <pt x="546" y="67" on="0"/>
        <pt x="509" y="99" on="1"/>
        <pt x="457" y="51" on="0"/>
        <pt x="344" y="-10" on="0"/>
        <pt x="281" y="-10" on="1"/>
        <pt x="234" y="-10" on="0"/>
        <pt x="153" y="18" on="0"/>
        <pt x="93" y="70" on="0"/>
        <pt x="59" y="142" on="0"/>
        <pt x="59" y="187" on="1"/>
        <pt x="59" y="263" on="0"/>
        <pt x="155" y="366" on="0"/>
        <pt x="230" y="396" on="1"/>
        <pt x="205" y="438" on="0"/>
        <pt x="177" y="519" on="0"/>
        <pt x="177" y="560" on="1"/>
        <pt x="177" y="600" on="0"/>
        <pt x="206" y="667" on="0"/>
        <pt x="255" y="716" on="0"/>
        <pt x="318" y="743" on="0"/>
        <pt x="352" y="743" on="1"/>
        <pt x="392" y="743" on="0"/>
        <pt x="453" y="716" on="0"/>
        <pt x="495" y="672" on="0"/>
        <pt x="516" y="616" on="0"/>
        <pt x="516" y="588" on="1"/>
        <pt x="516" y="512" on="0"/>
        <pt x="407" y="411" on="0"/>
      </contour>
    </TTGlyph>
    <TTGlyph name="aogonek" xMin="38" yMin="-220" xMax="402" yMax="426">
      <contour>
        <pt x="402" y="-169" on="1"/>
        <pt x="385" y="-192" on="0"/>
        <pt x="344" y="-219" on="0"/>
        <pt x="315" y="-219" on="1"/>
        <pt x="280" y="-220" on="0"/>
        <pt x="237" y="-178" on="0"/>
        <pt x="237" y="-143" on="1"/>
        <pt x="238" y="-109" on="0"/>
        <pt x="279" y="-42" on="0"/>
        <pt x="324" y="4" on="1"/>
        <pt x="324" y="45" on="1"/>
        <pt x="301" y="22" on="0"/>
        <pt x="232" y="-8" on="0"/>
        <pt x="192" y="-8" on="1"/>
        <pt x="160" y="-8" on="0"/>
        <pt x="104" y="9" on="0"/>
        <pt x="62" y="43" on="0"/>
        <pt x="38" y="91" on="0"/>
        <pt x="38" y="123" on="1"/>
        <pt x="38" y="153" on="0"/>
        <pt x="62" y="201" on="0"/>
        <pt x="104" y="235" on="0"/>
        <pt x="161" y="254" on="0"/>
        <pt x="194" y="254" on="1"/>
        <pt x="235" y="254" on="0"/>
        <pt x="294" y="235" on="0"/>
        <pt x="321" y="222" on="1"/>
        <pt x="321" y="260" on="1"/>
        <pt x="321" y="320" on="0"/>
        <pt x="266" y="377" on="0"/>
        <pt x="200" y="377" on="1"/>
        <pt x="174" y="377" on="0"/>
        <pt x="115" y="365" on="0"/>
        <pt x="91" y="354" on="1"/>
        <pt x="80" y="402" on="1"/>
        <pt x="109" y="413" on="0"/>
        <pt x="177" y="426" on="0"/>
        <pt x="206" y="426" on="1"/>
        <pt x="294" y="426" on="0"/>
        <pt x="376" y="343" on="0"/>
        <pt x="376" y="260" on="1"/>
        <pt x="376" y="0" on="1"/>
        <pt x="365" y="0" on="1"/>
        <pt x="328" y="-40" on="0"/>
        <pt x="284" y="-108" on="0"/>
        <pt x="284" y="-137" on="1"/>
        <pt x="284" y="-157" on="0"/>
        <pt x="305" y="-180" on="0"/>
        <pt x="322" y="-180" on="1"/>
        <pt x="339" y="-180" on="0"/>
        <pt x="365" y="-163" on="0"/>
        <pt x="378" y="-146" on="1"/>
      </contour>
      <contour>
        <pt x="321" y="175" on="1"/>
        <pt x="290" y="192" on="0"/>
        <pt x="236" y="210" on="0"/>
        <pt x="201" y="210" on="1"/>
        <pt x="153" y="210" on="0"/>
        <pt x="91" y="166" on="0"/>
        <pt x="91" y="123" on="1"/>
        <pt x="91" y="81" on="0"/>
        <pt x="152" y="38" on="0"/>
        <pt x="203" y="38" on="1"/>
        <pt x="241" y="38" on="0"/>
        <pt x="301" y="69" on="0"/>
        <pt x="321" y="93" on="1"/>
      </contour>
    </TTGlyph>
    <TTGlyph name="aring" xMin="38" yMin="-8" xMax="376" yMax="687">
      <component glyphName="a" x="0" y="0" flags="0x204"/>
      <component glyphName="ring" x="0" y="0" flags="0x4"/>
    </TTGlyph>
    <TTGlyph name="aringacute" xMin="38" yMin="-8" xMax="383" yMax="884">
      <component glyphName="a" x="0" y="0" flags="0x204"/>
      <component glyphName="acute" x="61" y="255" flags="0x4"/>
      <component glyphName="ring" x="-1" y="0" flags="0x4"/>
    </TTGlyph>
    <TTGlyph name="arrowleft" xMin="31" yMin="22" xMax="661" yMax="509">
      <contour>
        <pt x="127" y="242" on="1"/>
        <pt x="349" y="59" on="1"/>
        <pt x="319" y="22" on="1"/>
        <pt x="31" y="261" on="1"/>
        <pt x="31" y="270" on="1"/>
        <pt x="319" y="509" on="1"/>
        <pt x="349" y="472" on="1"/>
        <pt x="127" y="289" on="1"/>
        <pt x="661" y="290" on="1"/>
        <pt x="661" y="241" on="1"/>
      </contour>
    </TTGlyph>
    <TTGlyph name="arrowleft.cap" xMin="31" yMin="128" xMax="661" yMax="615">
      <component glyphName="arrowleft" x="0" y="106" flags="0x204"/>
    </TTGlyph>
    <TTGlyph name="arrowright" xMin="50" yMin="22" xMax="680" yMax="509">
      <contour>
        <pt x="584" y="289" on="1"/>
        <pt x="362" y="472" on="1"/>
        <pt x="393" y="509" on="1"/>
        <pt x="680" y="270" on="1"/>
        <pt x="680" y="261" on="1"/>
        <pt x="393" y="22" on="1"/>
        <pt x="362" y="59" on="1"/>
        <pt x="584" y="242" on="1"/>
        <pt x="50" y="241" on="1"/>
        <pt x="50" y="290" on="1"/>
      </contour>
    </TTGlyph>
    <TTGlyph name="arrowright.cap" xMin="50" yMin="128" xMax="680" yMax="615">
      <component glyphName="arrowright" x="0" y="106" flags="0x204"/>
    </TTGlyph>
    <TTGlyph name="asciicircum" xMin="86" yMin="485" xMax="357" yMax="634">
      <contour>
        <pt x="298" y="485" on="1"/>
        <pt x="219" y="583" on="1"/>
        <pt x="144" y="485" on="1"/>
        <pt x="86" y="485" on="1"/>
        <pt x="207" y="634" on="1"/>
        <pt x="237" y="634" on="1"/>
        <pt x="357" y="485" on="1"/>
      </contour>
    </TTGlyph>
    <TTGlyph name="asciitilde" xMin="69" yMin="322" xMax="370" yMax="417">
      <contour>
        <pt x="370" y="378" on="1"/>
        <pt x="323" y="322" on="0"/>
        <pt x="276" y="324" on="1"/>
        <pt x="260" y="324" on="0"/>
        <pt x="229" y="337" on="0"/>
        <pt x="214" y="346" on="1"/>
        <pt x="200" y="355" on="0"/>
        <pt x="173" y="367" on="0"/>
        <pt x="162" y="368" on="1"/>
        <pt x="145" y="368" on="0"/>
        <pt x="115" y="349" on="0"/>
        <pt x="97" y="327" on="1"/>
        <pt x="69" y="361" on="1"/>
        <pt x="116" y="417" on="0"/>
        <pt x="163" y="415" on="1"/>
        <pt x="179" y="415" on="0"/>
        <pt x="210" y="402" on="0"/>
        <pt x="224" y="393" on="1"/>
        <pt x="239" y="384" on="0"/>
        <pt x="266" y="372" on="0"/>
        <pt x="277" y="371" on="1"/>
        <pt x="294" y="371" on="0"/>
        <pt x="324" y="390" on="0"/>
        <pt x="342" y="412" on="1"/>
      </contour>
    </TTGlyph>
    <TTGlyph name="asterisk" xMin="33" yMin="454" xMax="336" yMax="737">
      <contour>
        <pt x="215" y="577" on="1"/>
        <pt x="292" y="479" on="1"/>
        <pt x="257" y="454" on="1"/>
        <pt x="185" y="556" on="1"/>
        <pt x="113" y="454" on="1"/>
        <pt x="78" y="479" on="1"/>
        <pt x="154" y="577" on="1"/>
        <pt x="33" y="614" on="1"/>
        <pt x="47" y="655" on="1"/>
        <pt x="166" y="613" on="1"/>
        <pt x="162" y="737" on="1"/>
        <pt x="207" y="737" on="1"/>
        <pt x="203" y="613" on="1"/>
        <pt x="323" y="655" on="1"/>
        <pt x="336" y="614" on="1"/>
      </contour>
    </TTGlyph>
    <TTGlyph name="at" xMin="50" yMin="-12" xMax="635" yMax="584">
      <contour>
        <pt x="635" y="313" on="1"/>
        <pt x="635" y="267" on="0"/>
        <pt x="606" y="192" on="0"/>
        <pt x="578" y="169" on="1"/>
        <pt x="546" y="142" on="0"/>
        <pt x="507" y="142" on="1"/>
        <pt x="481" y="142" on="0"/>
        <pt x="436" y="167" on="0"/>
        <pt x="424" y="192" on="1"/>
        <pt x="404" y="171" on="0"/>
        <pt x="357" y="145" on="0"/>
        <pt x="327" y="145" on="1"/>
        <pt x="289" y="145" on="0"/>
        <pt x="233" y="188" on="0"/>
        <pt x="233" y="230" on="1"/>
        <pt x="233" y="265" on="0"/>
        <pt x="285" y="310" on="0"/>
        <pt x="329" y="310" on="1"/>
        <pt x="353" y="310" on="0"/>
        <pt x="391" y="298" on="0"/>
        <pt x="407" y="290" on="1"/>
        <pt x="407" y="305" on="1"/>
        <pt x="407" y="343" on="0"/>
        <pt x="370" y="376" on="0"/>
        <pt x="334" y="376" on="1"/>
        <pt x="303" y="376" on="0"/>
        <pt x="266" y="363" on="1"/>
        <pt x="258" y="401" on="1"/>
        <pt x="274" y="407" on="0"/>
        <pt x="320" y="417" on="0"/>
        <pt x="340" y="417" on="1"/>
        <pt x="455" y="417" on="0"/>
        <pt x="455" y="303" on="1"/>
        <pt x="455" y="243" on="1"/>
        <pt x="455" y="208" on="0"/>
        <pt x="488" y="181" on="0"/>
        <pt x="508" y="181" on="1"/>
        <pt x="535" y="181" on="0"/>
        <pt x="552" y="196" on="1"/>
        <pt x="569" y="211" on="0"/>
        <pt x="590" y="272" on="0"/>
        <pt x="590" y="310" on="1"/>
        <pt x="590" y="349" on="0"/>
        <pt x="561" y="432" on="0"/>
        <pt x="501" y="500" on="0"/>
        <pt x="407" y="543" on="0"/>
        <pt x="342" y="543" on="1"/>
        <pt x="291" y="543" on="0"/>
        <pt x="201" y="503" on="0"/>
        <pt x="135" y="433" on="0"/>
        <pt x="97" y="340" on="0"/>
        <pt x="97" y="286" on="1"/>
        <pt x="97" y="232" on="0"/>
        <pt x="134" y="139" on="0"/>
        <pt x="204" y="70" on="0"/>
        <pt x="306" y="30" on="0"/>
        <pt x="372" y="30" on="1"/>
        <pt x="399" y="30" on="0"/>
        <pt x="465" y="42" on="0"/>
        <pt x="496" y="53" on="1"/>
        <pt x="498" y="42" on="0"/>
        <pt x="501" y="33" on="1"/>
        <pt x="503" y="25" on="0"/>
        <pt x="507" y="12" on="0"/>
        <pt x="507" y="13" on="1"/>
        <pt x="471" y="2" on="0"/>
        <pt x="399" y="-12" on="0"/>
        <pt x="370" y="-12" on="1"/>
        <pt x="296" y="-12" on="0"/>
        <pt x="177" y="35" on="0"/>
        <pt x="94" y="116" on="0"/>
        <pt x="50" y="224" on="0"/>
        <pt x="50" y="286" on="1"/>
        <pt x="50" y="348" on="0"/>
        <pt x="96" y="456" on="0"/>
        <pt x="175" y="537" on="0"/>
        <pt x="282" y="584" on="0"/>
        <pt x="342" y="584" on="1"/>
        <pt x="416" y="584" on="0"/>
        <pt x="526" y="535" on="0"/>
        <pt x="599" y="457" on="0"/>
        <pt x="635" y="360" on="0"/>
      </contour>
      <contour>
        <pt x="407" y="253" on="1"/>
        <pt x="393" y="263" on="0"/>
        <pt x="356" y="275" on="0"/>
        <pt x="336" y="275" on="1"/>
        <pt x="311" y="275" on="0"/>
        <pt x="280" y="253" on="0"/>
        <pt x="280" y="231" on="1"/>
        <pt x="280" y="208" on="0"/>
        <pt x="310" y="182" on="0"/>
        <pt x="336" y="182" on="1"/>
        <pt x="359" y="182" on="0"/>
        <pt x="393" y="202" on="0"/>
        <pt x="407" y="216" on="1"/>
      </contour>
    </TTGlyph>
    <TTGlyph name="at.cap" xMin="65" yMin="-10" xMax="802" yMax="744">
      <contour>
        <pt x="802" y="400" on="1"/>
        <pt x="802" y="343" on="0"/>
        <pt x="765" y="249" on="0"/>
        <pt x="730" y="220" on="1"/>
        <pt x="712" y="205" on="0"/>
        <pt x="665" y="188" on="0"/>
        <pt x="639" y="188" on="1"/>
        <pt x="607" y="188" on="0"/>
        <pt x="554" y="220" on="0"/>
        <pt x="542" y="252" on="1"/>
        <pt x="516" y="223" on="0"/>
        <pt x="451" y="190" on="0"/>
        <pt x="414" y="190" on="1"/>
        <pt x="366" y="190" on="0"/>
        <pt x="297" y="243" on="0"/>
        <pt x="297" y="294" on="1"/>
        <pt x="297" y="338" on="0"/>
        <pt x="364" y="394" on="0"/>
        <pt x="417" y="394" on="1"/>
        <pt x="446" y="394" on="0"/>
        <pt x="496" y="380" on="0"/>
        <pt x="520" y="367" on="1"/>
        <pt x="520" y="389" on="1"/>
        <pt x="520" y="435" on="0"/>
        <pt x="479" y="482" on="0"/>
        <pt x="423" y="482" on="1"/>
        <pt x="403" y="482" on="0"/>
        <pt x="359" y="473" on="0"/>
        <pt x="339" y="465" on="1"/>
        <pt x="331" y="510" on="1"/>
        <pt x="351" y="518" on="0"/>
        <pt x="406" y="530" on="0"/>
        <pt x="432" y="530" on="1"/>
        <pt x="505" y="530" on="0"/>
        <pt x="574" y="460" on="0"/>
        <pt x="574" y="388" on="1"/>
        <pt x="574" y="309" on="1"/>
        <pt x="574" y="267" on="0"/>
        <pt x="616" y="233" on="0"/>
        <pt x="642" y="233" on="1"/>
        <pt x="677" y="233" on="0"/>
        <pt x="700" y="254" on="1"/>
        <pt x="721" y="273" on="0"/>
        <pt x="750" y="347" on="0"/>
        <pt x="750" y="395" on="1"/>
        <pt x="750" y="447" on="0"/>
        <pt x="715" y="555" on="0"/>
        <pt x="640" y="642" on="0"/>
        <pt x="521" y="697" on="0"/>
        <pt x="437" y="697" on="1"/>
        <pt x="369" y="697" on="0"/>
        <pt x="253" y="646" on="0"/>
        <pt x="167" y="556" on="0"/>
        <pt x="118" y="435" on="0"/>
        <pt x="118" y="365" on="1"/>
        <pt x="118" y="296" on="0"/>
        <pt x="164" y="177" on="0"/>
        <pt x="253" y="88" on="0"/>
        <pt x="385" y="38" on="0"/>
        <pt x="471" y="38" on="1"/>
        <pt x="504" y="38" on="0"/>
        <pt x="587" y="53" on="0"/>
        <pt x="625" y="66" on="1"/>
        <pt x="638" y="20" on="1"/>
        <pt x="593" y="6" on="0"/>
        <pt x="504" y="-10" on="0"/>
        <pt x="469" y="-10" on="1"/>
        <pt x="374" y="-10" on="0"/>
        <pt x="224" y="48" on="0"/>
        <pt x="120" y="149" on="0"/>
        <pt x="65" y="286" on="0"/>
        <pt x="65" y="365" on="1"/>
        <pt x="65" y="443" on="0"/>
        <pt x="123" y="581" on="0"/>
        <pt x="223" y="684" on="0"/>
        <pt x="359" y="744" on="0"/>
        <pt x="437" y="744" on="1"/>
        <pt x="530" y="744" on="0"/>
        <pt x="667" y="682" on="0"/>
        <pt x="758" y="584" on="0"/>
        <pt x="802" y="461" on="0"/>
      </contour>
      <contour>
        <pt x="520" y="322" on="1"/>
        <pt x="500" y="336" on="0"/>
        <pt x="451" y="352" on="0"/>
        <pt x="425" y="352" on="1"/>
        <pt x="395" y="352" on="0"/>
        <pt x="351" y="321" on="0"/>
        <pt x="351" y="294" on="1"/>
        <pt x="351" y="266" on="0"/>
        <pt x="394" y="233" on="0"/>
        <pt x="425" y="233" on="1"/>
        <pt x="453" y="233" on="0"/>
        <pt x="503" y="259" on="0"/>
        <pt x="520" y="281" on="1"/>
      </contour>
    </TTGlyph>
    <TTGlyph name="atilde" xMin="38" yMin="-8" xMax="376" yMax="590">
      <component glyphName="a" x="0" y="0" flags="0x204"/>
      <component glyphName="tilde" x="2" y="0" flags="0x4"/>
    </TTGlyph>
    <TTGlyph name="b" xMin="63" yMin="-8" xMax="463" yMax="733">
      <contour>
        <pt x="463" y="211" on="1"/>
        <pt x="463" y="165" on="0"/>
        <pt x="431" y="85" on="0"/>
        <pt x="375" y="26" on="0"/>
        <pt x="300" y="-8" on="0"/>
        <pt x="258" y="-8" on="1"/>
        <pt x="216" y="-8" on="0"/>
        <pt x="141" y="24" on="0"/>
        <pt x="116" y="49" on="1"/>
        <pt x="116" y="0" on="1"/>
        <pt x="63" y="0" on="1"/>
        <pt x="63" y="733" on="1"/>
        <pt x="118" y="733" on="1"/>
        <pt x="118" y="370" on="1"/>
        <pt x="143" y="393" on="0"/>
        <pt x="218" y="426" on="0"/>
        <pt x="263" y="426" on="1"/>
        <pt x="306" y="426" on="0"/>
        <pt x="379" y="394" on="0"/>
        <pt x="433" y="337" on="0"/>
        <pt x="463" y="258" on="0"/>
      </contour>
      <contour>
        <pt x="408" y="210" on="1"/>
        <pt x="408" y="246" on="0"/>
        <pt x="386" y="307" on="0"/>
        <pt x="345" y="352" on="0"/>
        <pt x="289" y="378" on="0"/>
        <pt x="255" y="378" on="1"/>
        <pt x="212" y="378" on="0"/>
        <pt x="142" y="343" on="0"/>
        <pt x="118" y="315" on="1"/>
        <pt x="118" y="104" on="1"/>
        <pt x="141" y="77" on="0"/>
        <pt x="209" y="40" on="0"/>
        <pt x="251" y="40" on="1"/>
        <pt x="285" y="40" on="0"/>
        <pt x="342" y="65" on="0"/>
        <pt x="384" y="110" on="0"/>
        <pt x="408" y="172" on="0"/>
      </contour>
    </TTGlyph>
    <TTGlyph name="backslash" xMin="1" yMin="-216" xMax="291" yMax="733">
      <contour>
        <pt x="239" y="-216" on="1"/>
        <pt x="1" y="733" on="1"/>
        <pt x="52" y="733" on="1"/>
        <pt x="291" y="-216" on="1"/>
      </contour>
    </TTGlyph>
    <TTGlyph name="backslash.cap" xMin="15" yMin="-110" xMax="305" yMax="839">
      <component glyphName="backslash" x="14" y="106" flags="0x204"/>
    </TTGlyph>
    <TTGlyph name="bar" xMin="90" yMin="-217" xMax="140" yMax="732">
      <contour>
        <pt x="90" y="-217" on="1"/>
        <pt x="90" y="732" on="1"/>
        <pt x="140" y="732" on="1"/>
        <pt x="140" y="-217" on="1"/>
      </contour>
    </TTGlyph>
    <TTGlyph name="bar.cap" xMin="90" yMin="-110" xMax="140" yMax="839">
      <component glyphName="bar" x="0" y="107" flags="0x204"/>
    </TTGlyph>
    <TTGlyph name="braceleft" xMin="20" yMin="-223" xMax="278" yMax="740">
      <contour>
        <pt x="278" y="-223" on="1"/>
        <pt x="110" y="-223" on="0"/>
        <pt x="110" y="-50" on="1"/>
        <pt x="110" y="164" on="1"/>
        <pt x="110" y="199" on="0"/>
        <pt x="83" y="236" on="0"/>
        <pt x="43" y="236" on="1"/>
        <pt x="20" y="236" on="1"/>
        <pt x="20" y="283" on="1"/>
        <pt x="43" y="283" on="1"/>
        <pt x="83" y="283" on="0"/>
        <pt x="110" y="319" on="0"/>
        <pt x="110" y="355" on="1"/>
        <pt x="110" y="566" on="1"/>
        <pt x="110" y="740" on="0"/>
        <pt x="278" y="740" on="1"/>
        <pt x="278" y="691" on="1"/>
        <pt x="221" y="691" on="0"/>
        <pt x="163" y="635" on="0"/>
        <pt x="163" y="568" on="1"/>
        <pt x="163" y="368" on="1"/>
        <pt x="163" y="322" on="0"/>
        <pt x="137" y="273" on="0"/>
        <pt x="97" y="259" on="1"/>
        <pt x="137" y="245" on="0"/>
        <pt x="163" y="196" on="0"/>
        <pt x="163" y="150" on="1"/>
        <pt x="163" y="-51" on="1"/>
        <pt x="163" y="-118" on="0"/>
        <pt x="221" y="-174" on="0"/>
        <pt x="278" y="-174" on="1"/>
      </contour>
    </TTGlyph>
    <TTGlyph name="braceleft.cap" xMin="20" yMin="-117" xMax="278" yMax="846">
      <component glyphName="braceleft" x="0" y="106" flags="0x204"/>
    </TTGlyph>
    <TTGlyph name="braceright" xMin="18" yMin="-223" xMax="276" yMax="740">
      <contour>
        <pt x="253" y="236" on="1"/>
        <pt x="213" y="236" on="0"/>
        <pt x="186" y="199" on="0"/>
        <pt x="186" y="164" on="1"/>
        <pt x="186" y="-50" on="1"/>
        <pt x="186" y="-223" on="0"/>
        <pt x="18" y="-223" on="1"/>
        <pt x="18" y="-174" on="1"/>
        <pt x="75" y="-174" on="0"/>
        <pt x="134" y="-118" on="0"/>
        <pt x="134" y="-51" on="1"/>
        <pt x="134" y="150" on="1"/>
        <pt x="134" y="196" on="0"/>
        <pt x="160" y="245" on="0"/>
        <pt x="199" y="259" on="1"/>
        <pt x="160" y="273" on="0"/>
        <pt x="134" y="322" on="0"/>
        <pt x="134" y="368" on="1"/>
        <pt x="134" y="568" on="1"/>
        <pt x="134" y="635" on="0"/>
        <pt x="75" y="691" on="0"/>
        <pt x="18" y="691" on="1"/>
        <pt x="18" y="740" on="1"/>
        <pt x="186" y="740" on="0"/>
        <pt x="186" y="566" on="1"/>
        <pt x="186" y="355" on="1"/>
        <pt x="186" y="319" on="0"/>
        <pt x="213" y="283" on="0"/>
        <pt x="253" y="283" on="1"/>
        <pt x="276" y="283" on="1"/>
        <pt x="276" y="236" on="1"/>
      </contour>
    </TTGlyph>
    <TTGlyph name="braceright.cap" xMin="18" yMin="-117" xMax="276" yMax="846">
      <component glyphName="braceright" x="0" y="106" flags="0x204"/>
    </TTGlyph>
    <TTGlyph name="bracketleft" xMin="80" yMin="-216" xMax="271" yMax="733">
      <contour>
        <pt x="80" y="-216" on="1"/>
        <pt x="80" y="733" on="1"/>
        <pt x="271" y="733" on="1"/>
        <pt x="271" y="687" on="1"/>
        <pt x="132" y="687" on="1"/>
        <pt x="132" y="-170" on="1"/>
        <pt x="271" y="-170" on="1"/>
        <pt x="271" y="-216" on="1"/>
      </contour>
    </TTGlyph>
    <TTGlyph name="bracketleft.cap" xMin="80" yMin="-110" xMax="271" yMax="839">
      <component glyphName="bracketleft" x="0" y="106" flags="0x204"/>
    </TTGlyph>
    <TTGlyph name="bracketright" xMin="25" yMin="-216" xMax="216" yMax="733">
      <contour>
        <pt x="25" y="-216" on="1"/>
        <pt x="25" y="-170" on="1"/>
        <pt x="164" y="-170" on="1"/>
        <pt x="164" y="687" on="1"/>
        <pt x="25" y="687" on="1"/>
        <pt x="25" y="733" on="1"/>
        <pt x="216" y="733" on="1"/>
        <pt x="216" y="-216" on="1"/>
      </contour>
    </TTGlyph>
    <TTGlyph name="bracketright.cap" xMin="25" yMin="-110" xMax="216" yMax="839">
      <component glyphName="bracketright" x="0" y="106" flags="0x204"/>
    </TTGlyph>
    <TTGlyph name="breve" xMin="98" yMin="487" xMax="342" yMax="610">
      <contour>
        <pt x="342" y="605" on="1"/>
        <pt x="342" y="581" on="0"/>
        <pt x="326" y="539" on="0"/>
        <pt x="294" y="506" on="0"/>
        <pt x="249" y="487" on="0"/>
        <pt x="220" y="487" on="1"/>
        <pt x="191" y="487" on="0"/>
        <pt x="147" y="506" on="0"/>
        <pt x="115" y="539" on="0"/>
        <pt x="98" y="581" on="0"/>
        <pt x="98" y="605" on="1"/>
        <pt x="149" y="610" on="1"/>
        <pt x="150" y="573" on="0"/>
        <pt x="187" y="531" on="0"/>
        <pt x="220" y="531" on="1"/>
        <pt x="253" y="531" on="0"/>
        <pt x="290" y="573" on="0"/>
        <pt x="291" y="610" on="1"/>
      </contour>
    </TTGlyph>
    <TTGlyph name="bullet" xMin="60" yMin="247" xMax="292" yMax="485">
      <contour>
        <pt x="292" y="366" on="1"/>
        <pt x="292" y="342" on="0"/>
        <pt x="274" y="298" on="0"/>
        <pt x="242" y="266" on="0"/>
        <pt x="200" y="247" on="0"/>
        <pt x="176" y="247" on="1"/>
        <pt x="152" y="247" on="0"/>
        <pt x="109" y="266" on="0"/>
        <pt x="78" y="298" on="0"/>
        <pt x="60" y="342" on="0"/>
        <pt x="60" y="366" on="1"/>
        <pt x="60" y="391" on="0"/>
        <pt x="78" y="434" on="0"/>
        <pt x="109" y="466" on="0"/>
        <pt x="152" y="485" on="0"/>
        <pt x="176" y="485" on="1"/>
        <pt x="200" y="485" on="0"/>
        <pt x="242" y="466" on="0"/>
        <pt x="274" y="434" on="0"/>
        <pt x="292" y="391" on="0"/>
      </contour>
    </TTGlyph>
    <TTGlyph name="c" xMin="42" yMin="-8" xMax="400" yMax="426">
      <contour>
        <pt x="400" y="34" on="1"/>
        <pt x="371" y="16" on="0"/>
        <pt x="300" y="-8" on="0"/>
        <pt x="261" y="-8" on="1"/>
        <pt x="213" y="-8" on="0"/>
        <pt x="133" y="25" on="0"/>
        <pt x="74" y="84" on="0"/>
        <pt x="42" y="162" on="0"/>
        <pt x="42" y="207" on="1"/>
        <pt x="42" y="252" on="0"/>
        <pt x="74" y="332" on="0"/>
        <pt x="133" y="391" on="0"/>
        <pt x="213" y="426" on="0"/>
        <pt x="261" y="426" on="1"/>
        <pt x="300" y="426" on="0"/>
        <pt x="371" y="402" on="0"/>
        <pt x="400" y="384" on="1"/>
        <pt x="375" y="341" on="1"/>
        <pt x="350" y="357" on="0"/>
        <pt x="291" y="377" on="0"/>
        <pt x="258" y="377" on="1"/>
        <pt x="223" y="377" on="0"/>
        <pt x="163" y="353" on="0"/>
        <pt x="120" y="308" on="0"/>
        <pt x="96" y="246" on="0"/>
        <pt x="96" y="209" on="1"/>
        <pt x="96" y="172" on="0"/>
        <pt x="122" y="111" on="0"/>
        <pt x="166" y="66" on="0"/>
        <pt x="226" y="41" on="0"/>
        <pt x="260" y="41" on="1"/>
        <pt x="294" y="41" on="0"/>
        <pt x="352" y="61" on="0"/>
        <pt x="378" y="77" on="1"/>
      </contour>
    </TTGlyph>
    <TTGlyph name="cacute" xMin="42" yMin="-8" xMax="413" yMax="629">
      <component glyphName="acute" x="91" y="0" flags="0x4"/>
      <component glyphName="c" x="0" y="0" flags="0x4"/>
    </TTGlyph>
    <TTGlyph name="caron" xMin="84" yMin="482" xMax="355" yMax="631">
      <contour>
        <pt x="233" y="482" on="1"/>
        <pt x="204" y="482" on="1"/>
        <pt x="84" y="631" on="1"/>
        <pt x="143" y="631" on="1"/>
        <pt x="221" y="533" on="1"/>
        <pt x="297" y="631" on="1"/>
        <pt x="355" y="631" on="1"/>
      </contour>
    </TTGlyph>
    <TTGlyph name="caron.alt" xMin="54" yMin="545" xMax="169" yMax="737">
      <contour>
        <pt x="169" y="729" on="1"/>
        <pt x="169" y="666" on="0"/>
        <pt x="121" y="577" on="0"/>
        <pt x="79" y="545" on="1"/>
        <pt x="54" y="566" on="1"/>
        <pt x="83" y="597" on="0"/>
        <pt x="113" y="680" on="0"/>
        <pt x="115" y="737" on="1"/>
      </contour>
    </TTGlyph>
    <TTGlyph name="ccaron" xMin="42" yMin="-8" xMax="400" yMax="631">
      <component glyphName="caron" x="29" y="0" flags="0x4"/>
      <component glyphName="c" x="0" y="0" flags="0x4"/>
    </TTGlyph>
    <TTGlyph name="ccedilla" xMin="42" yMin="-237" xMax="400" yMax="426">
      <contour>
        <pt x="342" y="-150" on="1"/>
        <pt x="342" y="-185" on="0"/>
        <pt x="291" y="-237" on="0"/>
        <pt x="240" y="-237" on="1"/>
        <pt x="214" y="-237" on="0"/>
        <pt x="163" y="-220" on="0"/>
        <pt x="134" y="-204" on="1"/>
        <pt x="152" y="-168" on="1"/>
        <pt x="178" y="-182" on="0"/>
        <pt x="220" y="-197" on="0"/>
        <pt x="240" y="-197" on="1"/>
        <pt x="267" y="-197" on="0"/>
        <pt x="295" y="-172" on="0"/>
        <pt x="295" y="-152" on="1"/>
        <pt x="295" y="-129" on="0"/>
        <pt x="250" y="-94" on="0"/>
        <pt x="194" y="-89" on="1"/>
        <pt x="191" y="-83" on="1"/>
        <pt x="212" y="-3" on="1"/>
        <pt x="174" y="4" on="0"/>
        <pt x="111" y="43" on="0"/>
        <pt x="66" y="98" on="0"/>
        <pt x="42" y="168" on="0"/>
        <pt x="42" y="207" on="1"/>
        <pt x="42" y="252" on="0"/>
        <pt x="74" y="332" on="0"/>
        <pt x="133" y="391" on="0"/>
        <pt x="213" y="426" on="0"/>
        <pt x="261" y="426" on="1"/>
        <pt x="300" y="426" on="0"/>
        <pt x="371" y="402" on="0"/>
        <pt x="400" y="384" on="1"/>
        <pt x="375" y="341" on="1"/>
        <pt x="350" y="357" on="0"/>
        <pt x="291" y="377" on="0"/>
        <pt x="258" y="377" on="1"/>
        <pt x="223" y="377" on="0"/>
        <pt x="163" y="353" on="0"/>
        <pt x="120" y="308" on="0"/>
        <pt x="96" y="246" on="0"/>
        <pt x="96" y="209" on="1"/>
        <pt x="96" y="172" on="0"/>
        <pt x="122" y="111" on="0"/>
        <pt x="166" y="66" on="0"/>
        <pt x="226" y="41" on="0"/>
        <pt x="260" y="41" on="1"/>
        <pt x="294" y="41" on="0"/>
        <pt x="352" y="61" on="0"/>
        <pt x="378" y="77" on="1"/>
        <pt x="400" y="34" on="1"/>
        <pt x="371" y="16" on="0"/>
        <pt x="300" y="-8" on="0"/>
        <pt x="261" y="-8" on="1"/>
        <pt x="250" y="-8" on="1"/>
        <pt x="238" y="-55" on="1"/>
        <pt x="293" y="-66" on="0"/>
        <pt x="342" y="-118" on="0"/>
      </contour>
    </TTGlyph>
    <TTGlyph name="cdotaccent" xMin="42" yMin="-8" xMax="400" yMax="586">
      <component glyphName="c" x="0" y="0" flags="0x204"/>
      <component glyphName="dotaccent" x="28" y="0" flags="0x4"/>
    </TTGlyph>
    <TTGlyph name="cedilla" xMin="124" yMin="-237" xMax="332" yMax="14">
      <contour>
        <pt x="332" y="-150" on="1"/>
        <pt x="332" y="-185" on="0"/>
        <pt x="281" y="-237" on="0"/>
        <pt x="230" y="-237" on="1"/>
        <pt x="204" y="-237" on="0"/>
        <pt x="153" y="-220" on="0"/>
        <pt x="124" y="-204" on="1"/>
        <pt x="142" y="-168" on="1"/>
        <pt x="168" y="-182" on="0"/>
        <pt x="210" y="-197" on="0"/>
        <pt x="230" y="-197" on="1"/>
        <pt x="257" y="-197" on="0"/>
        <pt x="285" y="-172" on="0"/>
        <pt x="285" y="-152" on="1"/>
        <pt x="285" y="-129" on="0"/>
        <pt x="240" y="-94" on="0"/>
        <pt x="184" y="-89" on="1"/>
        <pt x="181" y="-83" on="1"/>
        <pt x="207" y="14" on="1"/>
        <pt x="244" y="5" on="1"/>
        <pt x="228" y="-55" on="1"/>
        <pt x="283" y="-66" on="0"/>
        <pt x="332" y="-118" on="0"/>
      </contour>
    </TTGlyph>
    <TTGlyph name="cent" xMin="41" yMin="-85" xMax="399" yMax="500">
      <contour>
        <pt x="204" y="-2" on="1"/>
        <pt x="167" y="6" on="0"/>
        <pt x="107" y="44" on="0"/>
        <pt x="64" y="99" on="0"/>
        <pt x="41" y="167" on="0"/>
        <pt x="41" y="206" on="1"/>
        <pt x="41" y="250" on="0"/>
        <pt x="71" y="327" on="0"/>
        <pt x="124" y="386" on="0"/>
        <pt x="196" y="422" on="0"/>
        <pt x="238" y="425" on="1"/>
        <pt x="244" y="500" on="1"/>
        <pt x="291" y="496" on="1"/>
        <pt x="285" y="424" on="1"/>
        <pt x="319" y="421" on="0"/>
        <pt x="375" y="399" on="0"/>
        <pt x="399" y="384" on="1"/>
        <pt x="374" y="341" on="1"/>
        <pt x="354" y="352" on="0"/>
        <pt x="309" y="372" on="0"/>
        <pt x="281" y="375" on="1"/>
        <pt x="255" y="41" on="1"/>
        <pt x="259" y="41" on="1"/>
        <pt x="291" y="41" on="0"/>
        <pt x="350" y="60" on="0"/>
        <pt x="377" y="77" on="1"/>
        <pt x="399" y="34" on="1"/>
        <pt x="367" y="14" on="0"/>
        <pt x="296" y="-8" on="0"/>
        <pt x="258" y="-8" on="1"/>
        <pt x="251" y="-8" on="1"/>
        <pt x="249" y="-25" on="0"/>
        <pt x="248" y="-54" on="0"/>
        <pt x="247" y="-64" on="1"/>
        <pt x="246" y="-76" on="0"/>
        <pt x="245" y="-85" on="1"/>
        <pt x="198" y="-81" on="1"/>
      </contour>
      <contour>
        <pt x="95" y="208" on="1"/>
        <pt x="95" y="146" on="0"/>
        <pt x="158" y="63" on="0"/>
        <pt x="208" y="48" on="1"/>
        <pt x="234" y="376" on="1"/>
        <pt x="173" y="368" on="0"/>
        <pt x="95" y="279" on="0"/>
      </contour>
    </TTGlyph>
    <TTGlyph name="cent.lin" xMin="41" yMin="78" xMax="399" yMax="663">
      <component glyphName="cent" x="0" y="163" flags="0x4"/>
    </TTGlyph>
    <TTGlyph name="circumflex" xMin="86" yMin="487" xMax="357" yMax="636">
      <contour>
        <pt x="298" y="487" on="1"/>
        <pt x="219" y="585" on="1"/>
        <pt x="144" y="487" on="1"/>
        <pt x="86" y="487" on="1"/>
        <pt x="207" y="636" on="1"/>
        <pt x="237" y="636" on="1"/>
        <pt x="357" y="487" on="1"/>
      </contour>
    </TTGlyph>
    <TTGlyph name="colon" xMin="47" yMin="-8" xMax="135" yMax="367">
      <contour>
        <pt x="48" y="36" on="1"/>
        <pt x="48" y="54" on="0"/>
        <pt x="73" y="79" on="0"/>
        <pt x="91" y="79" on="1"/>
        <pt x="110" y="79" on="0"/>
        <pt x="135" y="54" on="0"/>
        <pt x="135" y="36" on="1"/>
        <pt x="135" y="17" on="0"/>
        <pt x="110" y="-8" on="0"/>
        <pt x="91" y="-8" on="1"/>
        <pt x="73" y="-8" on="0"/>
        <pt x="48" y="17" on="0"/>
      </contour>
      <contour>
        <pt x="47" y="323" on="1"/>
        <pt x="47" y="341" on="0"/>
        <pt x="73" y="367" on="0"/>
        <pt x="91" y="367" on="1"/>
        <pt x="109" y="367" on="0"/>
        <pt x="135" y="341" on="0"/>
        <pt x="135" y="323" on="1"/>
        <pt x="135" y="305" on="0"/>
        <pt x="109" y="280" on="0"/>
        <pt x="91" y="280" on="1"/>
        <pt x="73" y="280" on="0"/>
        <pt x="47" y="305" on="0"/>
      </contour>
    </TTGlyph>
    <TTGlyph name="comma" xMin="38" yMin="-114" xMax="138" yMax="79">
      <contour>
        <pt x="138" y="23" on="1"/>
        <pt x="138" y="-14" on="0"/>
        <pt x="87" y="-91" on="0"/>
        <pt x="49" y="-114" on="1"/>
        <pt x="38" y="-101" on="1"/>
        <pt x="62" y="-79" on="0"/>
        <pt x="90" y="-30" on="0"/>
        <pt x="95" y="-7" on="1"/>
        <pt x="73" y="-5" on="0"/>
        <pt x="48" y="21" on="0"/>
        <pt x="48" y="38" on="1"/>
        <pt x="48" y="55" on="0"/>
        <pt x="73" y="79" on="0"/>
        <pt x="90" y="79" on="1"/>
        <pt x="111" y="79" on="0"/>
        <pt x="138" y="48" on="0"/>
      </contour>
    </TTGlyph>
    <TTGlyph name="commaaccent" xMin="43" yMin="-262" xMax="141" yMax="-73">
      <contour>
        <pt x="141" y="-128" on="1"/>
        <pt x="141" y="-146" on="0"/>
        <pt x="128" y="-183" on="0"/>
        <pt x="105" y="-219" on="0"/>
        <pt x="73" y="-251" on="0"/>
        <pt x="54" y="-262" on="1"/>
        <pt x="43" y="-249" on="1"/>
        <pt x="66" y="-228" on="0"/>
        <pt x="94" y="-180" on="0"/>
        <pt x="99" y="-157" on="1"/>
        <pt x="77" y="-155" on="0"/>
        <pt x="53" y="-131" on="0"/>
        <pt x="53" y="-114" on="1"/>
        <pt x="53" y="-97" on="0"/>
        <pt x="77" y="-73" on="0"/>
        <pt x="94" y="-73" on="1"/>
        <pt x="115" y="-73" on="0"/>
        <pt x="141" y="-104" on="0"/>
      </contour>
    </TTGlyph>
    <TTGlyph name="copyright" xMin="50" yMin="-12" xMax="792" yMax="745">
      <contour>
        <pt x="792" y="366" on="1"/>
        <pt x="792" y="288" on="0"/>
        <pt x="734" y="150" on="0"/>
        <pt x="633" y="47" on="0"/>
        <pt x="498" y="-12" on="0"/>
        <pt x="421" y="-12" on="1"/>
        <pt x="344" y="-12" on="0"/>
        <pt x="209" y="47" on="0"/>
        <pt x="108" y="150" on="0"/>
        <pt x="50" y="288" on="0"/>
        <pt x="50" y="366" on="1"/>
        <pt x="50" y="444" on="0"/>
        <pt x="108" y="582" on="0"/>
        <pt x="209" y="685" on="0"/>
        <pt x="344" y="745" on="0"/>
        <pt x="421" y="745" on="1"/>
        <pt x="498" y="745" on="0"/>
        <pt x="633" y="685" on="0"/>
        <pt x="734" y="582" on="0"/>
        <pt x="792" y="444" on="0"/>
      </contour>
      <contour>
        <pt x="744" y="366" on="1"/>
        <pt x="744" y="436" on="0"/>
        <pt x="693" y="559" on="0"/>
        <pt x="606" y="651" on="0"/>
        <pt x="488" y="703" on="0"/>
        <pt x="421" y="703" on="1"/>
        <pt x="354" y="703" on="0"/>
        <pt x="237" y="651" on="0"/>
        <pt x="150" y="559" on="0"/>
        <pt x="99" y="436" on="0"/>
        <pt x="99" y="366" on="1"/>
        <pt x="99" y="296" on="0"/>
        <pt x="150" y="174" on="0"/>
        <pt x="237" y="83" on="0"/>
        <pt x="354" y="31" on="0"/>
        <pt x="421" y="31" on="1"/>
        <pt x="488" y="31" on="0"/>
        <pt x="605" y="83" on="0"/>
        <pt x="693" y="174" on="0"/>
        <pt x="744" y="296" on="0"/>
      </contour>
      <contour>
        <pt x="560" y="220" on="1"/>
        <pt x="535" y="203" on="0"/>
        <pt x="473" y="182" on="0"/>
        <pt x="436" y="182" on="1"/>
        <pt x="395" y="182" on="0"/>
        <pt x="323" y="209" on="0"/>
        <pt x="271" y="258" on="0"/>
        <pt x="241" y="328" on="0"/>
        <pt x="241" y="370" on="1"/>
        <pt x="241" y="412" on="0"/>
        <pt x="271" y="482" on="0"/>
        <pt x="324" y="531" on="0"/>
        <pt x="395" y="559" on="0"/>
        <pt x="436" y="559" on="1"/>
        <pt x="474" y="559" on="0"/>
        <pt x="534" y="538" on="0"/>
        <pt x="560" y="522" on="1"/>
        <pt x="543" y="483" on="1"/>
        <pt x="520" y="497" on="0"/>
        <pt x="465" y="516" on="0"/>
        <pt x="435" y="516" on="1"/>
        <pt x="404" y="516" on="0"/>
        <pt x="351" y="495" on="0"/>
        <pt x="313" y="457" on="0"/>
        <pt x="291" y="403" on="0"/>
        <pt x="291" y="370" on="1"/>
        <pt x="291" y="337" on="0"/>
        <pt x="313" y="283" on="0"/>
        <pt x="352" y="245" on="0"/>
        <pt x="405" y="225" on="0"/>
        <pt x="437" y="225" on="1"/>
        <pt x="466" y="225" on="0"/>
        <pt x="521" y="244" on="0"/>
        <pt x="544" y="259" on="1"/>
      </contour>
    </TTGlyph>
    <TTGlyph name="d" xMin="43" yMin="-8" xMax="443" yMax="733">
      <contour>
        <pt x="390" y="0" on="1"/>
        <pt x="390" y="51" on="1"/>
        <pt x="364" y="25" on="0"/>
        <pt x="291" y="-8" on="0"/>
        <pt x="246" y="-8" on="1"/>
        <pt x="202" y="-8" on="0"/>
        <pt x="127" y="24" on="0"/>
        <pt x="73" y="81" on="0"/>
        <pt x="43" y="160" on="0"/>
        <pt x="43" y="207" on="1"/>
        <pt x="43" y="253" on="0"/>
        <pt x="75" y="333" on="0"/>
        <pt x="131" y="392" on="0"/>
        <pt x="206" y="426" on="0"/>
        <pt x="248" y="426" on="1"/>
        <pt x="293" y="426" on="0"/>
        <pt x="363" y="397" on="0"/>
        <pt x="388" y="374" on="1"/>
        <pt x="388" y="733" on="1"/>
        <pt x="443" y="733" on="1"/>
        <pt x="443" y="0" on="1"/>
      </contour>
      <contour>
        <pt x="388" y="315" on="1"/>
        <pt x="365" y="342" on="0"/>
        <pt x="295" y="378" on="0"/>
        <pt x="251" y="378" on="1"/>
        <pt x="218" y="378" on="0"/>
        <pt x="162" y="353" on="0"/>
        <pt x="121" y="308" on="0"/>
        <pt x="98" y="245" on="0"/>
        <pt x="98" y="208" on="1"/>
        <pt x="98" y="172" on="0"/>
        <pt x="121" y="110" on="0"/>
        <pt x="161" y="65" on="0"/>
        <pt x="218" y="40" on="0"/>
        <pt x="253" y="40" on="1"/>
        <pt x="296" y="40" on="0"/>
        <pt x="365" y="76" on="0"/>
        <pt x="388" y="105" on="1"/>
      </contour>
    </TTGlyph>
    <TTGlyph name="dagger" xMin="43" yMin="156" xMax="415" yMax="733">
      <contour>
        <pt x="257" y="502" on="1"/>
        <pt x="257" y="156" on="1"/>
        <pt x="203" y="156" on="1"/>
        <pt x="203" y="502" on="1"/>
        <pt x="43" y="502" on="1"/>
        <pt x="43" y="551" on="1"/>
        <pt x="203" y="551" on="1"/>
        <pt x="203" y="733" on="1"/>
        <pt x="257" y="733" on="1"/>
        <pt x="257" y="551" on="1"/>
        <pt x="415" y="551" on="1"/>
        <pt x="415" y="502" on="1"/>
      </contour>
    </TTGlyph>
    <TTGlyph name="daggerdbl" xMin="43" yMin="156" xMax="417" yMax="733">
      <contour>
        <pt x="257" y="312" on="1"/>
        <pt x="257" y="156" on="1"/>
        <pt x="203" y="156" on="1"/>
        <pt x="203" y="312" on="1"/>
        <pt x="46" y="312" on="1"/>
        <pt x="46" y="360" on="1"/>
        <pt x="203" y="360" on="1"/>
        <pt x="203" y="529" on="1"/>
        <pt x="43" y="529" on="1"/>
        <pt x="43" y="578" on="1"/>
        <pt x="203" y="578" on="1"/>
        <pt x="203" y="733" on="1"/>
        <pt x="257" y="733" on="1"/>
        <pt x="257" y="578" on="1"/>
        <pt x="415" y="578" on="1"/>
        <pt x="415" y="529" on="1"/>
        <pt x="257" y="529" on="1"/>
        <pt x="257" y="360" on="1"/>
        <pt x="417" y="360" on="1"/>
        <pt x="417" y="312" on="1"/>
      </contour>
    </TTGlyph>
    <TTGlyph name="dcaron" xMin="43" yMin="-8" xMax="593" yMax="734">
      <component glyphName="caron.alt" x="424" y="-3" flags="0x4"/>
      <component glyphName="d" x="0" y="0" flags="0x4"/>
    </TTGlyph>
    <TTGlyph name="dcroat" xMin="43" yMin="-8" xMax="501" yMax="733">
      <contour>
        <pt x="390" y="0" on="1"/>
        <pt x="390" y="51" on="1"/>
        <pt x="364" y="25" on="0"/>
        <pt x="291" y="-8" on="0"/>
        <pt x="246" y="-8" on="1"/>
        <pt x="202" y="-8" on="0"/>
        <pt x="127" y="24" on="0"/>
        <pt x="73" y="81" on="0"/>
        <pt x="43" y="160" on="0"/>
        <pt x="43" y="207" on="1"/>
        <pt x="43" y="253" on="0"/>
        <pt x="75" y="333" on="0"/>
        <pt x="131" y="392" on="0"/>
        <pt x="206" y="426" on="0"/>
        <pt x="248" y="426" on="1"/>
        <pt x="293" y="426" on="0"/>
        <pt x="363" y="397" on="0"/>
        <pt x="388" y="374" on="1"/>
        <pt x="388" y="570" on="1"/>
        <pt x="242" y="570" on="1"/>
        <pt x="242" y="618" on="1"/>
        <pt x="388" y="618" on="1"/>
        <pt x="388" y="733" on="1"/>
        <pt x="443" y="733" on="1"/>
        <pt x="443" y="618" on="1"/>
        <pt x="501" y="618" on="1"/>
        <pt x="501" y="570" on="1"/>
        <pt x="443" y="570" on="1"/>
        <pt x="443" y="0" on="1"/>
      </contour>
      <contour>
        <pt x="388" y="315" on="1"/>
        <pt x="365" y="342" on="0"/>
        <pt x="295" y="378" on="0"/>
        <pt x="251" y="378" on="1"/>
        <pt x="218" y="378" on="0"/>
        <pt x="162" y="353" on="0"/>
        <pt x="121" y="308" on="0"/>
        <pt x="98" y="245" on="0"/>
        <pt x="98" y="208" on="1"/>
        <pt x="98" y="172" on="0"/>
        <pt x="121" y="110" on="0"/>
        <pt x="161" y="65" on="0"/>
        <pt x="218" y="40" on="0"/>
        <pt x="253" y="40" on="1"/>
        <pt x="296" y="40" on="0"/>
        <pt x="365" y="76" on="0"/>
        <pt x="388" y="105" on="1"/>
      </contour>
    </TTGlyph>
    <TTGlyph name="degree" xMin="80" yMin="479" xMax="293" yMax="687">
      <contour>
        <pt x="293" y="583" on="1"/>
        <pt x="293" y="540" on="0"/>
        <pt x="234" y="479" on="0"/>
        <pt x="186" y="479" on="1"/>
        <pt x="138" y="479" on="0"/>
        <pt x="80" y="540" on="0"/>
        <pt x="80" y="583" on="1"/>
        <pt x="80" y="626" on="0"/>
        <pt x="138" y="687" on="0"/>
        <pt x="186" y="687" on="1"/>
        <pt x="234" y="687" on="0"/>
        <pt x="293" y="626" on="0"/>
      </contour>
      <contour>
        <pt x="252" y="583" on="1"/>
        <pt x="252" y="612" on="0"/>
        <pt x="216" y="652" on="0"/>
        <pt x="186" y="652" on="1"/>
        <pt x="157" y="652" on="0"/>
        <pt x="120" y="612" on="0"/>
        <pt x="120" y="583" on="1"/>
        <pt x="120" y="554" on="0"/>
        <pt x="157" y="514" on="0"/>
        <pt x="186" y="514" on="1"/>
        <pt x="216" y="514" on="0"/>
        <pt x="252" y="554" on="0"/>
      </contour>
    </TTGlyph>
    <TTGlyph name="degree.lin" xMin="49" yMin="482" xMax="314" yMax="744">
      <contour>
        <pt x="314" y="613" on="1"/>
        <pt x="314" y="587" on="0"/>
        <pt x="296" y="539" on="0"/>
        <pt x="261" y="503" on="0"/>
        <pt x="212" y="482" on="0"/>
        <pt x="182" y="482" on="1"/>
        <pt x="151" y="482" on="0"/>
        <pt x="102" y="503" on="0"/>
        <pt x="67" y="539" on="0"/>
        <pt x="49" y="587" on="0"/>
        <pt x="49" y="613" on="1"/>
        <pt x="49" y="639" on="0"/>
        <pt x="67" y="686" on="0"/>
        <pt x="102" y="722" on="0"/>
        <pt x="151" y="744" on="0"/>
        <pt x="181" y="744" on="1"/>
        <pt x="212" y="744" on="0"/>
        <pt x="261" y="722" on="0"/>
        <pt x="295" y="686" on="0"/>
        <pt x="314" y="639" on="0"/>
      </contour>
      <contour>
        <pt x="268" y="613" on="1"/>
        <pt x="268" y="651" on="0"/>
        <pt x="219" y="704" on="0"/>
        <pt x="181" y="704" on="1"/>
        <pt x="143" y="704" on="0"/>
        <pt x="95" y="651" on="0"/>
        <pt x="95" y="613" on="1"/>
        <pt x="95" y="574" on="0"/>
        <pt x="144" y="521" on="0"/>
        <pt x="182" y="521" on="1"/>
        <pt x="220" y="521" on="0"/>
        <pt x="268" y="574" on="0"/>
      </contour>
    </TTGlyph>
    <TTGlyph name="dieresis" xMin="93" yMin="501" xMax="348" yMax="586">
      <contour>
        <pt x="348" y="543" on="1"/>
        <pt x="348" y="526" on="0"/>
        <pt x="323" y="501" on="0"/>
        <pt x="306" y="501" on="1"/>
        <pt x="288" y="501" on="0"/>
        <pt x="263" y="526" on="0"/>
        <pt x="263" y="543" on="1"/>
        <pt x="263" y="560" on="0"/>
        <pt x="288" y="586" on="0"/>
        <pt x="306" y="586" on="1"/>
        <pt x="323" y="586" on="0"/>
        <pt x="348" y="560" on="0"/>
      </contour>
      <contour>
        <pt x="177" y="543" on="1"/>
        <pt x="177" y="526" on="0"/>
        <pt x="152" y="501" on="0"/>
        <pt x="135" y="501" on="1"/>
        <pt x="118" y="501" on="0"/>
        <pt x="93" y="526" on="0"/>
        <pt x="93" y="543" on="1"/>
        <pt x="93" y="560" on="0"/>
        <pt x="118" y="586" on="0"/>
        <pt x="135" y="586" on="1"/>
        <pt x="152" y="586" on="0"/>
        <pt x="177" y="560" on="0"/>
      </contour>
    </TTGlyph>
    <TTGlyph name="divide" xMin="60" yMin="95" xMax="400" yMax="465">
      <contour>
        <pt x="60" y="305" on="1"/>
        <pt x="400" y="305" on="1"/>
        <pt x="400" y="256" on="1"/>
        <pt x="60" y="256" on="1"/>
      </contour>
      <contour>
        <pt x="190" y="424" on="1"/>
        <pt x="190" y="441" on="0"/>
        <pt x="213" y="465" on="0"/>
        <pt x="230" y="465" on="1"/>
        <pt x="247" y="465" on="0"/>
        <pt x="270" y="441" on="0"/>
        <pt x="270" y="424" on="1"/>
        <pt x="270" y="408" on="0"/>
        <pt x="247" y="384" on="0"/>
        <pt x="230" y="384" on="1"/>
        <pt x="213" y="384" on="0"/>
        <pt x="190" y="408" on="0"/>
      </contour>
      <contour>
        <pt x="190" y="135" on="1"/>
        <pt x="190" y="152" on="0"/>
        <pt x="213" y="176" on="0"/>
        <pt x="230" y="176" on="1"/>
        <pt x="247" y="176" on="0"/>
        <pt x="270" y="152" on="0"/>
        <pt x="270" y="135" on="1"/>
        <pt x="270" y="119" on="0"/>
        <pt x="247" y="95" on="0"/>
        <pt x="230" y="95" on="1"/>
        <pt x="213" y="95" on="0"/>
        <pt x="190" y="119" on="0"/>
      </contour>
    </TTGlyph>
    <TTGlyph name="divide.lin" xMin="60" yMin="186" xMax="400" yMax="556">
      <component glyphName="divide" x="0" y="91" flags="0x204"/>
    </TTGlyph>
    <TTGlyph name="dollar" xMin="29" yMin="-75" xMax="383" yMax="650">
      <contour>
        <pt x="269" y="646" on="1"/>
        <pt x="264" y="584" on="1"/>
        <pt x="296" y="580" on="0"/>
        <pt x="351" y="557" on="0"/>
        <pt x="373" y="543" on="1"/>
        <pt x="348" y="499" on="1"/>
        <pt x="333" y="510" on="0"/>
        <pt x="286" y="531" on="0"/>
        <pt x="260" y="536" on="1"/>
        <pt x="242" y="313" on="1"/>
        <pt x="276" y="298" on="0"/>
        <pt x="328" y="267" on="0"/>
        <pt x="364" y="229" on="0"/>
        <pt x="383" y="183" on="0"/>
        <pt x="383" y="153" on="1"/>
        <pt x="383" y="118" on="0"/>
        <pt x="357" y="60" on="0"/>
        <pt x="312" y="18" on="0"/>
        <pt x="252" y="-7" on="0"/>
        <pt x="217" y="-9" on="1"/>
        <pt x="212" y="-75" on="1"/>
        <pt x="168" y="-72" on="1"/>
        <pt x="173" y="-8" on="1"/>
        <pt x="134" y="-3" on="0"/>
        <pt x="63" y="26" on="0"/>
        <pt x="29" y="48" on="1"/>
        <pt x="57" y="93" on="1"/>
        <pt x="82" y="74" on="0"/>
        <pt x="145" y="46" on="0"/>
        <pt x="177" y="41" on="1"/>
        <pt x="196" y="276" on="1"/>
        <pt x="165" y="289" on="0"/>
        <pt x="114" y="319" on="0"/>
        <pt x="78" y="355" on="0"/>
        <pt x="58" y="402" on="0"/>
        <pt x="58" y="432" on="1"/>
        <pt x="58" y="462" on="0"/>
        <pt x="81" y="516" on="0"/>
        <pt x="123" y="557" on="0"/>
        <pt x="183" y="583" on="0"/>
        <pt x="220" y="585" on="1"/>
        <pt x="225" y="650" on="1"/>
      </contour>
      <contour>
        <pt x="329" y="149" on="1"/>
        <pt x="329" y="190" on="0"/>
        <pt x="278" y="239" on="0"/>
        <pt x="238" y="258" on="1"/>
        <pt x="221" y="39" on="1"/>
        <pt x="266" y="44" on="0"/>
        <pt x="329" y="98" on="0"/>
      </contour>
      <contour>
        <pt x="111" y="436" on="1"/>
        <pt x="111" y="398" on="0"/>
        <pt x="164" y="349" on="0"/>
        <pt x="200" y="332" on="1"/>
        <pt x="216" y="537" on="1"/>
        <pt x="162" y="532" on="0"/>
        <pt x="111" y="474" on="0"/>
      </contour>
    </TTGlyph>
    <TTGlyph name="dollar.lin" xMin="26" yMin="-95" xMax="460" yMax="825">
      <contour>
        <pt x="317" y="820" on="1"/>
        <pt x="311" y="744" on="1"/>
        <pt x="349" y="739" on="0"/>
        <pt x="417" y="714" on="0"/>
        <pt x="444" y="696" on="1"/>
        <pt x="418" y="650" on="1"/>
        <pt x="395" y="666" on="0"/>
        <pt x="339" y="688" on="0"/>
        <pt x="307" y="693" on="1"/>
        <pt x="282" y="392" on="1"/>
        <pt x="325" y="372" on="0"/>
        <pt x="392" y="331" on="0"/>
        <pt x="437" y="283" on="0"/>
        <pt x="460" y="225" on="0"/>
        <pt x="460" y="188" on="1"/>
        <pt x="460" y="145" on="0"/>
        <pt x="427" y="73" on="0"/>
        <pt x="370" y="20" on="0"/>
        <pt x="293" y="-10" on="0"/>
        <pt x="249" y="-12" on="1"/>
        <pt x="242" y="-95" on="1"/>
        <pt x="194" y="-91" on="1"/>
        <pt x="200" y="-10" on="1"/>
        <pt x="152" y="-5" on="0"/>
        <pt x="67" y="29" on="0"/>
        <pt x="26" y="56" on="1"/>
        <pt x="52" y="103" on="1"/>
        <pt x="88" y="79" on="0"/>
        <pt x="164" y="47" on="0"/>
        <pt x="204" y="41" on="1"/>
        <pt x="230" y="358" on="1"/>
        <pt x="190" y="376" on="0"/>
        <pt x="127" y="415" on="0"/>
        <pt x="83" y="462" on="0"/>
        <pt x="60" y="520" on="0"/>
        <pt x="60" y="557" on="1"/>
        <pt x="60" y="594" on="0"/>
        <pt x="89" y="660" on="0"/>
        <pt x="143" y="711" on="0"/>
        <pt x="217" y="742" on="0"/>
        <pt x="262" y="745" on="1"/>
        <pt x="269" y="825" on="1"/>
      </contour>
      <contour>
        <pt x="405" y="182" on="1"/>
        <pt x="405" y="238" on="0"/>
        <pt x="338" y="307" on="0"/>
        <pt x="277" y="337" on="1"/>
        <pt x="253" y="39" on="1"/>
        <pt x="287" y="41" on="0"/>
        <pt x="343" y="64" on="0"/>
        <pt x="383" y="102" on="0"/>
        <pt x="405" y="153" on="0"/>
      </contour>
      <contour>
        <pt x="114" y="561" on="1"/>
        <pt x="114" y="508" on="0"/>
        <pt x="180" y="441" on="0"/>
        <pt x="235" y="414" on="1"/>
        <pt x="258" y="695" on="1"/>
        <pt x="192" y="690" on="0"/>
        <pt x="114" y="614" on="0"/>
      </contour>
    </TTGlyph>
    <TTGlyph name="dotaccent" xMin="178" yMin="501" xMax="263" yMax="586">
      <contour>
        <pt x="178" y="543" on="1"/>
        <pt x="178" y="560" on="0"/>
        <pt x="203" y="586" on="0"/>
        <pt x="220" y="586" on="1"/>
        <pt x="238" y="586" on="0"/>
        <pt x="263" y="560" on="0"/>
        <pt x="263" y="543" on="1"/>
        <pt x="263" y="526" on="0"/>
        <pt x="238" y="501" on="0"/>
        <pt x="220" y="501" on="1"/>
        <pt x="203" y="501" on="0"/>
        <pt x="178" y="526" on="0"/>
      </contour>
    </TTGlyph>
    <TTGlyph name="dotlessi" xMin="68" yMin="0" xMax="124" yMax="418">
      <contour>
        <pt x="68" y="0" on="1"/>
        <pt x="68" y="418" on="1"/>
        <pt x="124" y="418" on="1"/>
        <pt x="124" y="0" on="1"/>
      </contour>
    </TTGlyph>
    <TTGlyph name="e" xMin="42" yMin="-8" xMax="422" yMax="426">
      <contour>
        <pt x="422" y="224" on="1"/>
        <pt x="422" y="217" on="0"/>
        <pt x="422" y="205" on="0"/>
        <pt x="420" y="197" on="1"/>
        <pt x="97" y="197" on="1"/>
        <pt x="99" y="164" on="0"/>
        <pt x="120" y="107" on="0"/>
        <pt x="162" y="65" on="0"/>
        <pt x="225" y="41" on="0"/>
        <pt x="268" y="41" on="1"/>
        <pt x="297" y="41" on="0"/>
        <pt x="358" y="55" on="0"/>
        <pt x="387" y="66" on="1"/>
        <pt x="389" y="53" on="0"/>
        <pt x="392" y="42" on="1"/>
        <pt x="394" y="33" on="0"/>
        <pt x="398" y="18" on="0"/>
        <pt x="398" y="19" on="1"/>
        <pt x="366" y="7" on="0"/>
        <pt x="296" y="-8" on="0"/>
        <pt x="265" y="-8" on="1"/>
        <pt x="209" y="-8" on="0"/>
        <pt x="126" y="25" on="0"/>
        <pt x="70" y="84" on="0"/>
        <pt x="42" y="163" on="0"/>
        <pt x="42" y="208" on="1"/>
        <pt x="42" y="252" on="0"/>
        <pt x="69" y="331" on="0"/>
        <pt x="121" y="391" on="0"/>
        <pt x="194" y="426" on="0"/>
        <pt x="241" y="426" on="1"/>
        <pt x="285" y="426" on="0"/>
        <pt x="353" y="395" on="0"/>
        <pt x="399" y="341" on="0"/>
        <pt x="422" y="267" on="0"/>
      </contour>
      <contour>
        <pt x="369" y="241" on="1"/>
        <pt x="367" y="270" on="0"/>
        <pt x="350" y="320" on="0"/>
        <pt x="317" y="357" on="0"/>
        <pt x="269" y="378" on="0"/>
        <pt x="237" y="378" on="1"/>
        <pt x="177" y="378" on="0"/>
        <pt x="106" y="303" on="0"/>
        <pt x="99" y="241" on="1"/>
      </contour>
    </TTGlyph>
    <TTGlyph name="eacute" xMin="42" yMin="-8" xMax="422" yMax="629">
      <component glyphName="acute" x="83" y="0" flags="0x4"/>
      <component glyphName="e" x="0" y="0" flags="0x4"/>
    </TTGlyph>
    <TTGlyph name="ebreve" xMin="42" yMin="-8" xMax="422" yMax="610">
      <component glyphName="e" x="0" y="0" flags="0x204"/>
      <component glyphName="breve" x="20" y="0" flags="0x4"/>
    </TTGlyph>
    <TTGlyph name="ecaron" xMin="42" yMin="-8" xMax="422" yMax="631">
      <component glyphName="caron" x="20" y="0" flags="0x4"/>
      <component glyphName="e" x="0" y="0" flags="0x4"/>
    </TTGlyph>
    <TTGlyph name="ecircumflex" xMin="42" yMin="-8" xMax="422" yMax="636">
      <component glyphName="circumflex" x="18" y="0" flags="0x4"/>
      <component glyphName="e" x="0" y="0" flags="0x4"/>
    </TTGlyph>
    <TTGlyph name="edieresis" xMin="42" yMin="-8" xMax="422" yMax="586">
      <component glyphName="dieresis" x="19" y="0" flags="0x4"/>
      <component glyphName="e" x="0" y="0" flags="0x4"/>
    </TTGlyph>
    <TTGlyph name="edotaccent" xMin="42" yMin="-8" xMax="422" yMax="586">
      <component glyphName="e" x="0" y="0" flags="0x204"/>
      <component glyphName="dotaccent" x="19" y="0" flags="0x4"/>
    </TTGlyph>
    <TTGlyph name="egrave" xMin="42" yMin="-8" xMax="422" yMax="628">
      <component glyphName="e" x="0" y="0" flags="0x204"/>
      <component glyphName="grave" x="-51" y="0" flags="0x4"/>
    </TTGlyph>
    <TTGlyph name="eight" xMin="56" yMin="-9" xMax="408" yMax="586">
      <contour>
        <pt x="408" y="154" on="1"/>
        <pt x="408" y="120" on="0"/>
        <pt x="382" y="60" on="0"/>
        <pt x="335" y="16" on="0"/>
        <pt x="270" y="-9" on="0"/>
        <pt x="231" y="-9" on="1"/>
        <pt x="192" y="-9" on="0"/>
        <pt x="128" y="16" on="0"/>
        <pt x="81" y="60" on="0"/>
        <pt x="56" y="120" on="0"/>
        <pt x="56" y="154" on="1"/>
        <pt x="56" y="202" on="0"/>
        <pt x="110" y="277" on="0"/>
        <pt x="155" y="295" on="1"/>
        <pt x="113" y="315" on="0"/>
        <pt x="67" y="385" on="0"/>
        <pt x="67" y="430" on="1"/>
        <pt x="67" y="463" on="0"/>
        <pt x="91" y="520" on="0"/>
        <pt x="135" y="562" on="0"/>
        <pt x="195" y="586" on="0"/>
        <pt x="231" y="586" on="1"/>
        <pt x="268" y="586" on="0"/>
        <pt x="328" y="562" on="0"/>
        <pt x="372" y="520" on="0"/>
        <pt x="396" y="463" on="0"/>
        <pt x="396" y="430" on="1"/>
        <pt x="396" y="385" on="0"/>
        <pt x="350" y="315" on="0"/>
        <pt x="308" y="295" on="1"/>
        <pt x="353" y="277" on="0"/>
        <pt x="408" y="202" on="0"/>
      </contour>
      <contour>
        <pt x="343" y="429" on="1"/>
        <pt x="343" y="476" on="0"/>
        <pt x="282" y="540" on="0"/>
        <pt x="231" y="540" on="1"/>
        <pt x="181" y="540" on="0"/>
        <pt x="120" y="475" on="0"/>
        <pt x="120" y="429" on="1"/>
        <pt x="120" y="383" on="0"/>
        <pt x="181" y="317" on="0"/>
        <pt x="231" y="317" on="1"/>
        <pt x="256" y="317" on="0"/>
        <pt x="298" y="335" on="0"/>
        <pt x="327" y="365" on="0"/>
        <pt x="343" y="406" on="0"/>
      </contour>
      <contour>
        <pt x="353" y="155" on="1"/>
        <pt x="353" y="180" on="0"/>
        <pt x="335" y="222" on="0"/>
        <pt x="302" y="254" on="0"/>
        <pt x="257" y="272" on="0"/>
        <pt x="231" y="272" on="1"/>
        <pt x="205" y="272" on="0"/>
        <pt x="161" y="254" on="0"/>
        <pt x="129" y="222" on="0"/>
        <pt x="111" y="180" on="0"/>
        <pt x="111" y="155" on="1"/>
        <pt x="111" y="129" on="0"/>
        <pt x="129" y="86" on="0"/>
        <pt x="161" y="55" on="0"/>
        <pt x="205" y="37" on="0"/>
        <pt x="231" y="37" on="1"/>
        <pt x="257" y="37" on="0"/>
        <pt x="302" y="55" on="0"/>
        <pt x="335" y="86" on="0"/>
        <pt x="353" y="129" on="0"/>
      </contour>
    </TTGlyph>
    <TTGlyph name="eight.den" xMin="31" yMin="-8" xMax="320" yMax="387">
      <contour>
        <pt x="175" y="-8" on="1"/>
        <pt x="109" y="-8" on="0"/>
        <pt x="31" y="53" on="0"/>
        <pt x="31" y="100" on="1"/>
        <pt x="31" y="131" on="0"/>
        <pt x="68" y="180" on="0"/>
        <pt x="103" y="193" on="1"/>
        <pt x="73" y="205" on="0"/>
        <pt x="39" y="254" on="0"/>
        <pt x="39" y="283" on="1"/>
        <pt x="39" y="328" on="0"/>
        <pt x="114" y="387" on="0"/>
        <pt x="175" y="387" on="1"/>
        <pt x="237" y="387" on="0"/>
        <pt x="312" y="328" on="0"/>
        <pt x="312" y="283" on="1"/>
        <pt x="312" y="254" on="0"/>
        <pt x="278" y="205" on="0"/>
        <pt x="247" y="193" on="1"/>
        <pt x="283" y="180" on="0"/>
        <pt x="320" y="131" on="0"/>
        <pt x="320" y="100" on="1"/>
        <pt x="320" y="53" on="0"/>
        <pt x="241" y="-8" on="0"/>
      </contour>
      <contour>
        <pt x="175" y="173" on="1"/>
        <pt x="136" y="173" on="0"/>
        <pt x="82" y="136" on="0"/>
        <pt x="82" y="104" on="1"/>
        <pt x="82" y="72" on="0"/>
        <pt x="135" y="35" on="0"/>
        <pt x="175" y="35" on="1"/>
        <pt x="216" y="35" on="0"/>
        <pt x="269" y="72" on="0"/>
        <pt x="269" y="104" on="1"/>
        <pt x="269" y="136" on="0"/>
        <pt x="214" y="173" on="0"/>
      </contour>
      <contour>
        <pt x="176" y="344" on="1"/>
        <pt x="135" y="344" on="0"/>
        <pt x="88" y="309" on="0"/>
        <pt x="88" y="280" on="1"/>
        <pt x="88" y="250" on="0"/>
        <pt x="137" y="213" on="0"/>
        <pt x="175" y="213" on="1"/>
        <pt x="214" y="213" on="0"/>
        <pt x="262" y="250" on="0"/>
        <pt x="262" y="280" on="1"/>
        <pt x="262" y="309" on="0"/>
        <pt x="215" y="344" on="0"/>
      </contour>
    </TTGlyph>
    <TTGlyph name="eight.lin" xMin="60" yMin="-10" xMax="504" yMax="744">
      <contour>
        <pt x="504" y="193" on="1"/>
        <pt x="504" y="150" on="0"/>
        <pt x="471" y="76" on="0"/>
        <pt x="412" y="21" on="0"/>
        <pt x="331" y="-10" on="0"/>
        <pt x="282" y="-10" on="1"/>
        <pt x="233" y="-10" on="0"/>
        <pt x="152" y="21" on="0"/>
        <pt x="93" y="76" on="0"/>
        <pt x="60" y="150" on="0"/>
        <pt x="60" y="193" on="1"/>
        <pt x="60" y="254" on="0"/>
        <pt x="130" y="349" on="0"/>
        <pt x="187" y="372" on="1"/>
        <pt x="134" y="396" on="0"/>
        <pt x="74" y="489" on="0"/>
        <pt x="74" y="546" on="1"/>
        <pt x="74" y="588" on="0"/>
        <pt x="105" y="660" on="0"/>
        <pt x="160" y="714" on="0"/>
        <pt x="236" y="744" on="0"/>
        <pt x="282" y="744" on="1"/>
        <pt x="328" y="744" on="0"/>
        <pt x="404" y="714" on="0"/>
        <pt x="459" y="662" on="0"/>
        <pt x="490" y="589" on="0"/>
        <pt x="490" y="547" on="1"/>
        <pt x="490" y="490" on="0"/>
        <pt x="430" y="396" on="0"/>
        <pt x="376" y="372" on="1"/>
        <pt x="434" y="349" on="0"/>
        <pt x="504" y="254" on="0"/>
      </contour>
      <contour>
        <pt x="434" y="545" on="1"/>
        <pt x="434" y="577" on="0"/>
        <pt x="413" y="632" on="0"/>
        <pt x="373" y="673" on="0"/>
        <pt x="316" y="696" on="0"/>
        <pt x="281" y="696" on="1"/>
        <pt x="246" y="696" on="0"/>
        <pt x="189" y="673" on="0"/>
        <pt x="150" y="632" on="0"/>
        <pt x="129" y="577" on="0"/>
        <pt x="129" y="545" on="1"/>
        <pt x="129" y="514" on="0"/>
        <pt x="150" y="459" on="0"/>
        <pt x="190" y="419" on="0"/>
        <pt x="247" y="395" on="0"/>
        <pt x="282" y="395" on="1"/>
        <pt x="317" y="395" on="0"/>
        <pt x="373" y="419" on="0"/>
        <pt x="413" y="459" on="0"/>
        <pt x="434" y="514" on="0"/>
      </contour>
      <contour>
        <pt x="446" y="196" on="1"/>
        <pt x="446" y="229" on="0"/>
        <pt x="421" y="286" on="0"/>
        <pt x="378" y="328" on="0"/>
        <pt x="317" y="351" on="0"/>
        <pt x="281" y="351" on="1"/>
        <pt x="245" y="351" on="0"/>
        <pt x="186" y="328" on="0"/>
        <pt x="142" y="286" on="0"/>
        <pt x="118" y="229" on="0"/>
        <pt x="118" y="196" on="1"/>
        <pt x="118" y="162" on="0"/>
        <pt x="143" y="104" on="0"/>
        <pt x="186" y="62" on="0"/>
        <pt x="246" y="39" on="0"/>
        <pt x="282" y="39" on="1"/>
        <pt x="318" y="39" on="0"/>
        <pt x="378" y="62" on="0"/>
        <pt x="422" y="104" on="0"/>
        <pt x="446" y="162" on="0"/>
      </contour>
    </TTGlyph>
    <TTGlyph name="eight.num" xMin="31" yMin="347" xMax="320" yMax="741">
      <contour>
        <pt x="175" y="347" on="1"/>
        <pt x="109" y="347" on="0"/>
        <pt x="31" y="407" on="0"/>
        <pt x="31" y="455" on="1"/>
        <pt x="31" y="486" on="0"/>
        <pt x="68" y="534" on="0"/>
        <pt x="103" y="547" on="1"/>
        <pt x="73" y="560" on="0"/>
        <pt x="39" y="608" on="0"/>
        <pt x="39" y="637" on="1"/>
        <pt x="39" y="683" on="0"/>
        <pt x="114" y="741" on="0"/>
        <pt x="175" y="741" on="1"/>
        <pt x="237" y="741" on="0"/>
        <pt x="312" y="683" on="0"/>
        <pt x="312" y="637" on="1"/>
        <pt x="312" y="608" on="0"/>
        <pt x="278" y="560" on="0"/>
        <pt x="247" y="547" on="1"/>
        <pt x="283" y="534" on="0"/>
        <pt x="320" y="486" on="0"/>
        <pt x="320" y="455" on="1"/>
        <pt x="320" y="407" on="0"/>
        <pt x="241" y="347" on="0"/>
      </contour>
      <contour>
        <pt x="175" y="528" on="1"/>
        <pt x="136" y="528" on="0"/>
        <pt x="82" y="490" on="0"/>
        <pt x="82" y="458" on="1"/>
        <pt x="82" y="426" on="0"/>
        <pt x="135" y="389" on="0"/>
        <pt x="175" y="389" on="1"/>
        <pt x="216" y="389" on="0"/>
        <pt x="269" y="426" on="0"/>
        <pt x="269" y="458" on="1"/>
        <pt x="269" y="490" on="0"/>
        <pt x="214" y="528" on="0"/>
      </contour>
      <contour>
        <pt x="176" y="699" on="1"/>
        <pt x="135" y="699" on="0"/>
        <pt x="88" y="663" on="0"/>
        <pt x="88" y="634" on="1"/>
        <pt x="88" y="605" on="0"/>
        <pt x="137" y="567" on="0"/>
        <pt x="175" y="567" on="1"/>
        <pt x="214" y="567" on="0"/>
        <pt x="262" y="605" on="0"/>
        <pt x="262" y="634" on="1"/>
        <pt x="262" y="663" on="0"/>
        <pt x="215" y="699" on="0"/>
      </contour>
    </TTGlyph>
    <TTGlyph name="elevensixteenths" xMin="15" yMin="-15" xMax="1255" yMax="748">
      <component glyphName="one.den" x="658" y="0" flags="0x4"/>
      <component glyphName="six.den" x="932" y="0" flags="0x4"/>
      <component glyphName="one.num" x="-14" y="0" flags="0x4"/>
      <component glyphName="one.num" x="259" y="0" flags="0x4"/>
      <component glyphName="fraction" x="533" y="0" flags="0x4"/>
    </TTGlyph>
    <TTGlyph name="ellipsis" xMin="59" yMin="-8" xMax="547" yMax="79">
      <contour>
        <pt x="59" y="36" on="1"/>
        <pt x="59" y="54" on="0"/>
        <pt x="85" y="79" on="0"/>
        <pt x="103" y="79" on="1"/>
        <pt x="121" y="79" on="0"/>
        <pt x="147" y="54" on="0"/>
        <pt x="147" y="36" on="1"/>
        <pt x="147" y="17" on="0"/>
        <pt x="121" y="-8" on="0"/>
        <pt x="103" y="-8" on="1"/>
        <pt x="85" y="-8" on="0"/>
        <pt x="59" y="17" on="0"/>
      </contour>
      <contour>
        <pt x="259" y="36" on="1"/>
        <pt x="259" y="54" on="0"/>
        <pt x="285" y="79" on="0"/>
        <pt x="303" y="79" on="1"/>
        <pt x="321" y="79" on="0"/>
        <pt x="347" y="54" on="0"/>
        <pt x="347" y="36" on="1"/>
        <pt x="347" y="17" on="0"/>
        <pt x="321" y="-8" on="0"/>
        <pt x="303" y="-8" on="1"/>
        <pt x="285" y="-8" on="0"/>
        <pt x="259" y="17" on="0"/>
      </contour>
      <contour>
        <pt x="459" y="36" on="1"/>
        <pt x="459" y="54" on="0"/>
        <pt x="485" y="79" on="0"/>
        <pt x="503" y="79" on="1"/>
        <pt x="521" y="79" on="0"/>
        <pt x="547" y="54" on="0"/>
        <pt x="547" y="36" on="1"/>
        <pt x="547" y="17" on="0"/>
        <pt x="521" y="-8" on="0"/>
        <pt x="503" y="-8" on="1"/>
        <pt x="485" y="-8" on="0"/>
        <pt x="459" y="17" on="0"/>
      </contour>
    </TTGlyph>
    <TTGlyph name="emacron" xMin="42" yMin="-8" xMax="422" yMax="560">
      <component glyphName="e" x="0" y="0" flags="0x204"/>
      <component glyphName="macron" x="20" y="0" flags="0x4"/>
    </TTGlyph>
    <TTGlyph name="emdash" xMin="50" yMin="218" xMax="700" yMax="267">
      <contour>
        <pt x="50" y="218" on="1"/>
        <pt x="50" y="267" on="1"/>
        <pt x="700" y="267" on="1"/>
        <pt x="700" y="218" on="1"/>
      </contour>
    </TTGlyph>
    <TTGlyph name="emdash.cap" xMin="50" yMin="347" xMax="700" yMax="396">
      <component glyphName="emdash" x="0" y="129" flags="0x204"/>
    </TTGlyph>
    <TTGlyph name="endash" xMin="50" yMin="218" xMax="450" yMax="267">
      <contour>
        <pt x="50" y="218" on="1"/>
        <pt x="50" y="267" on="1"/>
        <pt x="450" y="267" on="1"/>
        <pt x="450" y="218" on="1"/>
      </contour>
    </TTGlyph>
    <TTGlyph name="endash.cap" xMin="50" yMin="347" xMax="450" yMax="396">
      <component glyphName="endash" x="0" y="129" flags="0x204"/>
    </TTGlyph>
    <TTGlyph name="eogonek" xMin="42" yMin="-220" xMax="422" yMax="426">
      <contour>
        <pt x="422" y="224" on="1"/>
        <pt x="422" y="217" on="0"/>
        <pt x="422" y="205" on="0"/>
        <pt x="420" y="197" on="1"/>
        <pt x="97" y="197" on="1"/>
        <pt x="99" y="164" on="0"/>
        <pt x="120" y="107" on="0"/>
        <pt x="162" y="65" on="0"/>
        <pt x="225" y="41" on="0"/>
        <pt x="268" y="41" on="1"/>
        <pt x="297" y="41" on="0"/>
        <pt x="358" y="55" on="0"/>
        <pt x="387" y="66" on="1"/>
        <pt x="398" y="20" on="1"/>
        <pt x="353" y="-19" on="0"/>
        <pt x="293" y="-102" on="0"/>
        <pt x="293" y="-136" on="1"/>
        <pt x="293" y="-157" on="0"/>
        <pt x="314" y="-180" on="0"/>
        <pt x="331" y="-180" on="1"/>
        <pt x="348" y="-180" on="0"/>
        <pt x="374" y="-163" on="0"/>
        <pt x="387" y="-146" on="1"/>
        <pt x="411" y="-169" on="1"/>
        <pt x="394" y="-192" on="0"/>
        <pt x="353" y="-219" on="0"/>
        <pt x="324" y="-219" on="1"/>
        <pt x="289" y="-220" on="0"/>
        <pt x="246" y="-178" on="0"/>
        <pt x="246" y="-143" on="1"/>
        <pt x="246" y="-110" on="0"/>
        <pt x="286" y="-41" on="0"/>
        <pt x="328" y="-1" on="1"/>
        <pt x="311" y="-4" on="0"/>
        <pt x="279" y="-8" on="0"/>
        <pt x="265" y="-8" on="1"/>
        <pt x="209" y="-8" on="0"/>
        <pt x="126" y="25" on="0"/>
        <pt x="70" y="84" on="0"/>
        <pt x="42" y="163" on="0"/>
        <pt x="42" y="208" on="1"/>
        <pt x="42" y="252" on="0"/>
        <pt x="69" y="331" on="0"/>
        <pt x="121" y="391" on="0"/>
        <pt x="194" y="426" on="0"/>
        <pt x="241" y="426" on="1"/>
        <pt x="285" y="426" on="0"/>
        <pt x="353" y="395" on="0"/>
        <pt x="399" y="341" on="0"/>
        <pt x="422" y="267" on="0"/>
      </contour>
      <contour>
        <pt x="369" y="241" on="1"/>
        <pt x="367" y="270" on="0"/>
        <pt x="350" y="320" on="0"/>
        <pt x="317" y="357" on="0"/>
        <pt x="269" y="378" on="0"/>
        <pt x="237" y="378" on="1"/>
        <pt x="177" y="378" on="0"/>
        <pt x="106" y="303" on="0"/>
        <pt x="99" y="241" on="1"/>
      </contour>
    </TTGlyph>
    <TTGlyph name="equal" xMin="60" yMin="185" xMax="343" yMax="376">
      <contour>
        <pt x="60" y="326" on="1"/>
        <pt x="60" y="376" on="1"/>
        <pt x="343" y="376" on="1"/>
        <pt x="343" y="326" on="1"/>
      </contour>
      <contour>
        <pt x="60" y="185" on="1"/>
        <pt x="60" y="234" on="1"/>
        <pt x="343" y="234" on="1"/>
        <pt x="343" y="185" on="1"/>
      </contour>
    </TTGlyph>
    <TTGlyph name="equal.lin" xMin="60" yMin="276" xMax="343" yMax="467">
      <component glyphName="equal" x="0" y="91" flags="0x204"/>
    </TTGlyph>
    <TTGlyph name="eth" xMin="43" yMin="-8" xMax="457" yMax="736">
      <contour>
        <pt x="114" y="550" on="1"/>
        <pt x="196" y="623" on="1"/>
        <pt x="170" y="643" on="0"/>
        <pt x="112" y="678" on="0"/>
        <pt x="80" y="693" on="1"/>
        <pt x="102" y="736" on="1"/>
        <pt x="137" y="719" on="0"/>
        <pt x="203" y="680" on="0"/>
        <pt x="234" y="657" on="1"/>
        <pt x="304" y="719" on="1"/>
        <pt x="334" y="684" on="1"/>
        <pt x="270" y="628" on="1"/>
        <pt x="311" y="592" on="0"/>
        <pt x="380" y="506" on="0"/>
        <pt x="429" y="405" on="0"/>
        <pt x="457" y="289" on="0"/>
        <pt x="457" y="224" on="1"/>
        <pt x="457" y="172" on="0"/>
        <pt x="426" y="87" on="0"/>
        <pt x="371" y="26" on="0"/>
        <pt x="294" y="-8" on="0"/>
        <pt x="248" y="-8" on="1"/>
        <pt x="199" y="-8" on="0"/>
        <pt x="123" y="28" on="0"/>
        <pt x="70" y="89" on="0"/>
        <pt x="43" y="170" on="0"/>
        <pt x="43" y="216" on="1"/>
        <pt x="43" y="259" on="0"/>
        <pt x="72" y="336" on="0"/>
        <pt x="123" y="394" on="0"/>
        <pt x="194" y="427" on="0"/>
        <pt x="236" y="427" on="1"/>
        <pt x="286" y="427" on="0"/>
        <pt x="361" y="388" on="0"/>
        <pt x="387" y="354" on="1"/>
        <pt x="371" y="419" on="0"/>
        <pt x="292" y="542" on="0"/>
        <pt x="232" y="594" on="1"/>
        <pt x="143" y="516" on="1"/>
      </contour>
      <contour>
        <pt x="402" y="211" on="1"/>
        <pt x="402" y="247" on="0"/>
        <pt x="381" y="308" on="0"/>
        <pt x="340" y="353" on="0"/>
        <pt x="282" y="379" on="0"/>
        <pt x="245" y="379" on="1"/>
        <pt x="212" y="379" on="0"/>
        <pt x="157" y="354" on="0"/>
        <pt x="119" y="309" on="0"/>
        <pt x="98" y="249" on="0"/>
        <pt x="98" y="213" on="1"/>
        <pt x="98" y="178" on="0"/>
        <pt x="119" y="115" on="0"/>
        <pt x="158" y="67" on="0"/>
        <pt x="214" y="39" on="0"/>
        <pt x="249" y="39" on="1"/>
        <pt x="284" y="39" on="0"/>
        <pt x="340" y="66" on="0"/>
        <pt x="380" y="113" on="0"/>
        <pt x="402" y="175" on="0"/>
      </contour>
    </TTGlyph>
    <TTGlyph name="exclam" xMin="58" yMin="-8" xMax="146" yMax="733">
      <contour>
        <pt x="123" y="182" on="1"/>
        <pt x="80" y="182" on="1"/>
        <pt x="72" y="733" on="1"/>
        <pt x="132" y="733" on="1"/>
      </contour>
      <contour>
        <pt x="146" y="36" on="1"/>
        <pt x="146" y="17" on="0"/>
        <pt x="120" y="-8" on="0"/>
        <pt x="102" y="-8" on="1"/>
        <pt x="84" y="-8" on="0"/>
        <pt x="58" y="17" on="0"/>
        <pt x="58" y="36" on="1"/>
        <pt x="58" y="54" on="0"/>
        <pt x="84" y="79" on="0"/>
        <pt x="102" y="79" on="1"/>
        <pt x="120" y="79" on="0"/>
        <pt x="146" y="54" on="0"/>
      </contour>
    </TTGlyph>
    <TTGlyph name="exclamdown" xMin="58" yMin="1" xMax="145" yMax="742">
      <contour>
        <pt x="58" y="698" on="1"/>
        <pt x="58" y="717" on="0"/>
        <pt x="83" y="742" on="0"/>
        <pt x="102" y="742" on="1"/>
        <pt x="120" y="742" on="0"/>
        <pt x="145" y="717" on="0"/>
        <pt x="145" y="698" on="1"/>
        <pt x="145" y="680" on="0"/>
        <pt x="120" y="655" on="0"/>
        <pt x="102" y="655" on="1"/>
        <pt x="83" y="655" on="0"/>
        <pt x="58" y="680" on="0"/>
      </contour>
      <contour>
        <pt x="80" y="552" on="1"/>
        <pt x="123" y="552" on="1"/>
        <pt x="132" y="1" on="1"/>
        <pt x="72" y="1" on="1"/>
      </contour>
    </TTGlyph>
    <TTGlyph name="f" xMin="24" yMin="0" xMax="307" yMax="740">
      <contour>
        <pt x="297" y="682" on="1"/>
        <pt x="286" y="686" on="0"/>
        <pt x="258" y="690" on="0"/>
        <pt x="247" y="690" on="1"/>
        <pt x="197" y="690" on="0"/>
        <pt x="149" y="631" on="0"/>
        <pt x="149" y="562" on="1"/>
        <pt x="149" y="418" on="1"/>
        <pt x="273" y="418" on="1"/>
        <pt x="273" y="369" on="1"/>
        <pt x="149" y="369" on="1"/>
        <pt x="149" y="0" on="1"/>
        <pt x="94" y="0" on="1"/>
        <pt x="94" y="369" on="1"/>
        <pt x="24" y="369" on="1"/>
        <pt x="24" y="382" on="1"/>
        <pt x="94" y="421" on="1"/>
        <pt x="94" y="555" on="1"/>
        <pt x="94" y="648" on="0"/>
        <pt x="171" y="740" on="0"/>
        <pt x="242" y="740" on="1"/>
        <pt x="259" y="740" on="0"/>
        <pt x="292" y="736" on="0"/>
        <pt x="307" y="730" on="1"/>
      </contour>
    </TTGlyph>
    <TTGlyph name="f_f" xMin="24" yMin="0" xMax="583" yMax="740">
      <contour>
        <pt x="297" y="682" on="1"/>
        <pt x="286" y="686" on="0"/>
        <pt x="258" y="690" on="0"/>
        <pt x="247" y="690" on="1"/>
        <pt x="197" y="690" on="0"/>
        <pt x="149" y="631" on="0"/>
        <pt x="149" y="562" on="1"/>
        <pt x="149" y="418" on="1"/>
        <pt x="273" y="418" on="1"/>
        <pt x="273" y="369" on="1"/>
        <pt x="149" y="369" on="1"/>
        <pt x="149" y="0" on="1"/>
        <pt x="94" y="0" on="1"/>
        <pt x="94" y="369" on="1"/>
        <pt x="24" y="369" on="1"/>
        <pt x="24" y="382" on="1"/>
        <pt x="94" y="421" on="1"/>
        <pt x="94" y="555" on="1"/>
        <pt x="94" y="648" on="0"/>
        <pt x="171" y="740" on="0"/>
        <pt x="242" y="740" on="1"/>
        <pt x="259" y="740" on="0"/>
        <pt x="292" y="736" on="0"/>
        <pt x="307" y="730" on="1"/>
      </contour>
      <contour>
        <pt x="573" y="682" on="1"/>
        <pt x="562" y="686" on="0"/>
        <pt x="535" y="690" on="0"/>
        <pt x="524" y="690" on="1"/>
        <pt x="473" y="690" on="0"/>
        <pt x="425" y="631" on="0"/>
        <pt x="425" y="562" on="1"/>
        <pt x="425" y="418" on="1"/>
        <pt x="549" y="418" on="1"/>
        <pt x="549" y="369" on="1"/>
        <pt x="425" y="369" on="1"/>
        <pt x="425" y="0" on="1"/>
        <pt x="370" y="0" on="1"/>
        <pt x="370" y="369" on="1"/>
        <pt x="301" y="369" on="1"/>
        <pt x="301" y="382" on="1"/>
        <pt x="370" y="421" on="1"/>
        <pt x="370" y="555" on="1"/>
        <pt x="370" y="648" on="0"/>
        <pt x="447" y="740" on="0"/>
        <pt x="519" y="740" on="1"/>
        <pt x="536" y="740" on="0"/>
        <pt x="568" y="736" on="0"/>
        <pt x="583" y="730" on="1"/>
      </contour>
    </TTGlyph>
    <TTGlyph name="f_f_i" xMin="24" yMin="0" xMax="689" yMax="740">
      <contour>
        <pt x="297" y="682" on="1"/>
        <pt x="286" y="686" on="0"/>
        <pt x="258" y="690" on="0"/>
        <pt x="247" y="690" on="1"/>
        <pt x="197" y="690" on="0"/>
        <pt x="149" y="631" on="0"/>
        <pt x="149" y="562" on="1"/>
        <pt x="149" y="418" on="1"/>
        <pt x="273" y="418" on="1"/>
        <pt x="273" y="369" on="1"/>
        <pt x="149" y="369" on="1"/>
        <pt x="149" y="0" on="1"/>
        <pt x="94" y="0" on="1"/>
        <pt x="94" y="369" on="1"/>
        <pt x="24" y="369" on="1"/>
        <pt x="24" y="382" on="1"/>
        <pt x="94" y="421" on="1"/>
        <pt x="94" y="555" on="1"/>
        <pt x="94" y="648" on="0"/>
        <pt x="171" y="740" on="0"/>
        <pt x="242" y="740" on="1"/>
        <pt x="259" y="740" on="0"/>
        <pt x="292" y="736" on="0"/>
        <pt x="307" y="730" on="1"/>
      </contour>
      <contour>
        <pt x="573" y="682" on="1"/>
        <pt x="562" y="686" on="0"/>
        <pt x="535" y="690" on="0"/>
        <pt x="524" y="690" on="1"/>
        <pt x="473" y="690" on="0"/>
        <pt x="425" y="631" on="0"/>
        <pt x="425" y="562" on="1"/>
        <pt x="425" y="418" on="1"/>
        <pt x="549" y="418" on="1"/>
        <pt x="549" y="369" on="1"/>
        <pt x="425" y="369" on="1"/>
        <pt x="425" y="0" on="1"/>
        <pt x="370" y="0" on="1"/>
        <pt x="370" y="369" on="1"/>
        <pt x="301" y="369" on="1"/>
        <pt x="301" y="382" on="1"/>
        <pt x="370" y="421" on="1"/>
        <pt x="370" y="555" on="1"/>
        <pt x="370" y="648" on="0"/>
        <pt x="447" y="740" on="0"/>
        <pt x="519" y="740" on="1"/>
        <pt x="536" y="740" on="0"/>
        <pt x="568" y="736" on="0"/>
        <pt x="583" y="730" on="1"/>
      </contour>
      <contour>
        <pt x="689" y="573" on="1"/>
        <pt x="689" y="556" on="0"/>
        <pt x="666" y="533" on="0"/>
        <pt x="649" y="533" on="1"/>
        <pt x="632" y="533" on="0"/>
        <pt x="609" y="556" on="0"/>
        <pt x="609" y="573" on="1"/>
        <pt x="609" y="590" on="0"/>
        <pt x="632" y="614" on="0"/>
        <pt x="649" y="614" on="1"/>
        <pt x="666" y="614" on="0"/>
        <pt x="689" y="590" on="0"/>
      </contour>
      <contour>
        <pt x="621" y="0" on="1"/>
        <pt x="621" y="418" on="1"/>
        <pt x="677" y="418" on="1"/>
        <pt x="677" y="0" on="1"/>
      </contour>
    </TTGlyph>
    <TTGlyph name="f_f_l" xMin="24" yMin="0" xMax="677" yMax="740">
      <contour>
        <pt x="297" y="682" on="1"/>
        <pt x="286" y="686" on="0"/>
        <pt x="258" y="690" on="0"/>
        <pt x="247" y="690" on="1"/>
        <pt x="197" y="690" on="0"/>
        <pt x="149" y="631" on="0"/>
        <pt x="149" y="562" on="1"/>
        <pt x="149" y="418" on="1"/>
        <pt x="273" y="418" on="1"/>
        <pt x="273" y="369" on="1"/>
        <pt x="149" y="369" on="1"/>
        <pt x="149" y="0" on="1"/>
        <pt x="94" y="0" on="1"/>
        <pt x="94" y="369" on="1"/>
        <pt x="24" y="369" on="1"/>
        <pt x="24" y="382" on="1"/>
        <pt x="94" y="421" on="1"/>
        <pt x="94" y="555" on="1"/>
        <pt x="94" y="648" on="0"/>
        <pt x="171" y="740" on="0"/>
        <pt x="242" y="740" on="1"/>
        <pt x="259" y="740" on="0"/>
        <pt x="292" y="736" on="0"/>
        <pt x="307" y="730" on="1"/>
      </contour>
      <contour>
        <pt x="573" y="682" on="1"/>
        <pt x="562" y="686" on="0"/>
        <pt x="535" y="690" on="0"/>
        <pt x="524" y="690" on="1"/>
        <pt x="473" y="690" on="0"/>
        <pt x="425" y="631" on="0"/>
        <pt x="425" y="562" on="1"/>
        <pt x="425" y="418" on="1"/>
        <pt x="549" y="418" on="1"/>
        <pt x="549" y="369" on="1"/>
        <pt x="425" y="369" on="1"/>
        <pt x="425" y="0" on="1"/>
        <pt x="370" y="0" on="1"/>
        <pt x="370" y="369" on="1"/>
        <pt x="301" y="369" on="1"/>
        <pt x="301" y="382" on="1"/>
        <pt x="370" y="421" on="1"/>
        <pt x="370" y="555" on="1"/>
        <pt x="370" y="648" on="0"/>
        <pt x="447" y="740" on="0"/>
        <pt x="519" y="740" on="1"/>
        <pt x="536" y="740" on="0"/>
        <pt x="568" y="736" on="0"/>
        <pt x="583" y="730" on="1"/>
      </contour>
      <contour>
        <pt x="621" y="0" on="1"/>
        <pt x="621" y="733" on="1"/>
        <pt x="677" y="733" on="1"/>
        <pt x="677" y="0" on="1"/>
      </contour>
    </TTGlyph>
    <TTGlyph name="fi" xMin="24" yMin="0" xMax="412" yMax="740">
      <contour>
        <pt x="412" y="573" on="1"/>
        <pt x="412" y="556" on="0"/>
        <pt x="389" y="533" on="0"/>
        <pt x="372" y="533" on="1"/>
        <pt x="355" y="533" on="0"/>
        <pt x="332" y="556" on="0"/>
        <pt x="332" y="573" on="1"/>
        <pt x="332" y="590" on="0"/>
        <pt x="355" y="614" on="0"/>
        <pt x="372" y="614" on="1"/>
        <pt x="389" y="614" on="0"/>
        <pt x="412" y="590" on="0"/>
      </contour>
      <contour>
        <pt x="297" y="682" on="1"/>
        <pt x="286" y="686" on="0"/>
        <pt x="258" y="690" on="0"/>
        <pt x="247" y="690" on="1"/>
        <pt x="197" y="690" on="0"/>
        <pt x="149" y="631" on="0"/>
        <pt x="149" y="562" on="1"/>
        <pt x="149" y="418" on="1"/>
        <pt x="273" y="418" on="1"/>
        <pt x="273" y="369" on="1"/>
        <pt x="149" y="369" on="1"/>
        <pt x="149" y="0" on="1"/>
        <pt x="94" y="0" on="1"/>
        <pt x="94" y="369" on="1"/>
        <pt x="24" y="369" on="1"/>
        <pt x="24" y="382" on="1"/>
        <pt x="94" y="421" on="1"/>
        <pt x="94" y="555" on="1"/>
        <pt x="94" y="648" on="0"/>
        <pt x="171" y="740" on="0"/>
        <pt x="242" y="740" on="1"/>
        <pt x="259" y="740" on="0"/>
        <pt x="292" y="736" on="0"/>
        <pt x="307" y="730" on="1"/>
      </contour>
      <contour>
        <pt x="345" y="0" on="1"/>
        <pt x="345" y="418" on="1"/>
        <pt x="400" y="418" on="1"/>
        <pt x="400" y="0" on="1"/>
      </contour>
    </TTGlyph>
    <TTGlyph name="fifteensixteenths" xMin="15" yMin="-15" xMax="1331" yMax="748">
      <component glyphName="one.den" x="734" y="0" flags="0x4"/>
      <component glyphName="five.num" x="259" y="0" flags="0x4"/>
      <component glyphName="six.den" x="1008" y="0" flags="0x4"/>
      <component glyphName="one.num" x="-14" y="0" flags="0x4"/>
      <component glyphName="fraction" x="609" y="0" flags="0x4"/>
    </TTGlyph>
    <TTGlyph name="five" xMin="58" yMin="-9" xMax="404" yMax="577">
      <contour>
        <pt x="404" y="176" on="1"/>
        <pt x="404" y="137" on="0"/>
        <pt x="376" y="69" on="0"/>
        <pt x="325" y="20" on="0"/>
        <pt x="252" y="-9" on="0"/>
        <pt x="207" y="-9" on="1"/>
        <pt x="167" y="-9" on="0"/>
        <pt x="93" y="7" on="0"/>
        <pt x="58" y="20" on="1"/>
        <pt x="74" y="66" on="1"/>
        <pt x="103" y="55" on="0"/>
        <pt x="168" y="40" on="0"/>
        <pt x="204" y="40" on="1"/>
        <pt x="273" y="40" on="0"/>
        <pt x="349" y="115" on="0"/>
        <pt x="349" y="175" on="1"/>
        <pt x="349" y="229" on="0"/>
        <pt x="274" y="299" on="0"/>
        <pt x="200" y="299" on="1"/>
        <pt x="167" y="299" on="0"/>
        <pt x="112" y="292" on="0"/>
        <pt x="89" y="286" on="1"/>
        <pt x="82" y="294" on="1"/>
        <pt x="82" y="577" on="1"/>
        <pt x="379" y="577" on="1"/>
        <pt x="379" y="527" on="1"/>
        <pt x="135" y="527" on="1"/>
        <pt x="135" y="344" on="1"/>
        <pt x="163" y="349" on="0"/>
        <pt x="201" y="349" on="1"/>
        <pt x="251" y="349" on="0"/>
        <pt x="327" y="323" on="0"/>
        <pt x="378" y="276" on="0"/>
        <pt x="404" y="213" on="0"/>
      </contour>
    </TTGlyph>
    <TTGlyph name="five.den" xMin="39" yMin="-8" xMax="311" yMax="379">
      <contour>
        <pt x="154" y="-8" on="1"/>
        <pt x="125" y="-8" on="0"/>
        <pt x="67" y="3" on="0"/>
        <pt x="39" y="17" on="1"/>
        <pt x="52" y="59" on="1"/>
        <pt x="75" y="49" on="0"/>
        <pt x="125" y="36" on="0"/>
        <pt x="150" y="36" on="1"/>
        <pt x="201" y="36" on="0"/>
        <pt x="259" y="78" on="0"/>
        <pt x="259" y="117" on="1"/>
        <pt x="259" y="193" on="0"/>
        <pt x="153" y="193" on="1"/>
        <pt x="130" y="193" on="0"/>
        <pt x="87" y="184" on="0"/>
        <pt x="70" y="179" on="1"/>
        <pt x="58" y="187" on="1"/>
        <pt x="58" y="379" on="1"/>
        <pt x="292" y="379" on="1"/>
        <pt x="292" y="335" on="1"/>
        <pt x="105" y="335" on="1"/>
        <pt x="105" y="230" on="1"/>
        <pt x="117" y="232" on="0"/>
        <pt x="147" y="236" on="0"/>
        <pt x="162" y="236" on="1"/>
        <pt x="236" y="236" on="0"/>
        <pt x="311" y="170" on="0"/>
        <pt x="311" y="117" on="1"/>
        <pt x="311" y="62" on="0"/>
        <pt x="227" y="-8" on="0"/>
      </contour>
    </TTGlyph>
    <TTGlyph name="five.lin" xMin="64" yMin="-10" xMax="496" yMax="733">
      <contour>
        <pt x="496" y="218" on="1"/>
        <pt x="496" y="169" on="0"/>
        <pt x="460" y="86" on="0"/>
        <pt x="394" y="25" on="0"/>
        <pt x="303" y="-10" on="0"/>
        <pt x="248" y="-10" on="1"/>
        <pt x="199" y="-10" on="0"/>
        <pt x="108" y="8" on="0"/>
        <pt x="64" y="24" on="1"/>
        <pt x="84" y="73" on="1"/>
        <pt x="119" y="59" on="0"/>
        <pt x="199" y="41" on="0"/>
        <pt x="244" y="41" on="1"/>
        <pt x="289" y="41" on="0"/>
        <pt x="361" y="67" on="0"/>
        <pt x="412" y="113" on="0"/>
        <pt x="439" y="177" on="0"/>
        <pt x="439" y="215" on="1"/>
        <pt x="439" y="251" on="0"/>
        <pt x="412" y="313" on="0"/>
        <pt x="361" y="359" on="0"/>
        <pt x="286" y="385" on="0"/>
        <pt x="238" y="385" on="1"/>
        <pt x="200" y="385" on="0"/>
        <pt x="126" y="375" on="0"/>
        <pt x="102" y="370" on="1"/>
        <pt x="95" y="379" on="1"/>
        <pt x="95" y="733" on="1"/>
        <pt x="466" y="733" on="1"/>
        <pt x="466" y="683" on="1"/>
        <pt x="151" y="683" on="1"/>
        <pt x="151" y="427" on="1"/>
        <pt x="191" y="435" on="0"/>
        <pt x="243" y="435" on="1"/>
        <pt x="303" y="435" on="0"/>
        <pt x="397" y="402" on="0"/>
        <pt x="462" y="344" on="0"/>
        <pt x="496" y="265" on="0"/>
      </contour>
    </TTGlyph>
    <TTGlyph name="five.num" xMin="39" yMin="347" xMax="311" yMax="733">
      <contour>
        <pt x="154" y="347" on="1"/>
        <pt x="125" y="347" on="0"/>
        <pt x="67" y="358" on="0"/>
        <pt x="39" y="371" on="1"/>
        <pt x="52" y="414" on="1"/>
        <pt x="75" y="403" on="0"/>
        <pt x="125" y="390" on="0"/>
        <pt x="150" y="390" on="1"/>
        <pt x="201" y="390" on="0"/>
        <pt x="259" y="432" on="0"/>
        <pt x="259" y="471" on="1"/>
        <pt x="259" y="547" on="0"/>
        <pt x="153" y="547" on="1"/>
        <pt x="130" y="547" on="0"/>
        <pt x="87" y="538" on="0"/>
        <pt x="70" y="533" on="1"/>
        <pt x="58" y="541" on="1"/>
        <pt x="58" y="733" on="1"/>
        <pt x="292" y="733" on="1"/>
        <pt x="292" y="690" on="1"/>
        <pt x="105" y="690" on="1"/>
        <pt x="105" y="585" on="1"/>
        <pt x="117" y="587" on="0"/>
        <pt x="147" y="590" on="0"/>
        <pt x="162" y="590" on="1"/>
        <pt x="236" y="590" on="0"/>
        <pt x="311" y="525" on="0"/>
        <pt x="311" y="472" on="1"/>
        <pt x="311" y="416" on="0"/>
        <pt x="227" y="347" on="0"/>
      </contour>
    </TTGlyph>
    <TTGlyph name="fiveeighths" xMin="39" yMin="-15" xMax="795" yMax="748">
      <component glyphName="eight.den" x="475" y="0" flags="0x4"/>
      <component glyphName="five.num" x="0" y="0" flags="0x4"/>
      <component glyphName="fraction" x="350" y="0" flags="0x4"/>
    </TTGlyph>
    <TTGlyph name="fivesixteenths" xMin="39" yMin="-15" xMax="1072" yMax="748">
      <component glyphName="one.den" x="475" y="0" flags="0x4"/>
      <component glyphName="six.den" x="749" y="0" flags="0x4"/>
      <component glyphName="five.num" x="0" y="0" flags="0x4"/>
      <component glyphName="fraction" x="350" y="0" flags="0x4"/>
    </TTGlyph>
    <TTGlyph name="fivesixths" xMin="54" yMin="-15" xMax="783" yMax="748">
      <component glyphName="six.den" x="460" y="0" flags="0x4"/>
      <component glyphName="five.num" x="15" y="0" flags="0x4"/>
      <component glyphName="fraction" x="365" y="0" flags="0x4"/>
    </TTGlyph>
    <TTGlyph name="fl" xMin="24" yMin="0" xMax="400" yMax="740">
      <contour>
        <pt x="297" y="682" on="1"/>
        <pt x="286" y="686" on="0"/>
        <pt x="258" y="690" on="0"/>
        <pt x="247" y="690" on="1"/>
        <pt x="197" y="690" on="0"/>
        <pt x="149" y="631" on="0"/>
        <pt x="149" y="562" on="1"/>
        <pt x="149" y="418" on="1"/>
        <pt x="273" y="418" on="1"/>
        <pt x="273" y="369" on="1"/>
        <pt x="149" y="369" on="1"/>
        <pt x="149" y="0" on="1"/>
        <pt x="94" y="0" on="1"/>
        <pt x="94" y="369" on="1"/>
        <pt x="24" y="369" on="1"/>
        <pt x="24" y="382" on="1"/>
        <pt x="94" y="421" on="1"/>
        <pt x="94" y="555" on="1"/>
        <pt x="94" y="648" on="0"/>
        <pt x="171" y="740" on="0"/>
        <pt x="242" y="740" on="1"/>
        <pt x="259" y="740" on="0"/>
        <pt x="292" y="736" on="0"/>
        <pt x="307" y="730" on="1"/>
      </contour>
      <contour>
        <pt x="345" y="0" on="1"/>
        <pt x="345" y="733" on="1"/>
        <pt x="400" y="733" on="1"/>
        <pt x="400" y="0" on="1"/>
      </contour>
    </TTGlyph>
    <TTGlyph name="florin" xMin="61" yMin="0" xMax="367" yMax="586">
      <contour>
        <pt x="356" y="528" on="1"/>
        <pt x="346" y="531" on="0"/>
        <pt x="320" y="535" on="0"/>
        <pt x="308" y="535" on="1"/>
        <pt x="254" y="535" on="0"/>
        <pt x="200" y="471" on="0"/>
        <pt x="191" y="396" on="1"/>
        <pt x="184" y="336" on="1"/>
        <pt x="284" y="336" on="1"/>
        <pt x="282" y="288" on="1"/>
        <pt x="179" y="288" on="1"/>
        <pt x="146" y="0" on="1"/>
        <pt x="90" y="0" on="1"/>
        <pt x="123" y="288" on="1"/>
        <pt x="61" y="288" on="1"/>
        <pt x="64" y="299" on="1"/>
        <pt x="129" y="339" on="1"/>
        <pt x="135" y="392" on="1"/>
        <pt x="146" y="488" on="0"/>
        <pt x="231" y="586" on="0"/>
        <pt x="306" y="586" on="1"/>
        <pt x="325" y="586" on="0"/>
        <pt x="352" y="581" on="0"/>
        <pt x="367" y="576" on="1"/>
      </contour>
    </TTGlyph>
    <TTGlyph name="florin.lin" xMin="84" yMin="0" xMax="463" yMax="744">
      <contour>
        <pt x="448" y="682" on="1"/>
        <pt x="434" y="687" on="0"/>
        <pt x="401" y="693" on="0"/>
        <pt x="384" y="693" on="1"/>
        <pt x="312" y="693" on="0"/>
        <pt x="240" y="603" on="0"/>
        <pt x="229" y="504" on="1"/>
        <pt x="219" y="417" on="1"/>
        <pt x="356" y="417" on="1"/>
        <pt x="353" y="367" on="1"/>
        <pt x="213" y="367" on="1"/>
        <pt x="171" y="0" on="1"/>
        <pt x="114" y="0" on="1"/>
        <pt x="156" y="366" on="1"/>
        <pt x="84" y="366" on="1"/>
        <pt x="86" y="379" on="1"/>
        <pt x="162" y="417" on="1"/>
        <pt x="172" y="504" on="1"/>
        <pt x="186" y="622" on="0"/>
        <pt x="294" y="744" on="0"/>
        <pt x="383" y="744" on="1"/>
        <pt x="406" y="744" on="0"/>
        <pt x="446" y="737" on="0"/>
        <pt x="463" y="731" on="1"/>
      </contour>
    </TTGlyph>
    <TTGlyph name="four" xMin="18" yMin="-1" xMax="454" yMax="587">
      <contour>
        <pt x="358" y="173" on="1"/>
        <pt x="358" y="-1" on="1"/>
        <pt x="306" y="-1" on="1"/>
        <pt x="306" y="173" on="1"/>
        <pt x="18" y="173" on="1"/>
        <pt x="18" y="187" on="1"/>
        <pt x="343" y="587" on="1"/>
        <pt x="358" y="587" on="1"/>
        <pt x="358" y="222" on="1"/>
        <pt x="454" y="222" on="1"/>
        <pt x="454" y="173" on="1"/>
      </contour>
      <contour>
        <pt x="306" y="468" on="1"/>
        <pt x="106" y="222" on="1"/>
        <pt x="306" y="222" on="1"/>
      </contour>
    </TTGlyph>
    <TTGlyph name="four.den" xMin="16" yMin="0" xMax="333" yMax="397">
      <contour>
        <pt x="225" y="85" on="1"/>
        <pt x="16" y="85" on="1"/>
        <pt x="16" y="110" on="1"/>
        <pt x="242" y="397" on="1"/>
        <pt x="269" y="397" on="1"/>
        <pt x="269" y="125" on="1"/>
        <pt x="333" y="125" on="1"/>
        <pt x="333" y="85" on="1"/>
        <pt x="269" y="85" on="1"/>
        <pt x="269" y="0" on="1"/>
        <pt x="225" y="0" on="1"/>
      </contour>
      <contour>
        <pt x="225" y="125" on="1"/>
        <pt x="225" y="312" on="1"/>
        <pt x="77" y="125" on="1"/>
      </contour>
    </TTGlyph>
    <TTGlyph name="four.lin" xMin="25" yMin="0" xMax="574" yMax="745">
      <contour>
        <pt x="452" y="223" on="1"/>
        <pt x="452" y="0" on="1"/>
        <pt x="397" y="0" on="1"/>
        <pt x="397" y="223" on="1"/>
        <pt x="25" y="223" on="1"/>
        <pt x="25" y="239" on="1"/>
        <pt x="435" y="745" on="1"/>
        <pt x="452" y="745" on="1"/>
        <pt x="452" y="271" on="1"/>
        <pt x="574" y="271" on="1"/>
        <pt x="574" y="223" on="1"/>
      </contour>
      <contour>
        <pt x="397" y="626" on="1"/>
        <pt x="111" y="271" on="1"/>
        <pt x="397" y="271" on="1"/>
      </contour>
    </TTGlyph>
    <TTGlyph name="four.num" xMin="16" yMin="355" xMax="333" yMax="751">
      <contour>
        <pt x="225" y="440" on="1"/>
        <pt x="16" y="440" on="1"/>
        <pt x="16" y="465" on="1"/>
        <pt x="242" y="751" on="1"/>
        <pt x="269" y="751" on="1"/>
        <pt x="269" y="479" on="1"/>
        <pt x="333" y="479" on="1"/>
        <pt x="333" y="440" on="1"/>
        <pt x="269" y="440" on="1"/>
        <pt x="269" y="355" on="1"/>
        <pt x="225" y="355" on="1"/>
      </contour>
      <contour>
        <pt x="225" y="479" on="1"/>
        <pt x="225" y="667" on="1"/>
        <pt x="77" y="479" on="1"/>
      </contour>
    </TTGlyph>
    <TTGlyph name="fourfifths" xMin="16" yMin="-15" xMax="786" yMax="751">
      <component glyphName="four.num" x="0" y="0" flags="0x4"/>
      <component glyphName="five.den" x="475" y="0" flags="0x4"/>
      <component glyphName="fraction" x="350" y="0" flags="0x4"/>
    </TTGlyph>
    <TTGlyph name="fraction" xMin="-235" yMin="-15" xMax="360" yMax="748">
      <contour>
        <pt x="-235" y="13" on="1"/>
        <pt x="46" y="381" on="1"/>
        <pt x="323" y="748" on="1"/>
        <pt x="360" y="721" on="1"/>
        <pt x="79" y="353" on="1"/>
        <pt x="-198" y="-15" on="1"/>
      </contour>
    </TTGlyph>
    <TTGlyph name="g" xMin="43" yMin="-226" xMax="443" yMax="426">
      <contour>
        <pt x="443" y="-41" on="1"/>
        <pt x="443" y="-136" on="0"/>
        <pt x="353" y="-226" on="0"/>
        <pt x="268" y="-226" on="1"/>
        <pt x="231" y="-226" on="0"/>
        <pt x="164" y="-213" on="0"/>
        <pt x="129" y="-202" on="1"/>
        <pt x="139" y="-151" on="1"/>
        <pt x="172" y="-164" on="0"/>
        <pt x="233" y="-175" on="0"/>
        <pt x="262" y="-175" on="1"/>
        <pt x="328" y="-175" on="0"/>
        <pt x="388" y="-112" on="0"/>
        <pt x="388" y="-45" on="1"/>
        <pt x="388" y="47" on="1"/>
        <pt x="363" y="24" on="0"/>
        <pt x="291" y="-8" on="0"/>
        <pt x="246" y="-8" on="1"/>
        <pt x="202" y="-8" on="0"/>
        <pt x="127" y="24" on="0"/>
        <pt x="73" y="81" on="0"/>
        <pt x="43" y="160" on="0"/>
        <pt x="43" y="207" on="1"/>
        <pt x="43" y="253" on="0"/>
        <pt x="75" y="333" on="0"/>
        <pt x="131" y="392" on="0"/>
        <pt x="206" y="426" on="0"/>
        <pt x="248" y="426" on="1"/>
        <pt x="293" y="426" on="0"/>
        <pt x="367" y="393" on="0"/>
        <pt x="390" y="369" on="1"/>
        <pt x="390" y="418" on="1"/>
        <pt x="443" y="418" on="1"/>
      </contour>
      <contour>
        <pt x="388" y="313" on="1"/>
        <pt x="365" y="340" on="0"/>
        <pt x="294" y="378" on="0"/>
        <pt x="252" y="378" on="1"/>
        <pt x="218" y="378" on="0"/>
        <pt x="162" y="353" on="0"/>
        <pt x="121" y="307" on="0"/>
        <pt x="98" y="244" on="0"/>
        <pt x="98" y="207" on="1"/>
        <pt x="98" y="171" on="0"/>
        <pt x="121" y="109" on="0"/>
        <pt x="162" y="64" on="0"/>
        <pt x="220" y="39" on="0"/>
        <pt x="256" y="39" on="1"/>
        <pt x="296" y="39" on="0"/>
        <pt x="365" y="74" on="0"/>
        <pt x="388" y="103" on="1"/>
      </contour>
    </TTGlyph>
    <TTGlyph name="gbreve" xMin="43" yMin="-226" xMax="443" yMax="610">
      <component glyphName="g" x="0" y="0" flags="0x204"/>
      <component glyphName="breve" x="46" y="0" flags="0x4"/>
    </TTGlyph>
    <TTGlyph name="gcommaaccent" xMin="43" yMin="-226" xMax="443" yMax="702">
      <contour>
        <pt x="443" y="-41" on="1"/>
        <pt x="443" y="-136" on="0"/>
        <pt x="353" y="-226" on="0"/>
        <pt x="268" y="-226" on="1"/>
        <pt x="231" y="-226" on="0"/>
        <pt x="164" y="-213" on="0"/>
        <pt x="129" y="-202" on="1"/>
        <pt x="139" y="-151" on="1"/>
        <pt x="172" y="-164" on="0"/>
        <pt x="233" y="-175" on="0"/>
        <pt x="262" y="-175" on="1"/>
        <pt x="328" y="-175" on="0"/>
        <pt x="388" y="-112" on="0"/>
        <pt x="388" y="-45" on="1"/>
        <pt x="388" y="47" on="1"/>
        <pt x="363" y="24" on="0"/>
        <pt x="291" y="-8" on="0"/>
        <pt x="246" y="-8" on="1"/>
        <pt x="202" y="-8" on="0"/>
        <pt x="127" y="24" on="0"/>
        <pt x="73" y="81" on="0"/>
        <pt x="43" y="160" on="0"/>
        <pt x="43" y="207" on="1"/>
        <pt x="43" y="253" on="0"/>
        <pt x="75" y="333" on="0"/>
        <pt x="131" y="392" on="0"/>
        <pt x="206" y="426" on="0"/>
        <pt x="248" y="426" on="1"/>
        <pt x="293" y="426" on="0"/>
        <pt x="367" y="393" on="0"/>
        <pt x="390" y="369" on="1"/>
        <pt x="390" y="418" on="1"/>
        <pt x="443" y="418" on="1"/>
      </contour>
      <contour>
        <pt x="388" y="313" on="1"/>
        <pt x="365" y="340" on="0"/>
        <pt x="294" y="378" on="0"/>
        <pt x="252" y="378" on="1"/>
        <pt x="218" y="378" on="0"/>
        <pt x="162" y="353" on="0"/>
        <pt x="121" y="307" on="0"/>
        <pt x="98" y="244" on="0"/>
        <pt x="98" y="207" on="1"/>
        <pt x="98" y="171" on="0"/>
        <pt x="121" y="109" on="0"/>
        <pt x="162" y="64" on="0"/>
        <pt x="220" y="39" on="0"/>
        <pt x="256" y="39" on="1"/>
        <pt x="296" y="39" on="0"/>
        <pt x="365" y="74" on="0"/>
        <pt x="388" y="103" on="1"/>
      </contour>
      <contour>
        <pt x="219" y="568" on="1"/>
        <pt x="219" y="586" on="0"/>
        <pt x="232" y="623" on="0"/>
        <pt x="255" y="659" on="0"/>
        <pt x="287" y="691" on="0"/>
        <pt x="306" y="702" on="1"/>
        <pt x="317" y="689" on="1"/>
        <pt x="294" y="668" on="0"/>
        <pt x="266" y="620" on="0"/>
        <pt x="261" y="597" on="1"/>
        <pt x="283" y="595" on="0"/>
        <pt x="307" y="571" on="0"/>
        <pt x="307" y="554" on="1"/>
        <pt x="307" y="537" on="0"/>
        <pt x="283" y="513" on="0"/>
        <pt x="266" y="513" on="1"/>
        <pt x="245" y="513" on="0"/>
        <pt x="219" y="544" on="0"/>
      </contour>
    </TTGlyph>
    <TTGlyph name="gdotaccent" xMin="43" yMin="-226" xMax="443" yMax="586">
      <component glyphName="g" x="0" y="0" flags="0x204"/>
      <component glyphName="dotaccent" x="45" y="0" flags="0x4"/>
    </TTGlyph>
    <TTGlyph name="germandbls" xMin="67" yMin="-94" xMax="438" yMax="740">
      <contour>
        <pt x="284" y="220" on="1"/>
        <pt x="359" y="216" on="0"/>
        <pt x="438" y="134" on="0"/>
        <pt x="438" y="74" on="1"/>
        <pt x="438" y="33" on="0"/>
        <pt x="408" y="-29" on="0"/>
        <pt x="356" y="-72" on="0"/>
        <pt x="285" y="-94" on="0"/>
        <pt x="244" y="-94" on="1"/>
        <pt x="208" y="-94" on="0"/>
        <pt x="177" y="-87" on="1"/>
        <pt x="184" y="-39" on="1"/>
        <pt x="214" y="-45" on="0"/>
        <pt x="243" y="-45" on="1"/>
        <pt x="309" y="-45" on="0"/>
        <pt x="384" y="16" on="0"/>
        <pt x="384" y="72" on="1"/>
        <pt x="384" y="119" on="0"/>
        <pt x="316" y="178" on="0"/>
        <pt x="250" y="178" on="1"/>
        <pt x="228" y="178" on="0"/>
        <pt x="206" y="175" on="1"/>
        <pt x="201" y="187" on="1"/>
        <pt x="345" y="369" on="1"/>
        <pt x="122" y="369" on="1"/>
        <pt x="122" y="0" on="1"/>
        <pt x="67" y="0" on="1"/>
        <pt x="67" y="555" on="1"/>
        <pt x="67" y="648" on="0"/>
        <pt x="144" y="740" on="0"/>
        <pt x="216" y="740" on="1"/>
        <pt x="233" y="740" on="0"/>
        <pt x="265" y="736" on="0"/>
        <pt x="280" y="730" on="1"/>
        <pt x="270" y="682" on="1"/>
        <pt x="259" y="686" on="0"/>
        <pt x="232" y="690" on="0"/>
        <pt x="221" y="690" on="1"/>
        <pt x="170" y="690" on="0"/>
        <pt x="122" y="631" on="0"/>
        <pt x="122" y="562" on="1"/>
        <pt x="122" y="418" on="1"/>
        <pt x="430" y="418" on="1"/>
        <pt x="434" y="408" on="1"/>
      </contour>
    </TTGlyph>
    <TTGlyph name="grave" xMin="123" yMin="475" xMax="334" yMax="628">
      <contour>
        <pt x="315" y="475" on="1"/>
        <pt x="123" y="574" on="1"/>
        <pt x="154" y="628" on="1"/>
        <pt x="334" y="505" on="1"/>
      </contour>
    </TTGlyph>
    <TTGlyph name="greater" xMin="39" yMin="38" xMax="348" yMax="525">
      <contour>
        <pt x="73" y="38" on="1"/>
        <pt x="39" y="75" on="1"/>
        <pt x="273" y="283" on="1"/>
        <pt x="39" y="490" on="1"/>
        <pt x="73" y="525" on="1"/>
        <pt x="348" y="282" on="1"/>
      </contour>
    </TTGlyph>
    <TTGlyph name="greater.lin" xMin="39" yMin="128" xMax="348" yMax="615">
      <component glyphName="greater" x="0" y="90" flags="0x204"/>
    </TTGlyph>
    <TTGlyph name="guillemotleft" xMin="49" yMin="9" xMax="357" yMax="336">
      <contour>
        <pt x="299" y="9" on="1"/>
        <pt x="194" y="173" on="1"/>
        <pt x="299" y="336" on="1"/>
        <pt x="357" y="336" on="1"/>
        <pt x="249" y="173" on="1"/>
        <pt x="357" y="9" on="1"/>
      </contour>
      <contour>
        <pt x="154" y="9" on="1"/>
        <pt x="49" y="173" on="1"/>
        <pt x="154" y="336" on="1"/>
        <pt x="212" y="336" on="1"/>
        <pt x="104" y="173" on="1"/>
        <pt x="212" y="9" on="1"/>
      </contour>
    </TTGlyph>
    <TTGlyph name="guillemotleft.cap" xMin="49" yMin="207" xMax="357" yMax="534">
      <component glyphName="guillemotleft" x="0" y="198" flags="0x204"/>
    </TTGlyph>
    <TTGlyph name="guillemotright" xMin="45" yMin="9" xMax="353" yMax="336">
      <contour>
        <pt x="248" y="9" on="1"/>
        <pt x="190" y="9" on="1"/>
        <pt x="298" y="173" on="1"/>
        <pt x="190" y="336" on="1"/>
        <pt x="248" y="336" on="1"/>
        <pt x="353" y="173" on="1"/>
      </contour>
      <contour>
        <pt x="103" y="9" on="1"/>
        <pt x="45" y="9" on="1"/>
        <pt x="153" y="173" on="1"/>
        <pt x="45" y="336" on="1"/>
        <pt x="103" y="336" on="1"/>
        <pt x="208" y="173" on="1"/>
      </contour>
    </TTGlyph>
    <TTGlyph name="guillemotright.cap" xMin="45" yMin="207" xMax="353" yMax="534">
      <component glyphName="guillemotright" x="0" y="198" flags="0x204"/>
    </TTGlyph>
    <TTGlyph name="guilsinglleft" xMin="49" yMin="9" xMax="212" yMax="336">
      <contour>
        <pt x="154" y="9" on="1"/>
        <pt x="49" y="173" on="1"/>
        <pt x="154" y="336" on="1"/>
        <pt x="212" y="336" on="1"/>
        <pt x="104" y="173" on="1"/>
        <pt x="212" y="9" on="1"/>
      </contour>
    </TTGlyph>
    <TTGlyph name="guilsinglleft.cap" xMin="49" yMin="207" xMax="212" yMax="534">
      <component glyphName="guilsinglleft" x="0" y="198" flags="0x204"/>
    </TTGlyph>
    <TTGlyph name="guilsinglright" xMin="45" yMin="9" xMax="208" yMax="336">
      <contour>
        <pt x="103" y="9" on="1"/>
        <pt x="45" y="9" on="1"/>
        <pt x="153" y="173" on="1"/>
        <pt x="45" y="336" on="1"/>
        <pt x="103" y="336" on="1"/>
        <pt x="208" y="173" on="1"/>
      </contour>
    </TTGlyph>
    <TTGlyph name="guilsinglright.cap" xMin="45" yMin="207" xMax="208" yMax="534">
      <component glyphName="guilsinglright" x="0" y="198" flags="0x204"/>
    </TTGlyph>
    <TTGlyph name="h" xMin="63" yMin="0" xMax="418" yMax="733">
      <contour>
        <pt x="362" y="0" on="1"/>
        <pt x="362" y="269" on="1"/>
        <pt x="362" y="322" on="0"/>
        <pt x="316" y="378" on="0"/>
        <pt x="265" y="378" on="1"/>
        <pt x="225" y="378" on="0"/>
        <pt x="147" y="330" on="0"/>
        <pt x="118" y="298" on="1"/>
        <pt x="118" y="0" on="1"/>
        <pt x="63" y="0" on="1"/>
        <pt x="63" y="733" on="1"/>
        <pt x="118" y="733" on="1"/>
        <pt x="118" y="347" on="1"/>
        <pt x="149" y="380" on="0"/>
        <pt x="231" y="426" on="0"/>
        <pt x="276" y="426" on="1"/>
        <pt x="348" y="426" on="0"/>
        <pt x="418" y="344" on="0"/>
        <pt x="418" y="281" on="1"/>
        <pt x="418" y="0" on="1"/>
      </contour>
    </TTGlyph>
    <TTGlyph name="hbar" xMin="4" yMin="0" xMax="418" yMax="733">
      <contour>
        <pt x="362" y="0" on="1"/>
        <pt x="362" y="269" on="1"/>
        <pt x="362" y="322" on="0"/>
        <pt x="316" y="378" on="0"/>
        <pt x="265" y="378" on="1"/>
        <pt x="225" y="378" on="0"/>
        <pt x="147" y="330" on="0"/>
        <pt x="118" y="298" on="1"/>
        <pt x="118" y="0" on="1"/>
        <pt x="63" y="0" on="1"/>
        <pt x="63" y="570" on="1"/>
        <pt x="4" y="570" on="1"/>
        <pt x="4" y="618" on="1"/>
        <pt x="63" y="618" on="1"/>
        <pt x="63" y="733" on="1"/>
        <pt x="118" y="733" on="1"/>
        <pt x="118" y="618" on="1"/>
        <pt x="264" y="618" on="1"/>
        <pt x="264" y="570" on="1"/>
        <pt x="118" y="570" on="1"/>
        <pt x="118" y="347" on="1"/>
        <pt x="149" y="380" on="0"/>
        <pt x="231" y="426" on="0"/>
        <pt x="276" y="426" on="1"/>
        <pt x="348" y="426" on="0"/>
        <pt x="418" y="344" on="0"/>
        <pt x="418" y="281" on="1"/>
        <pt x="418" y="0" on="1"/>
      </contour>
    </TTGlyph>
</ttFont>
